<?xml version="1.0" standalone="no"?>
<!DOCTYPE svg PUBLIC "-//W3C//DTD SVG 1.1//EN" "http://www.w3.org/Graphics/SVG/1.1/DTD/svg11.dtd" >
<svg xmlns="http://www.w3.org/2000/svg">
<metadata></metadata>
<defs>
<font id="webfontregular" horiz-adv-x="1024" >
<font-face units-per-em="2048" ascent="1638" descent="-410" />
<missing-glyph horiz-adv-x="489" />
<glyph horiz-adv-x="0" />
<glyph unicode="&#xd;" horiz-adv-x="489" />
<glyph unicode=" "  horiz-adv-x="489" />
<glyph unicode="&#x09;" horiz-adv-x="489" />
<glyph unicode="&#xa0;" horiz-adv-x="489" />
<glyph unicode="!" horiz-adv-x="638" d="M49 1313h418l-55 -948h-308zM63 0v287h392v-287h-392z" />
<glyph unicode="&#x22;" horiz-adv-x="1081" d="M96 532l86 496h371l-197 -496h-260zM543 532l86 496h372l-196 -496h-262z" />
<glyph unicode="#" horiz-adv-x="1077" d="M88 258l23 127h165l50 283h-166l22 127h166l43 235h127l-43 -235h221l43 235h127l-43 -235h166l-22 -127h-166l-49 -283h166l-23 -127h-166l-45 -258h-127l45 258h-221l-45 -258h-127l45 258h-166zM403 385h222l49 283h-221z" />
<glyph unicode="$" horiz-adv-x="1280" d="M76 334h366q-4 -57 47 -111q25 -27 84 -26q45 0 83 20.5t38 61.5q0 82 -155 127q-272 78 -293 88q-158 76 -158 233q0 274 324 311v148h315v-144q133 0 224 -98t91 -233h-364q0 47 -12 69q-29 53 -115 54q-94 0 -94 -103q0 -37 192 -82q164 -39 209 -53q207 -70 207 -295 q0 -133 -101.5 -220t-236.5 -87v-148h-315v144q-160 0 -248 92t-88 252z" />
<glyph unicode="%" horiz-adv-x="1505" d="M78 776q0 283 280 283q283 0 283 -283t-283 -282q-281 0 -280 282zM276 776q0 -72 11 -98q18 -47 71 -47q82 0 82 145q0 70 -10 98q-16 47 -72 48q-82 0 -82 -146zM403 0l512 1028h226l-512 -1028h-226zM903 252q0 283 281 283q282 0 282 -283t-282 -283q-281 0 -281 283 zM1102 252q0 -72 10 -98q18 -47 72 -48q84 1 84 146q0 70 -11 96q-18 49 -73 49q-82 0 -82 -145z" />
<glyph unicode="&#x26;" horiz-adv-x="1310" d="M51 264q0 160 185 289q49 31 147 96q-57 150 -57 252q0 80 32 129q90 135 242 135q102 0 160.5 -68.5t58.5 -170.5q0 -164 -250 -277l211 -346l131 199q31 47 31 100q0 84 -108 98v27h356v-27q-27 -8 -78 -28q-39 -16 -68 -64l-210 -344q-4 -6 -5 -12q0 -29 72 -80 q84 -63 172 -63q100 0 156 90l41 -27q-133 -197 -285 -197q-131 0 -258 158q-162 -147 -387 -147q-289 0 -289 278zM227 307q0 -41 11 -69q14 -72 72.5 -115t131.5 -43q119 0 234 104l-266 398q-182 -117 -183 -275zM463 926q0 -68 22 -125q31 -61 43 -88q98 59 125 84 q60 55 74 141q4 25 4 43q0 115 -110 115q-70 0 -114 -50.5t-44 -119.5z" />
<glyph unicode="'" horiz-adv-x="630" d="M96 532l86 496h371l-197 -496h-260z" />
<glyph unicode="(" horiz-adv-x="960" d="M133 516q0 195 36 339t126 316h389q-137 -315 -137 -655q0 -197 29.5 -335t107.5 -320h-389q-90 172 -126 316.5t-36 338.5z" />
<glyph unicode=")" horiz-adv-x="960" d="M276 -139q137 319 138 655q0 197 -30 335t-108 320h392q161 -305 161 -655q0 -195 -35.5 -336t-125.5 -319h-392z" />
<glyph unicode="*" horiz-adv-x="776" d="M47 1200q-8 27 32 99.5t66 72.5l160 -151q-14 -41 -43 -76zM49 1028q0 6 2 10l211 62q27 -31 43 -74l-155 -158q-27 4 -68 78q-33 57 -33 82zM287 1456q20 20 102 21q82 -1 96 -21l-53 -213q-12 -4 -24 -4h-19q-27 0 -43 4zM293 788l53 213q23 6 39 7q18 0 47 -7l57 -213 q-16 -18 -96 -18q-86 0 -100 18zM471 1026q14 35 43 74l215 -56q8 -27 -32 -99.5t-66 -72.5zM471 1219l158 157q25 -2 66.5 -74.5t31.5 -95.5l-213 -61q-23 29 -43 74z" />
<glyph unicode="+" horiz-adv-x="1052" d="M111 391v246h290v289h246v-289h291v-246h-291v-289h-246v289h-290z" />
<glyph unicode="," horiz-adv-x="702" d="M111 -168l86 461h399l-197 -461h-288z" />
<glyph unicode="-" horiz-adv-x="657" d="M90 397v246h471v-246h-471z" />
<glyph unicode="." horiz-adv-x="608" d="M94 0v307h369v-307h-369z" />
<glyph unicode="/" horiz-adv-x="696" d="M0 -209l473 1448h223l-473 -1448h-223z" />
<glyph unicode="0" horiz-adv-x="1161" d="M70 514q0 545 512 545q510 0 510 -545t-510 -545q-512 0 -512 545zM416 514q0 -135 22 -203q37 -115 144 -114q163 0 163 317q0 137 -20 203q-37 117 -143 117q-166 0 -166 -320z" />
<glyph unicode="1" horiz-adv-x="1161" d="M170 512v287q197 53 352 229h350v-1028h-395v676q-127 -117 -307 -164z" />
<glyph unicode="2" horiz-adv-x="1161" d="M76 180q0 59 2 66q270 121 381 186q270 158 270 287q0 133 -131 133q-158 0 -158 -156h-350q-2 14 -2 39q0 182 158 269q123 68 321 67q498 0 498 -375q0 -188 -229 -319q-121 -70 -342 -131q31 -2 73 -2h469q20 0 31 2v-246h-989v90q-2 59 -2 90z" />
<glyph unicode="3" horiz-adv-x="1161" d="M37 346h346q0 -78 50 -126t128 -48q66 0 117 25q66 31 65 88q0 82 -49 112q-39 25 -127 25h-51q-35 -2 -51 -2v192q119 0 162 17q70 27 69 106q0 109 -139 109q-41 0 -86 -23q-53 -27 -53 -63v-60h-348q0 199 153 295q127 78 340 78q489 0 490 -319q0 -184 -236 -232 q283 0 283 -258q0 -166 -195 -242q-139 -55 -336 -55q-223 0 -360 76q-172 98 -172 305z" />
<glyph unicode="4" horiz-adv-x="1161" d="M33 231v207l418 590h485v-565h197v-232h-197v-231h-379v231h-524zM309 463h252v356z" />
<glyph unicode="5" horiz-adv-x="1161" d="M63 266h388q0 -84 147 -84q141 0 141 158q0 152 -133 152q-66 0 -94 -11q-47 -16 -47 -69h-381l37 616h905v-246h-561q-6 -45 -16 -114q-16 -117 -13 -119q49 68 111 94q55 23 147 23q404 0 404 -324q0 -373 -510 -373q-524 0 -525 297z" />
<glyph unicode="6" horiz-adv-x="1161" d="M82 537q0 522 549 522q176 0 297 -68q147 -84 147 -248h-334q0 96 -112 97q-121 0 -164 -131q-23 -70 -23 -207q47 84 64 98q63 53 231 53q160 0 256 -78q105 -85 105 -243q0 -195 -152 -287q-125 -76 -332 -76q-532 0 -532 568zM455 319q0 -72 44 -116.5t115 -44.5 q146 -1 146 161q0 70 -38 113t-108 43q-61 0 -110 -47t-49 -109z" />
<glyph unicode="7" horiz-adv-x="1161" d="M117 782v246h927v-248l-342 -780h-401l365 782h-549z" />
<glyph unicode="8" horiz-adv-x="1161" d="M53 279q0 98 82 161l180 82q-86 29 -143 82q-68 63 -68 144q0 168 160 249q123 61 309 62q190 0 312 -62q162 -80 162 -249q0 -74 -68 -136l-148 -90q113 -20 187 -76q90 -67 90 -167q0 -164 -197 -248q-147 -61 -338 -62q-190 0 -331 62q-188 82 -189 248zM365 301 q0 -147 208 -147q209 0 209 147q0 141 -209 141t-208 -141zM426 745q0 -59 44 -99t103 -40q61 0 104.5 39t43.5 100t-43 100.5t-105 39.5q-59 0 -103 -40t-44 -100z" />
<glyph unicode="9" horiz-adv-x="1161" d="M84 285h344q0 -111 137 -111q168 0 168 242q0 68 -12 73q-23 -39 -49 -59q-76 -59 -199 -59q-197 0 -289 80q-100 84 -100 276q0 164 152 254q127 78 301 78q287 0 423 -133t136 -420q0 -274 -131 -405.5t-406 -131.5q-195 0 -315 62q-160 80 -160 254zM393 700 q0 -66 46 -109.5t112 -43.5q68 0 114 42.5t46 110.5q0 63 -48.5 105.5t-111.5 42.5q-66 0 -112 -42t-46 -106z" />
<glyph unicode=":" horiz-adv-x="657" d="M94 0v293h389v-293h-389zM94 602v293h389v-293h-389z" />
<glyph unicode=";" horiz-adv-x="763" d="M66 -180l92 497h430l-211 -497h-311zM147 580v315h420v-315h-420z" />
<glyph unicode="&#x3c;" horiz-adv-x="1351" d="M168 373v245l1003 373v-264l-651 -229l651 -230v-268z" />
<glyph unicode="=" horiz-adv-x="1052" d="M115 190v246h829v-246h-829zM115 592v246h829v-246h-829z" />
<glyph unicode="&#x3e;" horiz-adv-x="1351" d="M180 0v268l649 230l-649 229v264l1004 -373v-245z" />
<glyph unicode="?" horiz-adv-x="1159" d="M55 997q0 184 166 273q129 68 332 67q467 0 467 -370q0 -123 -92 -211q-86 -61 -174 -123q-92 -70 -92 -146v-90h-316v115q0 68 51 131l78 78l160 153q31 41 31 95q0 147 -123 147q-147 0 -148 -143q0 -68 11 -96q2 -10 10 -29h-299q-20 23 -31 39q-31 51 -31 110zM313 0 v287h389v-287h-389z" />
<glyph unicode="@" horiz-adv-x="1546" d="M82 420q0 238 156 426q260 315 661 315q293 0 453 -219q127 -174 127 -395v-29q-4 -21 -4 -29q0 -80 -93 -223q-121 -186 -272 -186q-53 0 -80 8q-80 25 -131 111q-88 -123 -235 -123q-197 0 -205 217q-2 23 -2 33q0 125 53 231q29 59 98 143q86 104 219 105 q109 0 177 -105l14 80h145l-133 -569q37 -57 92 -57q119 0 199 168q68 141 68 272q-27 203 -171.5 336t-347.5 133q-27 0 -47 -2q-461 -47 -573 -533q-18 -80 -19 -151q0 -246 185 -402q174 -145 426 -145q203 0 375 104l26 -67q-233 -117 -457 -117q-319 0 -536 236 q-168 182 -168 434zM618 328q0 -59 19 -107q25 -63 76 -63q184 33 239 305q14 72 15 119q0 129 -95 145q-61 0 -135 -88q-63 -74 -86 -141q-33 -94 -33 -170z" />
<glyph unicode="A" horiz-adv-x="1478" d="M16 0v37q84 14 111 39q49 47 113 194l477 1116h35l471 -1128q47 -111 82 -152q55 -63 151 -69v-37h-534v37q137 6 137 84q0 43 -39 137l-82 197h-526l-93 -215q-33 -78 -32 -117q0 -76 155 -86v-37h-426zM442 528h467l-229 547z" />
<glyph unicode="B" horiz-adv-x="1366" d="M35 0v37h51q84 0 121 53q22 34 22 141v9v876q0 127 -28 160q-39 43 -115 43h-51v37h586q342 0 479 -139q92 -90 92 -224q0 -223 -246 -301q307 -65 307 -321q0 -109 -66.5 -199t-170.5 -129q-115 -43 -342 -43h-639zM422 98q113 -26 221 -26h8q152 0 252 63 q119 76 119 219q0 164 -137 244q-111 66 -287 66q-127 0 -176 -11v-555zM422 745q74 -14 188 -14q256 0 332 129q39 65 39 141q0 145 -121 224q-104 63 -258 63q-100 0 -180 -20v-523z" />
<glyph unicode="C" horiz-adv-x="1366" d="M74 657q0 199 86 365q90 174 256 272q160 92 348 92q147 0 291 -71q43 -23 59 -23q61 0 84 94h35l31 -460h-31q-117 389 -453 389q-295 0 -415 -287q-63 -152 -64 -373q0 -383 238 -526q119 -72 270 -72q154 0 264 76q88 61 191 205l30 -21q-197 -348 -561 -348 q-336 0 -520 250q-139 186 -139 438z" />
<glyph unicode="D" horiz-adv-x="1478" d="M35 0v37h51q86 0 123 55q20 33 20 148v876q0 127 -26 160q-39 43 -117 43h-51v37h553q260 0 405 -49q199 -66 307 -242q101 -162 101 -381q0 -334 -215 -514q-203 -170 -545 -170h-606zM422 98q123 -28 207 -28h6q254 0 401 180q138 166 138 426q0 264 -140 428 q-147 176 -407 176q-90 0 -205 -29v-1153z" />
<glyph unicode="E" horiz-adv-x="1251" d="M43 0v37h47q123 0 141 102q4 23 5 101v880q0 129 -25 160q-37 39 -121 39h-47v37h1044l15 -297h-39q-16 88 -35 123q-29 61 -88 86q-37 14 -139 14h-373v-537h297q117 0 156 35q53 47 57 162h39v-471h-39q-12 98 -27 127q-39 76 -186 76h-297v-449v-75q6 -47 37 -64 q23 -12 76 -12h229q100 0 143 10q131 31 250 256h41l-117 -340h-1044z" />
<glyph unicode="F" horiz-adv-x="1138" d="M33 0v37h49q84 0 121 49q24 30 24 145v9v876q0 102 -14 135q-27 68 -131 68h-49v37h1009l13 -297h-35q-45 164 -146 203q-49 20 -155 20h-299v-532h246q94 0 133 47q33 39 45 139h37v-461h-37q-2 133 -76 172q-33 18 -102 19h-246v-426q0 -80 2 -101q10 -55 52 -78.5 t91 -23.5h49v-37h-581z" />
<glyph unicode="G" horiz-adv-x="1478" d="M158 999q203 387 633 387q131 0 305 -63q57 -23 75 -23q43 0 50 86h36l35 -428h-35q-119 358 -448 359q-248 0 -385 -191q-123 -170 -123 -426q0 -178 66 -329q72 -176 206 -258q123 -76 250 -76q147 0 281 76v391q0 78 -6 102q-14 61 -66 82q-33 14 -106 14v37h524v-37 h-25q-78 0 -106 -53q-20 -35 -21 -145v-416q-223 -119 -477 -119q-393 0 -596 252q-153 187 -153 433q0 181 86 345z" />
<glyph unicode="H" horiz-adv-x="1478" d="M35 0v37h49q84 0 121 49q24 30 24 145v9v874q0 82 -4 100q-10 57 -52 81t-89 24h-49v37h581v-37h-49q-125 0 -141 -102q-4 -25 -4 -103v-387h629v387q0 104 -13 137q-27 68 -133 68h-49v37h582v-37h-49q-123 0 -142 -102q-4 -23 -4 -103v-874q0 -80 4 -99q8 -57 50 -80.5 t92 -23.5h49v-37h-582v37h49q82 0 121 49q25 33 25 154v413h-629v-413q0 -102 12 -136q27 -67 130 -67h3h49v-37h-581z" />
<glyph unicode="I" horiz-adv-x="681" d="M51 0v37h47q84 0 123 49q25 31 25 154v876q0 80 -4 101q-10 55 -52.5 78.5t-91.5 23.5h-47v37h582v-37h-49q-84 0 -121 -49q-27 -33 -27 -154v-876q0 -102 15 -136q27 -67 130 -67h3h49v-37h-582z" />
<glyph unicode="J" horiz-adv-x="796" d="M43 123q0 104 100 104q47 0 80 -47q14 -20 43 -86q23 -53 60 -53q74 0 73 149v926q0 102 -14 135q-27 68 -131 68h-49v37h579v-37h-49q-82 0 -121 -49q-22 -30 -22 -144v-10v-663q0 -285 -150 -412q-82 -72 -198 -72q-78 0 -135 37q-66 43 -66 117z" />
<glyph unicode="K" horiz-adv-x="1478" d="M35 0v37h47q84 0 123 49q22 30 22 144v10v876q0 82 -2 101q-10 55 -52 78.5t-91 23.5h-47v37h577v-37h-47q-123 0 -141 -102q-4 -25 -4 -101v-416q43 41 137 127q299 274 358 365q27 39 27 70q0 57 -90 57h-33v37h500v-37q-84 -2 -168 -53q-59 -37 -129 -103 q-47 -49 -203 -205l-207 -206l500 -496q207 -207 383 -219v-37h-643v37q109 0 109 63q0 43 -72 113l-469 465v-438q0 -102 12 -136q29 -67 130 -67h3h47v-37h-577z" />
<glyph unicode="L" horiz-adv-x="1251" d="M41 0v37h51q86 0 123 55q20 33 21 150v874q0 127 -27 160q-39 43 -117 43h-51v37h614v-37h-9q-166 0 -202 -74q-16 -31 -16 -151v-852q0 -82 12 -109q20 -41 92 -47h203q127 0 183 12q158 37 256 277l32 -6l-114 -369h-1051z" />
<glyph unicode="M" horiz-adv-x="1820" d="M35 0v37h47q86 0 123 51q20 33 20 148v884q0 90 -18 131q-35 68 -172 68v37h383l491 -1061l486 1061h383v-37h-47q-86 0 -123 -51q-23 -33 -23 -148v-884q0 -125 29 -156q37 -43 117 -43h47v-37h-576v37h47q88 0 123 51q23 33 23 148v905l-525 -1141h-32l-525 1141v-905 q0 -125 29 -156q35 -43 117 -43h47v-37h-471z" />
<glyph unicode="N" horiz-adv-x="1478" d="M-27 1319v37h369l827 -1016v780q0 125 -26 158q-39 41 -119 41h-45v37h471v-37h-47q-86 0 -123 -51q-23 -33 -23 -148v-1143h-34l-895 1092v-833q0 -127 26 -156q39 -43 117 -43h49v-37h-473v37h47q88 0 123 51q23 33 23 148v942q-51 61 -78 82q-39 31 -101 51 q-29 8 -88 8z" />
<glyph unicode="O" horiz-adv-x="1478" d="M72 682q0 324 221 528q190 176 457 176q283 0 471 -210q180 -203 180 -490q0 -297 -184 -504q-190 -213 -484 -213q-299 0 -483 211q-178 201 -178 502zM301 686q0 -332 141 -510q109 -135 289 -135q238 0 350 201q90 159 90 417q0 270 -84 437q-113 219 -358 219 q-229 0 -340 -211q-88 -164 -88 -418z" />
<glyph unicode="P" horiz-adv-x="1138" d="M35 0v37h51q86 0 123 55q18 31 18 148v876q0 129 -26 160q-39 43 -115 43h-51v37h495q160 0 254 -27q129 -37 211 -137q72 -88 72 -211q0 -182 -121 -281q-113 -94 -299 -94q-96 0 -227 29v-395q0 -127 29 -158q39 -45 114 -45h51v-37h-579zM420 692q106 -20 164 -20 q115 0 188 88q68 84 68 201q0 199 -140 276q-63 39 -149 39q-51 0 -131 -21v-563z" />
<glyph unicode="Q" horiz-adv-x="1478" d="M72 682q0 297 189.5 500.5t483.5 203.5q287 0 476 -212q180 -205 180 -496q0 -246 -134 -434.5t-366 -257.5q193 -330 492 -355v-32q-303 12 -592 194q-141 90 -244 193q-145 57 -227 123q-258 201 -258 573zM301 682q0 -256 88 -428q115 -217 344 -217q236 0 348 201 q90 159 90 413q0 455 -225 598q-92 61 -213 62q-236 0 -346 -209q-86 -164 -86 -420z" />
<glyph unicode="R" horiz-adv-x="1366" d="M35 0v37h51q86 0 123 55q20 33 20 148v876q0 127 -26 160q-41 43 -117 43h-51v37h493q182 0 267 -19q133 -27 213 -110q86 -90 86 -219q0 -274 -334 -349l278 -389q86 -117 146 -161q78 -59 200 -72v-37h-362l-459 635q-51 -2 -84 -2q-27 0 -57 2v-395q0 -127 27 -158 q39 -45 114 -45h53v-37h-581zM422 696h27h17h11q164 0 266 66q125 77 125 231q0 131 -79.5 209t-210.5 78q-57 0 -156 -18v-566z" />
<glyph unicode="S" horiz-adv-x="1138" d="M129 1030q0 160 121 260q113 96 274 96q109 0 230 -53q55 -24 78 -24h2q51 0 67 77h37v-468h-37q-33 254 -196 342q-86 47 -179 47q-94 0 -164 -56q-75 -58 -75 -149q0 -63 43 -117q63 -74 295 -199q162 -88 206 -116q197 -136 197 -324q0 -170 -129 -278 q-123 -98 -297 -99q-57 0 -110 8q-29 6 -132 39q-86 29 -120 29q-51 0 -62 -76h-37v465h37q23 -129 60 -196q47 -90 145 -144q90 -47 199 -47t184 55q86 61 86 166q0 111 -115 197q-70 53 -228.5 139t-229.5 144q-150 119 -150 282z" />
<glyph unicode="T" horiz-adv-x="1251" d="M61 1038l17 318h1108l14 -318h-39q-10 84 -28 119q-61 115 -220 115h-190v-1036q0 -127 27 -156q37 -43 116 -43h47v-37h-573v37h47q86 0 123 51q20 33 20 148v1036h-161q-96 0 -136 -15q-121 -43 -133 -219h-39z" />
<glyph unicode="U" horiz-adv-x="1478" d="M10 1319v37h588v-37h-53q-84 0 -119 -53q-27 -37 -27 -150v-592q0 -240 68 -340q88 -131 285 -131q121 0 223 51q117 55 160 156q36 88 36 296v11v549q0 127 -26 160q-39 43 -117 43h-51v37h479v-37h-49q-80 0 -125 -68q-20 -31 -20 -143v-551q0 -188 -29 -285 q-96 -305 -494 -305q-395 0 -499 285q-31 88 -31 334v530q0 104 -23 146q-33 57 -125 57h-51z" />
<glyph unicode="V" horiz-adv-x="1478" d="M18 1319v37h553v-37q-149 -14 -149 -89q0 -52 47 -159l344 -795l320 787q47 115 47 160q0 72 -127 94l-17 2v37h418v-37q-74 -12 -108 -45q-53 -47 -95 -152l-473 -1153h-37l-508 1170q-41 90 -55 108q-51 63 -160 72z" />
<glyph unicode="W" horiz-adv-x="1933" d="M27 1319v37h501v-37h-22q-111 0 -111 -82q0 -35 45 -162l267 -760l225 648l-72 204q-41 119 -129 146q-18 6 -59 6v37h526v-37h-35q-108 0 -108 -86q0 -53 45 -180l260 -738l258 748q45 127 45 172q0 84 -152 84v37h406v-37q-96 0 -150 -90q-12 -23 -61 -166l-379 -1094 h-41l-307 867l-307 -867h-37l-404 1127q-45 127 -57 147q-39 76 -147 76z" />
<glyph unicode="X" horiz-adv-x="1478" d="M14 0v37q51 6 88 20q127 53 246 205l322 406l-269 391q-88 129 -147 178q-92 78 -211 82v37h627v-37q-139 -4 -140 -78q0 -35 48 -106l208 -312l240 305q61 76 61 115q0 49 -49 68q-23 8 -96 8v37h481v-37q-57 -2 -92 -19q-98 -41 -225 -204l-270 -344l290 -435 q98 -147 134 -184q88 -90 194 -96v-37h-582v37q45 2 68 6q35 8 53 35q14 16 15 37q0 23 -11 45q-4 12 -55 88l-229 348l-285 -365q-61 -80 -61 -116q0 -72 129 -78v-37h-482z" />
<glyph unicode="Y" horiz-adv-x="1478" d="M18 1319v37h580v-37h-29q-47 0 -84 -21q-43 -23 -43 -67q0 -35 62 -129l282 -438l267 417q59 94 59 142q0 59 -55 84q-27 12 -80 12v37h473v-37h-27q-82 0 -168 -88q-35 -39 -100 -141l-328 -515v-339q0 -125 29 -156q39 -43 121 -43h43v-37h-576v37h48q86 0 122 51 q23 33 23 148v319l-373 569q-63 94 -78 111q-35 37 -108 74q-20 10 -60 10z" />
<glyph unicode="Z" horiz-adv-x="1251" d="M27 0v37l870 1239h-434q-178 0 -232 -92q-25 -45 -47 -166h-37l27 338h1004l-891 -1274h557q141 0 213 74q57 57 104 209l33 -7l-64 -358h-1103z" />
<glyph unicode="[" horiz-adv-x="839" d="M152 -211v1450h526v-211h-232v-1028h232v-211h-526z" />
<glyph unicode="\" horiz-adv-x="565" d="M0 1194h160l381 -1194h-146z" />
<glyph unicode="]" horiz-adv-x="839" d="M160 0h233v1028h-233v211h528v-1450h-528v211z" />
<glyph unicode="^" horiz-adv-x="788" d="M27 436l317 701h107l317 -701h-119l-252 568l-252 -568h-118z" />
<glyph unicode="_" horiz-adv-x="1032" d="M0 -145h1032v-113h-1032v113z" />
<glyph unicode="`" horiz-adv-x="681" d="M119 1391h223l104 -347h-34z" />
<glyph unicode="a" horiz-adv-x="909" d="M74 217q0 141 172 244q102 61 338 145v37q0 111 -29 166q-41 74 -141 74q-53 0 -95 -31q-47 -31 -45 -82l2 -57v-8q0 -88 -83 -89q-84 0 -84 97q0 113 116 178q94 51 217 51q229 0 287 -137q18 -43 19 -176v-312q0 -180 22 -198q12 -10 27 -10q16 0 26 6q20 12 82 73v-57 q-112 -149 -214 -149h-1q-104 0 -106 149q-141 -109 -178 -125q-51 -24 -110 -24h-5q-100 0 -158.5 66.5t-58.5 168.5zM242 264q0 -66 38.5 -117t102.5 -51q76 1 201 101v350q-147 -59 -197 -86q-145 -82 -145 -197z" />
<glyph unicode="b" d="M-4 1311l274 110h45v-663q133 184 287 184q168 0 266 -145q84 -127 84 -303q0 -244 -161 -394q-139 -129 -310 -129q-160 0 -331 117v948q0 217 -31 242q-16 12 -39 12q-29 0 -72 -14zM315 145q102 -100 217 -100q125 0 193 141q55 111 55 250t-57 242q-72 123 -201 123 q-96 0 -207 -107v-549z" />
<glyph unicode="c" horiz-adv-x="909" d="M70 457q0 201 119.5 343t318.5 142q106 0 199 -55q108 -62 108 -162q0 -86 -92 -86q-59 0 -88 37q-12 14 -25 82q-10 61 -41.5 90t-95.5 29q-121 0 -186 -111q-55 -92 -56 -223q0 -156 70 -275q84 -139 229 -139q96 0 177 66q55 47 106 167l29 -14q-33 -158 -125 -260 q-106 -117 -258 -117q-184 0 -293 156q-96 137 -96 330z" />
<glyph unicode="d" d="M68 420q0 203 118 356q129 168 326 168q121 0 199 -78v170q0 217 -31 242q-16 12 -39 12q-27 0 -70 -14l-14 35l274 110h46v-1059q0 -219 30 -245q16 -14 39 -15q27 0 72 19l10 -35l-270 -115h-47v131q-125 -131 -269 -131q-172 0 -278 144q-96 129 -96 305zM252 500 q0 -156 63 -273q78 -145 220 -145q92 0 176 90v473q0 92 -60.5 165t-150.5 73q-127 0 -195 -138q-53 -106 -53 -245z" />
<glyph unicode="e" horiz-adv-x="909" d="M76 446q0 211 104 347q114 151 317 151h3q162 0 257 -105.5t95 -267.5h-635q0 -172 80 -295q92 -141 256 -141q184 0 266 219l33 -20q-25 -147 -123 -252q-109 -111 -254 -111q-188 0 -299 148q-100 133 -100 327zM217 629h424q-4 88 -20 125q-53 118 -177 118h-2 q-96 0 -157 -75q-57 -68 -68 -168z" />
<glyph unicode="f" horiz-adv-x="681" d="M80 844v71h176v62q0 270 180 385q90 57 203 57q104 0 192 -67q60 -46 60 -101q0 -31 -26.5 -57.5t-55.5 -26.5q-45 0 -113.5 90.5t-136.5 90.5q-96 0 -123 -101q-14 -51 -14 -266v-66h235v-71h-235v-602q0 -129 29 -162q37 -43 98 -43h84v-37h-547v37h41q90 0 119 74 q10 33 10 131v602h-176z" />
<glyph unicode="g" d="M61 -252q0 51 80 152q8 10 103 108q-94 57 -94 111q0 82 159 215q-174 86 -174 276q0 147 111 244q104 88 254 88q131 0 227 -63h195q41 0 49 -2q16 -8 16 -41q0 -37 -11 -42.5t-54 -5.5h-119q55 -72 55 -184q0 -145 -110 -231q-100 -78 -250 -78q-70 0 -140 20 q-75 -65 -75 -113q0 -46 82 -59q29 -4 139 -6q207 -6 266 -14q90 -12 147.5 -65.5t57.5 -141.5q0 -113 -107 -213q-156 -145 -405 -145q-195 0 -328 88q-74 49 -74 102zM205 -176q0 -47 57 -84q100 -61 289 -62q123 0 219 39q131 54 131 160q0 70 -102 90q-33 6 -154 10 q-223 6 -346 23q-94 -102 -94 -176zM309 655q0 -119 41 -202q53 -109 160 -109q172 0 172 236q0 119 -41 204q-53 111 -158 111q-92 0 -137 -78q-37 -63 -37 -162z" />
<glyph unicode="h" d="M12 1311l275 110h47v-669q82 92 135 129q84 61 170 61q164 0 217 -176q18 -66 18 -236v-323q0 -86 15 -119q23 -51 123 -51v-37h-451v37h21q104 0 125 76q2 12 2 94v323q0 115 -4 144q-20 147 -144 147q-104 0 -227 -131v-483q0 -72 2 -88q14 -82 145 -82v-37h-454v37 q88 0 116 39q25 33 25 131v829q0 217 -31 242q-16 12 -43 12q-20 0 -67 -14z" />
<glyph unicode="i" horiz-adv-x="569" d="M59 831l277 111h45v-735q0 -129 49 -158q25 -12 88 -12v-37h-444v37q102 0 127 55q12 29 12 115v352q0 152 -8 195q-12 57 -64 57q-27 0 -67 -16zM195 1321q0 43 29.5 71.5t72.5 28.5t71.5 -28.5t28.5 -71.5t-28.5 -72.5t-71.5 -29.5t-72.5 29.5t-29.5 72.5z" />
<glyph unicode="j" horiz-adv-x="569" d="M-158 -342q0 35 24.5 60.5t57.5 25.5q25 0 53 -12q16 -8 72 -56q44 -38 74 -38h2q61 0 82 79q10 43 10 189v651q0 152 -8 195q-12 59 -64 59q-29 0 -67 -16l-15 36l277 111h43v-922q0 -199 -78 -319q-94 -143 -282 -143q-61 0 -113 20q-68 29 -68 80zM195 1321 q0 43 28.5 72.5t73.5 29.5q43 0 72.5 -29.5t29.5 -72.5q0 -45 -29.5 -73.5t-72.5 -28.5t-72.5 29.5t-29.5 72.5z" />
<glyph unicode="k" d="M16 0v37q113 0 138 49q16 33 16 115v833q0 219 -31 246q-16 12 -43 12q-20 0 -61 -16l-19 35l273 110h47v-911l231 213q74 68 86 86q8 12 9 25q0 47 -70 51v30h397v-30q-145 -4 -256 -109l-235 -217l235 -297q94 -119 131 -156q49 -47 84 -61q27 -8 88 -8v-37h-444v37 q63 2 63 41q0 23 -39 74l-280 358v-303q0 -133 47 -158q23 -12 100 -12v-37h-467z" />
<glyph unicode="l" horiz-adv-x="569" d="M61 1311l273 110h45v-1214q0 -127 51 -156q27 -14 96 -14v-37h-448v37q98 0 123 55q12 31 12 115v831q0 215 -29 240q-16 12 -41 12t-65 -14z" />
<glyph unicode="m" horiz-adv-x="1593" d="M16 831l277 111h43v-194q98 100 119 114q94 80 198 80q188 0 232 -194q82 94 139 135q84 59 180 59q158 0 219 -160q23 -55 23 -182v-393q0 -88 12 -119q23 -51 125 -51v-37h-450v37h18q104 0 125 74q4 14 4 96v393q0 113 -27 160q-39 63 -125 63q-104 0 -235 -125 l-2 -12l2 -43v-436q0 -72 2 -88q14 -82 145 -82v-37h-462v37q123 0 145 72q4 16 4 98v393q0 225 -156 225q-53 0 -106 -28q-84 -45 -129 -99v-491q0 -129 49 -158q27 -12 100 -12v-37h-452v37q100 0 125 55q12 31 12 115v350q0 152 -8 195q-12 59 -64 59q-27 0 -65 -16z" />
<glyph unicode="n" d="M12 831l277 111h43v-192q159 192 305 192h2q154 0 215 -160q20 -59 20 -184v-391q0 -129 52 -158q25 -12 90 -12v-37h-455v37h21q104 0 125 76q4 16 4 94v375q0 237 -143 237h-1q-119 0 -235 -129v-483q0 -92 10 -115q27 -55 137 -55v-37h-452v37h20q78 0 103 49 q16 35 16 121v340q0 225 -31 250q-14 14 -41 14q-29 0 -67 -16z" />
<glyph unicode="o" d="M70 449q0 127 59 245q63 129 165.5 188.5t217.5 59.5q209 0 334 -158q106 -133 106 -309q0 -127 -57 -248q-61 -129 -163.5 -192.5t-229.5 -63.5q-207 0 -330 166q-102 139 -102 312zM256 532q0 -170 59 -309q80 -180 230 -180q223 0 223 354q0 244 -106 385 q-72 96 -181 97q-125 0 -182 -119q-43 -88 -43 -228z" />
<glyph unicode="p" d="M-6 -401h24q88 0 115 47q18 33 19 135v864q0 127 -33 150q-16 12 -47 12q-25 0 -62 -14l-12 32l283 113h36v-213q129 217 293 217q166 0 262 -147q82 -129 82 -303q0 -238 -137 -394q-111 -127 -280 -127q-129 0 -220 82v-278q0 -76 5 -90q16 -86 151 -86v-37h-479v37z M317 324q0 -111 11 -146q16 -68 74.5 -106.5t129.5 -38.5q129 0 193 125q51 96 51 239q0 211 -92 324q-63 78 -152 78q-47 0 -96 -25q-35 -18 -119 -108v-342z" />
<glyph unicode="q" d="M68 418q0 215 125 366q133 158 346 158q115 0 190 -63q59 29 113 63h32v-1178q0 -63 5 -83q10 -47 47 -68q25 -14 98 -14v-37h-463v37h21q94 0 116 55q12 29 13 110v396q-158 -188 -301 -189q-162 0 -258 148q-84 129 -84 299zM236 489q0 -150 61 -253q76 -123 217 -123 h2q110 0 195 108v430q0 102 -52.5 161.5t-150.5 59.5q-143 0 -215 -127q-57 -102 -57 -256z" />
<glyph unicode="r" horiz-adv-x="681" d="M12 831l279 111h41v-205q115 205 235 205q51 0 89 -31t38 -80q0 -39 -24.5 -65.5t-63.5 -26.5q-29 0 -78 35t-63 35q-55 0 -133 -156v-440q0 -94 33.5 -135t126.5 -41v-37h-469v37q119 0 139 72q6 18 6 98v354v123v-2q-6 129 -76 129q-31 0 -69 -16z" />
<glyph unicode="s" horiz-adv-x="796" d="M100 678q0 119 80 191.5t199 72.5q53 0 131 -22q49 -14 68 -15q27 0 45 37h32v-311h-32q-31 121 -78 178q-61 76 -170 76q-59 0 -105 -31q-53 -35 -53 -88q0 -106 160 -184l145 -70q203 -100 203 -262q0 -123 -91 -201t-214 -78q-88 0 -193 31q-35 10 -55 10 q-23 0 -35 -26h-33v327h33q25 -121 92 -196q76 -86 193 -86q61 0 108.5 37.5t47.5 101.5q0 82 -86 145q-41 33 -164 93q-106 51 -158 100q-70 68 -70 170z" />
<glyph unicode="t" horiz-adv-x="569" d="M20 846v33q123 49 216 198q20 35 63 140h31v-302h215v-69h-215v-594q0 -152 92 -152q78 0 110 82h39q-70 -196 -227 -196h-2q-113 0 -156 98q-20 47 -20 145v617h-146z" />
<glyph unicode="u" d="M2 879v36h322v-612q0 -209 151 -209q98 0 227 131v518q0 82 -34 111q-29 23 -113 25v36h311v-555q0 -217 33 -243q16 -14 39 -15q31 0 70 19l14 -35l-274 -115h-46v195q-90 -96 -137 -131q-84 -63 -174 -64q-162 0 -213 160q-20 70 -20 199v407q0 102 -56 129 q-25 13 -90 13h-10z" />
<glyph unicode="v" d="M16 879v36h433v-36h-29q-80 0 -80 -70q0 -33 20 -84l213 -506l215 526q23 55 23 84q0 14 -8 25q-18 25 -96 25v36h299v-36q-53 -4 -72 -21q-35 -29 -64 -100l-325 -787h-41l-328 774q-37 88 -92 117q-16 8 -68 17z" />
<glyph unicode="w" horiz-adv-x="1478" d="M12 879v36h385v-36q-86 -6 -86 -62q0 -29 17 -76l196 -526l197 428l-51 135q-23 59 -64 84q-23 14 -82 17v36h437v-36q-123 -4 -123 -76q0 -23 8 -41l209 -526l192 505q20 53 21 86q0 49 -97 52v36h289v-36q-88 -12 -129 -117l-305 -791h-41l-229 586l-267 -586h-36 l-295 770q-25 66 -53.5 94.5t-92.5 43.5z" />
<glyph unicode="x" d="M27 879v36h432v-36q-74 0 -74 -52q0 -14 68 -122l63 -105l76 105q72 100 72 124q0 49 -72 50v36h309v-36q-49 -2 -84 -27q-47 -33 -135 -147l-125 -168l229 -328q66 -94 86 -117q53 -51 127 -55v-37h-432v37q88 0 88 55q0 23 -63 117l-133 197l-148 -197 q-68 -90 -67 -109q0 -59 90 -63v-37h-299v37q37 4 61 24q39 29 129 148l193 256l-174 252q-61 86 -88 112q-55 49 -129 50z" />
<glyph unicode="y" d="M12 879v36h426v-36h-20q-90 0 -90 -68q0 -39 32 -109l224 -460l204 506q18 41 19 79q0 33 -33 45q-16 6 -59 7v36h297v-36q-63 -6 -101 -62q-6 -8 -34 -76l-373 -913q-43 -109 -119 -182q-90 -88 -190 -88q-53 0 -94.5 30.5t-41.5 81.5q0 92 103 92q33 0 90 -20 q39 -16 49 -16q76 0 137 151l66 160l-330 690q-43 90 -88 125q-23 14 -74 27z" />
<glyph unicode="z" horiz-adv-x="909" d="M41 0v37l608 809h-301q-76 0 -98 -4q-98 -23 -109 -180h-39l7 253h768v-36l-615 -811h334q84 0 117 8q59 16 86 69q16 31 26 136h35l-10 -281h-809z" />
<glyph unicode="{" horiz-adv-x="681" d="M2 432v184q80 0 117 11q82 23 82 94v389q0 115 102 186q84 59 170 60h205v-185h-51q-78 0 -101 -28q-10 -12 -18 -64v-379q0 -82 -72 -131q-63 -41 -149 -41q100 -14 137 -34q84 -47 84 -158v-379q0 -55 28.5 -73.5t90.5 -18.5h51v-184h-205q-86 0 -168 57 q-104 74 -104 188v387q0 80 -80 107q-37 12 -119 12z" />
<glyph unicode="|" horiz-adv-x="266" d="M109 -256v1608h69v-1608h-69z" />
<glyph unicode="}" horiz-adv-x="681" d="M4 -156h51q80 0 105 29q14 16 14 64v378q0 82 72 131q63 41 149 41q-100 14 -137 35q-84 47 -84 158v379q0 55 -28.5 73.5t-90.5 18.5h-51v184h205q86 0 168 -57q104 -74 104 -188v-388q0 -80 80 -106q37 -12 119 -12v-185q-80 0 -117 -10q-82 -23 -82 -94v-389 q0 -115 -102 -187q-84 -59 -170 -59h-205v184z" />
<glyph unicode="~" horiz-adv-x="1112" d="M20 471q123 217 310 217q66 0 121 -22q39 -18 114 -54q168 -59 209 -59q117 0 209 156l98 -64q-135 -238 -311 -237q-100 0 -238 75q-127 70 -202 70q-68 0 -127 -51q-43 -37 -107 -131z" />
<glyph unicode="&#xa2;" d="M129 453q0 252 158 389q121 104 272 104q20 0 62 -4l139 383h71l-145 -401q186 -82 186 -201q0 -86 -94 -86q-53 0 -86 39q-14 18 -24 69q-12 63 -19 76l-227 -631q88 -61 164 -61q129 0 200 86q31 37 84 147l29 -14q-39 -160 -127 -258q-104 -115 -256 -115 q-82 0 -162 35l-141 -389h-72l156 426q-168 158 -168 406zM289 535q0 -137 82 -285l223 614q-29 12 -62 13q-100 0 -161 -74q-82 -100 -82 -268z" />
<glyph unicode="&#xa3;" horiz-adv-x="1228" d="M264 477v53h144q-45 135 -46 199q0 125 81 211t206 86q94 0 164 -51q76 -57 76 -148q0 -41 -25.5 -73.5t-66.5 -32.5q-84 0 -84 82q0 39 28.5 66.5t28.5 35.5q0 27 -34 44.5t-64 17.5q-72 0 -120 -47.5t-48 -118.5q0 -25 37 -133q18 -55 47 -136h192v-57h-172 q6 -47 6 -94q0 -131 -45 -248q68 -25 146 -24q172 0 192 155h47q-4 -100 -61 -188q-63 -98 -156 -107q-129 -12 -202 92q-57 -94 -154 -94q-115 0 -115 105q0 47 45 75q37 23 88 23q37 0 101 -18q6 25 6 61q0 61 -76 264h-166zM324 63q0 -47 51 -47q77 0 102 80 q-45 20 -80 21q-74 0 -73 -54z" />
<glyph unicode="&#xa5;" d="M2 352v74h424v143l-14 35h-410v74h377l-213 496q-31 72 -60 102q-39 41 -104 43v37h442v-37q-121 -8 -120 -64q0 -14 18 -59l213 -518l213 504q20 49 20 75q0 51 -83 58q-8 0 -27 4v37h346v-37q-59 0 -88 -25q-43 -35 -86 -131l-213 -485h387v-74h-420l-6 -14v-164h426 v-74h-426v-108v-99q8 -59 44 -81.5t85 -22.5h41v-41h-514v41h31q119 0 137 84q4 16 4 119v108h-424z" />
<glyph unicode="&#xa8;" horiz-adv-x="681" d="M57 1229q0 45 31 76.5t78 31.5q45 0 76.5 -31.5t31.5 -76.5q0 -47 -31.5 -78t-76.5 -31t-77 32t-32 77zM410 1229q0 45 31.5 76.5t76.5 31.5t77 -31.5t32 -76.5q0 -47 -32 -78t-77 -31t-76.5 32t-31.5 77z" />
<glyph unicode="&#xa9;" horiz-adv-x="1556" d="M70 678q0 190 97 359t264 259t347 90q188 0 356.5 -94t258.5 -258q96 -170 96 -356q0 -190 -96.5 -356t-264 -259.5t-350.5 -93.5q-190 0 -356 95.5t-259 262.5t-93 351zM131 678q0 -174 87 -325.5t239.5 -236.5t320.5 -85q174 0 326.5 87t236.5 238.5t84 321.5 q0 174 -88 327.5t-241.5 236.5t-317.5 83q-172 0 -324.5 -87t-236.5 -234q-86 -156 -86 -326zM319 672q0 207 148 338q143 125 350 125q72 0 187 -37q25 -8 36 -8q31 0 50 45h38l21 -281h-39q-72 236 -303 236q-162 0 -246 -119q-76 -102 -76 -271q0 -182 74 -286 q84 -125 258 -125q195 0 311 162l37 -21q-139 -203 -383 -203q-195 0 -329 125t-134 320z" />
<glyph unicode="&#xab;" d="M63 465l388 469h57l-244 -469l244 -473h-57zM508 465l393 469h60l-244 -469l244 -473h-60z" />
<glyph unicode="&#xad;" horiz-adv-x="657" d="M90 397v246h471v-246h-471z" />
<glyph unicode="&#xae;" horiz-adv-x="1556" d="M70 678q0 190 97 359t264 259t347 90q188 0 356.5 -94t258.5 -258q96 -170 96 -356q0 -190 -96.5 -356t-264 -259.5t-350.5 -93.5q-190 0 -356 95.5t-259 262.5t-93 351zM131 678q0 -174 87 -325.5t239.5 -236.5t320.5 -85q174 0 326.5 87t236.5 238.5t84 321.5 q0 174 -88 327.5t-241.5 236.5t-317.5 83q-172 0 -324.5 -87t-236.5 -234q-86 -156 -86 -326zM375 250v33q78 0 96 45q6 16 6 92v522q0 78 -2 88q-12 47 -90 47v37h387q121 0 201 -51q96 -59 96 -172q0 -166 -221 -223l209 -297q37 -53 67 -74q18 -12 54 -14v-33h-185 l-295 403h-75v-309q12 -61 118 -61v-33h-366zM623 696q284 1 284 183q0 84 -57 137t-143 53q-37 0 -84 -14v-359z" />
<glyph unicode="&#xb4;" horiz-adv-x="681" d="M236 1044l106 347h223l-295 -347h-34z" />
<glyph unicode="&#xb8;" horiz-adv-x="681" d="M186 -340q29 -4 50 -4q47 0 83.5 31.5t36.5 79.5q0 31 -23.5 52t-56.5 21q-10 0 -26 -2l110 178h62l-51 -79q125 -31 125 -146q0 -84 -64.5 -132t-150.5 -48q-37 0 -95 6v43z" />
<glyph unicode="&#xbb;" d="M63 -8l244 471l-244 471h60l393 -471l-393 -471h-60zM516 -8l244 471l-244 471h57l388 -471l-388 -471h-57z" />
<glyph unicode="&#x5b0;" horiz-adv-x="165" d="M0 -240q0 76 84 76q82 0 82 -76q0 -78 -82 -77q-84 0 -84 77zM0 -496q0 76 84 76q82 0 82 -76q0 -78 -82 -77q-84 0 -84 77z" />
<glyph unicode="&#x5b1;" horiz-adv-x="507" d="M0 -227q0 63 70 63q69 0 69 -63t-69 -64q-70 0 -70 64zM92 -426q0 63 70 64q69 -1 69 -64q0 -66 -69 -66q-70 0 -70 66zM184 -227q0 63 72 63q68 0 68 -63t-68 -64q-72 0 -72 64zM369 -227q0 63 69 63q70 0 70 -63t-70 -64q-70 0 -69 64zM369 -426q0 63 69 64 q70 -1 70 -64t-70 -63t-69 63z" />
<glyph unicode="&#x5b2;" horiz-adv-x="499" d="M0 -174h303v-80h-303v80zM360 -227q0 63 70 63t70 -63t-70 -64q-70 0 -70 64zM360 -426q0 63 70 64q70 -1 70 -64t-70 -63t-70 63z" />
<glyph unicode="&#x5b3;" horiz-adv-x="499" d="M0 -174h303v-80h-115q10 -119 11 -219h-95q0 72 13 219h-117v80zM360 -227q0 63 70 63t70 -63t-70 -64q-70 0 -70 64zM360 -426q0 63 70 64q70 -1 70 -64t-70 -63t-70 63z" />
<glyph unicode="&#x5b4;" horiz-adv-x="165" d="M0 -240q0 76 84 76q82 0 82 -76q0 -78 -82 -77q-84 0 -84 77z" />
<glyph unicode="&#x5b5;" horiz-adv-x="503" d="M0 -240q0 76 84 76q82 0 82 -76q0 -78 -82 -77q-84 0 -84 77zM338 -240q0 76 84 76q82 0 82 -76q0 -78 -82 -77q-84 0 -84 77z" />
<glyph unicode="&#x5b6;" horiz-adv-x="503" d="M0 -240q0 76 84 76q82 0 82 -76q0 -78 -82 -77q-84 0 -84 77zM168 -444q0 76 84 75q82 1 82 -75q0 -78 -82 -78q-84 0 -84 78zM338 -240q0 76 84 76q82 0 82 -76q0 -78 -82 -77q-84 0 -84 77z" />
<glyph unicode="&#x5b7;" horiz-adv-x="409" d="M0 -176h410v-109h-410v109z" />
<glyph unicode="&#x5b8;" horiz-adv-x="409" d="M0 -176h410v-109h-156q14 -158 14 -243h-127q0 133 15 243h-156v109z" />
<glyph unicode="&#x5b9;" horiz-adv-x="176" d="M0 1235q0 35 25.5 58.5t62.5 23.5t62.5 -23.5t25.5 -58.5t-25.5 -58.5t-62.5 -23.5t-62.5 23.5t-25.5 58.5z" />
<glyph unicode="&#x5bb;" horiz-adv-x="583" d="M0 -240q0 76 84 76q82 0 82 -76q0 -78 -82 -77q-84 0 -84 77zM209 -367q0 76 84 76q82 0 82 -76q0 -78 -82 -77q-84 0 -84 77zM418 -492q0 74 84 74q82 0 82 -74q0 -80 -82 -79q-35 0 -59.5 22.5t-24.5 56.5z" />
<glyph unicode="&#x5bc;" horiz-adv-x="176" d="M0 526q0 35 25.5 58.5t62.5 23.5t62.5 -23.5t25.5 -58.5t-25.5 -58.5t-62.5 -23.5t-62.5 24t-25.5 58z" />
<glyph unicode="&#x5bd;" horiz-adv-x="92" d="M0 -135h92v-260h-92v260z" />
<glyph unicode="&#x5be;" horiz-adv-x="657" d="M90 782v246h471v-246h-471z" />
<glyph unicode="&#x5bf;" horiz-adv-x="397" d="M0 1221v194h397v-194h-397z" />
<glyph unicode="&#x5c0;" horiz-adv-x="540" d="M221 -168v1442h82v-1442h-82z" />
<glyph unicode="&#x5c1;" horiz-adv-x="1642" d="M1227 1235q0 35 25.5 58.5t62.5 23.5t62.5 -23.5t25.5 -58.5t-25.5 -58.5t-62.5 -23.5t-62.5 23.5t-25.5 58.5z" />
<glyph unicode="&#x5c2;" horiz-adv-x="1642" d="M188 1235q0 35 26 58.5t62 23.5q37 0 63 -23.5t26 -58.5t-26 -58.5t-63 -23.5t-62.5 23.5t-25.5 58.5z" />
<glyph unicode="&#x5c3;" horiz-adv-x="657" d="M94 0v293h389v-293h-389zM94 602v293h389v-293h-389z" />
<glyph unicode="&#x5d0;" horiz-adv-x="1234" d="M27 0l188 778l-184 250h444q80 -141 115 -199q119 -199 137 -198q23 0 49 198q6 47 23 199h364l-159 -727l206 -301h-436l-192 340q-66 115 -93 119q-25 0 -43 -90l-71 -369h-348z" />
<glyph unicode="&#x5d1;" horiz-adv-x="1120" d="M43 0v246h332q111 0 172 80q57 72 57 184q0 111 -57 188q-63 84 -172 84h-326v246h531q174 0 299 -122t125 -294q0 -162 -80 -252q-84 -57 -166 -114q4 -6 22 -6t41 2l45 4h205v-246h-1028z" />
<glyph unicode="&#x5d2;" horiz-adv-x="909" d="M18 0v268q74 -43 138 -43q111 0 176 109q53 90 53 209q0 162 -47 209q-31 31 -127 30h-107v246h312q190 0 274 -89t84 -282v-512q0 -23 12 -86q3 -14 13 -59h-359q-10 12 -28 94l-17 82q-63 -207 -235 -207q-115 0 -142 31z" />
<glyph unicode="&#x5d3;" horiz-adv-x="1103" d="M4 782v246h1045v-246h-187v-782h-393v782h-465z" />
<glyph unicode="&#x5d4;" horiz-adv-x="1288" d="M106 0v573h394v-573h-394zM106 782v246h723q162 0 250 -106q84 -98 84 -265v-657h-393v575q0 119 -31 160q-37 47 -149 47h-484z" />
<glyph unicode="&#x5d5;" horiz-adv-x="694" d="M115 1028h393q12 -31 20 -61q20 -82 21 -170v-797h-393v797q0 119 -27 198q-4 12 -14 33z" />
<glyph unicode="&#x5d6;" horiz-adv-x="811" d="M53 782v246h697v-246q-135 0 -162 -61q-10 -27 -10 -199v-522h-394v489v33q-2 18 -2 25q0 172 140 219q0 16 -58 16h-211z" />
<glyph unicode="&#x5d7;" horiz-adv-x="1382" d="M135 0v1028h768q354 0 354 -307v-721h-393v594q0 115 -28 147q-35 41 -160 41h-148v-782h-393z" />
<glyph unicode="&#x5d8;" horiz-adv-x="1388" d="M123 395v633h393v-594q0 -119 21 -153q35 -57 157 -58q121 0 156 103q20 59 20 225q0 129 -12 168q-27 80 -125 80q-72 0 -88 -17v224q76 53 244 53q225 0 313 -150q68 -114 68 -358q0 -336 -123 -459t-461 -123q-242 0 -387 90q-176 109 -176 336z" />
<glyph unicode="&#x5d9;" horiz-adv-x="647" d="M86 1028h393q12 -33 21 -63q23 -90 22 -185v-344h-393v344q0 113 -20 191q-6 27 -23 57z" />
<glyph unicode="&#x5da;" horiz-adv-x="1034" d="M6 782v246h533q246 0 313 -106q53 -84 53 -383v-932h-393v987q0 115 -27 147q-35 41 -161 41h-318z" />
<glyph unicode="&#x5db;" horiz-adv-x="1105" d="M53 0v246h326q129 0 182 71q47 63 47 197q0 139 -49 199q-53 70 -184 69h-322v246h498q227 0 346 -145q111 -136 111 -369q0 -514 -457 -514h-498z" />
<glyph unicode="&#x5dc;" horiz-adv-x="1079" d="M-66 1479h396q23 -68 22 -201q0 -162 2 -174q20 -76 125 -76h287q219 0 219 -240q0 -63 -16 -124l-176 -664h-410l160 590q14 53 14 84q0 109 -127 108h-291q-94 0 -141 80q-39 66 -39 166v250q0 92 -12 156q-4 20 -13 45z" />
<glyph unicode="&#x5dd;" horiz-adv-x="1406" d="M135 0v1028h756q238 0 319 -96q72 -86 72 -330v-602h-1147zM528 246h361v336q0 125 -29 157q-37 43 -168 43h-164v-536z" />
<glyph unicode="&#x5de;" horiz-adv-x="1417" d="M117 1028h370q18 0 29 -76q2 -20 8 -75q6 -16 13 -17q88 199 360 199q240 0 332 -160q69 -123 69 -389q0 -272 -59 -383q-84 -158 -334 -158q-90 0 -186 43v260q33 -31 90 -30q90 0 90 276q0 125 -25 187q-39 92 -145 92q-178 0 -178 -256v-541h-393v672q0 248 -41 356z " />
<glyph unicode="&#x5df;" horiz-adv-x="694" d="M113 1028h393q12 -33 20 -63q23 -90 23 -185v-1173h-393v1173q0 113 -21 191q-6 27 -22 57z" />
<glyph unicode="&#x5e0;" horiz-adv-x="899" d="M72 0v246h280v348q0 100 -20 137q-29 51 -119 51h-139v246h329q176 0 256 -65q86 -72 86 -242v-721h-673z" />
<glyph unicode="&#x5e1;" horiz-adv-x="1386" d="M74 1028h1192l-2 -604q0 -252 -164 -350q-125 -74 -400 -74h-493zM492 782l61 -536h115q115 0 157.5 38.5t42.5 151.5v346h-376z" />
<glyph unicode="&#x5e2;" horiz-adv-x="1296" d="M41 1028h418l188 -786q61 0 90 22q55 45 56 176v588h393v-608q0 -229 -96.5 -324.5t-325.5 -95.5h-719v246h238z" />
<glyph unicode="&#x5e3;" horiz-adv-x="1378" d="M74 618q0 240 184 351q150 90 406 90q317 0 452 -134t135 -450v-868h-393v872q0 190 -16 246q-39 121 -180 121q-188 0 -189 -244q0 -92 23 -164q8 -27 22 -49h-323q-59 14 -82 51q-39 61 -39 178z" />
<glyph unicode="&#x5e4;" horiz-adv-x="1292" d="M55 657q0 215 195 322q154 84 389 84q569 0 569 -522q0 -250 -159.5 -395.5t-413.5 -145.5h-416l-39 246h289q193 0 266.5 70.5t73.5 258.5q0 238 -191 238q-184 0 -184 -178q0 -74 12 -146q4 -27 15 -59h-344q-29 33 -41 72q-20 68 -21 155z" />
<glyph unicode="&#x5e5;" horiz-adv-x="1202" d="M-10 1028h405l146 -352l47 -156q14 -51 20 -49q33 4 88 82q51 72 64 133q10 20 10 88q0 76 -29 174q-10 37 -28 80h344q16 -45 24 -72q27 -96 27 -188q0 -152 -44 -251t-157 -208q-43 -41 -127 -108v-594h-364v504z" />
<glyph unicode="&#x5e6;" horiz-adv-x="1204" d="M0 1028h440q18 -47 101 -190q16 -29 50 -85.5t44 -56.5q12 0 37 88q20 70 24 82l64 162h393l-295 -541q68 -76 113 -120q119 -121 145 -121v-246h-1059v246h594q-102 82 -178 149.5t-137 145.5q-70 74 -174 221q-135 190 -162 266z" />
<glyph unicode="&#x5e7;" horiz-adv-x="1351" d="M78 782v246h1149v-590q0 -180 -90 -315q-104 -154 -277 -154q-106 0 -201 17q-35 6 -65 16v207q31 -10 74 -10q158 0 157 190v393h-747zM109 -393v958h393v-958h-393z" />
<glyph unicode="&#x5e8;" horiz-adv-x="1013" d="M10 782v246h541q227 0 297 -84q55 -68 55 -276v-668h-393v594q0 123 -25 151q-33 37 -163 37h-312z" />
<glyph unicode="&#x5e9;" horiz-adv-x="1642" d="M94 1028h369l98 -782h346q139 0 176 33q45 41 45 184v565h388v-588q0 -266 -121 -364q-94 -76 -314 -76h-876zM651 379v649h322v-649h-322z" />
<glyph unicode="&#x5ea;" horiz-adv-x="1409" d="M-4 10v238q6 -2 14 -6q41 -18 66 -19q92 0 92 142v663h725q240 0 315.5 -85t75.5 -329v-614h-393v594q0 115 -29 147q-35 41 -160 41h-141v-417q0 -231 -51 -306q-66 -90 -283 -90q-190 0 -231 41z" />
<glyph unicode="&#x5f0;" horiz-adv-x="1300" d="M106 1028h394q12 -31 20 -61q20 -82 21 -170v-797h-394v797q0 119 -26 198q-4 12 -15 33zM741 1028h394q12 -31 20 -61q20 -82 21 -170v-797h-394v797q0 119 -26 198q-4 12 -15 33z" />
<glyph unicode="&#x5f1;" horiz-adv-x="1300" d="M106 1028h394q12 -33 20 -63q23 -90 23 -185v-344h-393v344q0 113 -21 191q-6 27 -23 57zM741 1028h394q12 -31 20 -61q20 -82 21 -170v-797h-394v797q0 119 -26 198q-4 12 -15 33z" />
<glyph unicode="&#x5f2;" horiz-adv-x="1302" d="M106 1028h394q12 -33 20 -63q23 -90 23 -185v-344h-393v344q0 113 -21 191q-6 27 -23 57zM741 1028h394q12 -33 20 -63q23 -90 23 -185v-344h-394v344q0 113 -20 191q-6 27 -23 57z" />
<glyph unicode="&#x5f3;" horiz-adv-x="452" d="M82 559q0 14 22 84l82 260q27 84 95 84q79 1 79 -67q0 -25 -30 -82l-158 -228q-49 -72 -72 -71q-18 0 -18 20z" />
<glyph unicode="&#x5f4;" horiz-adv-x="792" d="M82 559q0 14 22 84l82 260q27 84 95 84q79 1 79 -67q0 -25 -30 -82l-158 -228q-49 -72 -72 -71q-18 0 -18 20zM389 559q0 10 23 84l82 260q27 84 94 84q80 1 80 -67q0 -25 -31 -82l-158 -228q-49 -72 -71 -71q-18 0 -19 20z" />
<glyph unicode="&#x2000;" horiz-adv-x="739" />
<glyph unicode="&#x2001;" horiz-adv-x="1479" />
<glyph unicode="&#x2002;" horiz-adv-x="739" />
<glyph unicode="&#x2003;" horiz-adv-x="1479" />
<glyph unicode="&#x2004;" horiz-adv-x="493" />
<glyph unicode="&#x2005;" horiz-adv-x="369" />
<glyph unicode="&#x2006;" horiz-adv-x="246" />
<glyph unicode="&#x2007;" horiz-adv-x="246" />
<glyph unicode="&#x2008;" horiz-adv-x="184" />
<glyph unicode="&#x2009;" horiz-adv-x="295" />
<glyph unicode="&#x200a;" horiz-adv-x="82" />
<glyph unicode="&#x2010;" horiz-adv-x="657" d="M90 397v246h471v-246h-471z" />
<glyph unicode="&#x2011;" horiz-adv-x="657" d="M90 397v246h471v-246h-471z" />
<glyph unicode="&#x2012;" horiz-adv-x="657" d="M90 397v246h471v-246h-471z" />
<glyph unicode="&#x2013;" horiz-adv-x="657" d="M90 397v246h471v-246h-471z" />
<glyph unicode="&#x2014;" horiz-adv-x="2234" d="M90 397v246h2048v-246h-2048z" />
<glyph unicode="&#x2018;" horiz-adv-x="630" d="M68 1028h370l86 -496h-260z" />
<glyph unicode="&#x2019;" horiz-adv-x="630" d="M109 532l86 496h370l-196 -496h-260z" />
<glyph unicode="&#x201a;" horiz-adv-x="630" d="M109 -307l86 495h370l-196 -495h-260z" />
<glyph unicode="&#x201c;" horiz-adv-x="1081" d="M68 1028h372l86 -496h-262zM516 1028h371l86 -496h-260z" />
<glyph unicode="&#x201d;" horiz-adv-x="1081" d="M109 532l86 496h370l-196 -496h-260zM555 532l86 496h373l-197 -496h-262z" />
<glyph unicode="&#x201e;" horiz-adv-x="1081" d="M96 -307l86 495h371l-197 -495h-260zM543 -307l86 495h372l-196 -495h-262z" />
<glyph unicode="&#x2026;" horiz-adv-x="2048" d="M229 84q0 47 32 79t81 32q47 0 79 -32t32 -79t-33 -80t-78 -33q-47 0 -80 33t-33 80zM913 84q0 47 32 79t79 32t79 -33t32 -78q0 -47 -32 -80t-79 -33t-79 33t-32 80zM1595 84q0 47 32 79t79 32t80 -33t33 -78q0 -47 -33 -80t-80 -33q-45 0 -78 33t-33 80z" />
<glyph unicode="&#x202f;" horiz-adv-x="295" />
<glyph unicode="&#x2039;" horiz-adv-x="681" d="M119 465l387 469h57l-244 -469l244 -473h-57z" />
<glyph unicode="&#x203a;" horiz-adv-x="681" d="M115 -8l243 471l-243 471h57l395 -471l-395 -471h-57z" />
<glyph unicode="&#x205f;" horiz-adv-x="369" />
<glyph unicode="&#x2122;" horiz-adv-x="2007" d="M31 1155l20 201h727l23 -201h-33q-20 141 -195 141h-75v-579q0 -74 16 -99q20 -31 90 -32v-37h-375v37q70 6 85.5 30.5t15.5 100.5v579h-76q-88 0 -131 -28.5t-60 -112.5h-32zM870 549v37q86 0 105 41q8 20 8 90v465q0 109 -37 127q-18 10 -76 10v37h285l275 -572 l264 572h278v-37q-41 0 -59 -6q-51 -14 -51 -129v-467q0 -80 16 -101q20 -27 94 -30v-37h-397v37q45 0 63 6q39 10 50 47q6 20 6 76v491l-308 -657h-30l-309 649v-481q0 -100 36 -121q18 -10 58 -10h35v-37h-306z" />
<glyph unicode="&#x25fc;" horiz-adv-x="911" d="M0 0v911h911v-911h-911z" />
<glyph unicode="&#xfb20;" horiz-adv-x="1296" d="M41 1028h418l188 -786q61 0 90 22q55 45 56 176v588h393v-608q0 -229 -96.5 -324.5t-325.5 -95.5h-719v246h238z" />
<glyph unicode="&#xfb2a;" horiz-adv-x="1642" d="M94 1028h369l98 -782h346q139 0 176 33q45 41 45 184v565h388v-588q0 -266 -121 -364q-94 -76 -314 -76h-876zM651 379v649h322v-649h-322zM1227 1235q0 35 25.5 58.5t62.5 23.5t62.5 -23.5t25.5 -58.5t-25.5 -58.5t-62.5 -23.5t-62.5 23.5t-25.5 58.5z" />
<glyph unicode="&#xfb2b;" horiz-adv-x="1642" d="M94 1028h369l98 -782h346q139 0 176 33q45 41 45 184v565h388v-588q0 -266 -121 -364q-94 -76 -314 -76h-876zM188 1235q0 35 26 58.5t62 23.5q37 0 63 -23.5t26 -58.5t-26 -58.5t-63 -23.5t-62.5 23.5t-25.5 58.5zM651 379v649h322v-649h-322z" />
<glyph unicode="&#xfb2c;" horiz-adv-x="1701" d="M94 1028h369l98 -782h406q139 0 176 33q45 41 45 184v565h385v-588q0 -266 -121 -364q-92 -76 -311 -76h-936zM651 379v649h303v-649h-303zM999 422q0 68 72 67q72 1 72 -67t-72 -68t-72 68zM1284 1235q0 35 25.5 58.5t62.5 23.5t62.5 -23.5t25.5 -58.5t-25.5 -58.5 t-62.5 -23.5t-62.5 23.5t-25.5 58.5z" />
<glyph unicode="&#xfb2d;" horiz-adv-x="1701" d="M94 1028h369l98 -782h406q139 0 176 33q45 41 45 184v565h385v-588q0 -266 -121 -364q-92 -76 -311 -76h-936zM188 1235q0 35 26 58.5t62 23.5q37 0 63 -23.5t26 -58.5t-26 -58.5t-63 -23.5t-62.5 23.5t-25.5 58.5zM651 379v649h303v-649h-303zM999 422q0 68 72 67 q72 1 72 -67t-72 -68t-72 68z" />
<glyph unicode="&#xfb2e;" horiz-adv-x="1234" d="M27 0l188 778l-184 250h444q80 -141 115 -199q119 -199 137 -198q23 0 49 198q6 47 23 199h364l-159 -727l206 -301h-436l-192 340q-66 115 -93 119q-25 0 -43 -90l-71 -369h-348zM414 -176h409v-109h-409v109z" />
<glyph unicode="&#xfb2f;" horiz-adv-x="1234" d="M27 0l188 778l-184 250h444q80 -141 115 -199q119 -199 137 -198q23 0 49 198q6 47 23 199h364l-159 -727l206 -301h-436l-192 340q-66 115 -93 119q-25 0 -43 -90l-71 -369h-348zM414 -176h409v-109h-155q14 -158 14 -243h-127q0 133 14 243h-155v109z" />
<glyph unicode="&#xfb30;" horiz-adv-x="1234" d="M27 0l188 778l-184 250h444q80 -141 115 -199q119 -199 137 -198q23 0 49 198q6 47 23 199h364l-159 -727l206 -301h-436l-192 340q-66 115 -93 119q-25 0 -43 -90l-71 -369h-348zM535 -240q0 76 83 76q82 0 82 -76q0 -78 -82 -77q-84 0 -83 77z" />
<glyph unicode="&#xfb31;" horiz-adv-x="1120" d="M43 0v246h332q111 0 172 80q57 72 57 184q0 111 -57 188q-63 84 -172 84h-326v246h531q174 0 299 -122t125 -294q0 -162 -80 -252q-84 -57 -166 -114q4 -6 22 -6t41 2l45 4h205v-246h-1028zM227 520q0 35 26 58.5t62 23.5q37 0 62.5 -23.5t25.5 -58.5t-25.5 -58.5 t-62.5 -23.5t-62.5 23.5t-25.5 58.5z" />
<glyph unicode="&#xfb32;" horiz-adv-x="909" d="M18 0v268q74 -43 138 -43q111 0 176 109q53 90 53 209q0 162 -47 209q-31 31 -127 30h-107v246h312q190 0 274 -89t84 -282v-512q0 -23 12 -86q3 -14 13 -59h-359q-10 12 -28 94l-17 82q-63 -207 -235 -207q-115 0 -142 31zM74 520q0 35 25.5 58.5t62.5 23.5t62.5 -23.5 t25.5 -58.5t-25.5 -58.5t-62.5 -23.5t-62.5 23.5t-25.5 58.5z" />
<glyph unicode="&#xfb33;" horiz-adv-x="1103" d="M4 782v246h1045v-246h-187v-782h-393v782h-465zM109 520q0 35 25.5 58.5t62.5 23.5t62.5 -23.5t25.5 -58.5t-26 -58.5t-62 -23.5q-37 0 -62.5 23.5t-25.5 58.5z" />
<glyph unicode="&#xfb34;" horiz-adv-x="1288" d="M106 0v573h394v-573h-394zM106 782v246h723q162 0 250 -106q84 -98 84 -265v-657h-393v575q0 119 -31 160q-37 47 -149 47h-484zM547 520q0 35 25.5 58.5t62.5 23.5t62.5 -23.5t25.5 -58.5t-25.5 -58.5t-62.5 -23.5t-62.5 23.5t-25.5 58.5z" />
<glyph unicode="&#xfb35;" horiz-adv-x="761" d="M-27 526q0 35 26 58.5t62 23.5q37 0 63 -23.5t26 -58.5t-26 -58.5t-63 -23.5t-62.5 24t-25.5 58zM182 1028h393q12 -31 21 -61q20 -82 20 -170v-797h-393v797q0 119 -26 198q-4 12 -15 33z" />
<glyph unicode="&#xfb36;" horiz-adv-x="849" d="M-27 526q0 35 26 58.5t62 23.5q37 0 63 -23.5t26 -58.5t-26 -58.5t-63 -23.5t-62.5 24t-25.5 58zM92 782v246h696v-246q-135 0 -161 -61q-10 -27 -11 -199v-522h-393v489v33q-2 18 -2 25q0 172 139 219q0 16 -57 16h-211z" />
<glyph unicode="&#xfb38;" horiz-adv-x="1388" d="M123 395v633h393v-594q0 -119 21 -153q35 -57 157 -58q121 0 156 103q20 59 20 225q0 129 -12 168q-27 80 -125 80q-72 0 -88 -17v224q76 53 244 53q225 0 313 -150q68 -114 68 -358q0 -336 -123 -459t-461 -123q-242 0 -387 90q-176 109 -176 336zM604 537q0 35 25.5 58 t62.5 23t62.5 -23t25.5 -58t-25.5 -58.5t-62.5 -23.5t-62.5 23.5t-25.5 58.5z" />
<glyph unicode="&#xfb39;" horiz-adv-x="743" d="M-27 696q0 35 26 58.5t62 23.5q37 0 63 -23.5t26 -58.5t-26 -58.5t-63 -23.5t-62.5 24t-25.5 58zM178 1028h393q14 -33 23 -63q23 -86 22 -185v-344h-393v344q0 129 -28 209q-6 18 -17 39z" />
<glyph unicode="&#xfb3a;" horiz-adv-x="1034" d="M6 782v246h533q246 0 313 -106q53 -84 53 -383v-932h-393v987q0 115 -27 147q-35 41 -161 41h-318zM154 520q0 35 25.5 58.5t62.5 23.5t62.5 -23.5t25.5 -58.5t-25.5 -58.5t-62.5 -23.5t-62.5 23.5t-25.5 58.5z" />
<glyph unicode="&#xfb3b;" horiz-adv-x="1105" d="M53 0v246h326q129 0 182 71q47 63 47 197q0 139 -49 199q-53 70 -184 69h-322v246h498q227 0 346 -145q111 -136 111 -369q0 -514 -457 -514h-498zM227 520q0 35 26 58.5t62 23.5q37 0 62.5 -23.5t25.5 -58.5t-25.5 -58.5t-62.5 -23.5t-62.5 23.5t-25.5 58.5z" />
<glyph unicode="&#xfb3c;" horiz-adv-x="1079" d="M-66 1479h396q23 -68 22 -201q0 -162 2 -174q20 -76 125 -76h287q219 0 219 -240q0 -63 -16 -124l-176 -664h-410l160 590q14 53 14 84q0 109 -127 108h-291q-94 0 -141 80q-39 66 -39 166v250q0 92 -12 156q-4 20 -13 45zM129 518q0 35 25.5 58.5t62.5 23.5t62.5 -23.5 t25.5 -58.5t-25.5 -58.5t-62.5 -23.5t-62.5 23.5t-25.5 58.5z" />
<glyph unicode="&#xfb3e;" horiz-adv-x="1417" d="M117 1028h370q18 0 29 -76q2 -20 8 -75q6 -16 13 -17q88 199 360 199q240 0 332 -160q69 -123 69 -389q0 -272 -59 -383q-84 -158 -334 -158q-90 0 -186 43v260q33 -31 90 -30q90 0 90 276q0 125 -25 187q-39 92 -145 92q-178 0 -178 -256v-541h-393v672q0 248 -41 356z M643 520q0 35 25.5 58.5t62.5 23.5t62.5 -23.5t25.5 -58.5t-25.5 -58.5t-62.5 -23.5t-62.5 23.5t-25.5 58.5z" />
<glyph unicode="&#xfb40;" horiz-adv-x="899" d="M72 0v246h280v348q0 100 -20 137q-29 51 -119 51h-139v246h329q176 0 256 -65q86 -72 86 -242v-721h-673zM74 520q0 35 25.5 58.5t62.5 23.5t62.5 -23.5t25.5 -58.5t-25.5 -58.5t-62.5 -23.5t-62.5 23.5t-25.5 58.5z" />
<glyph unicode="&#xfb41;" horiz-adv-x="1386" d="M74 1028h1192l-2 -604q0 -252 -164 -350q-125 -74 -400 -74h-493zM492 782l61 -536h115q115 0 157.5 38.5t42.5 151.5v346h-376zM602 520q0 35 25.5 58.5t62.5 23.5t62.5 -23.5t25.5 -58.5t-25.5 -58.5t-62.5 -23.5t-62.5 23.5t-25.5 58.5z" />
<glyph unicode="&#xfb43;" horiz-adv-x="1378" d="M74 618q0 240 184 351q150 90 406 90q317 0 452 -134t135 -450v-868h-393v872q0 190 -16 246q-39 121 -180 121q-188 0 -189 -244q0 -92 23 -164q8 -27 22 -49h-323q-59 14 -82 51q-39 61 -39 178zM590 520q0 35 25.5 58.5t62.5 23.5t62.5 -23.5t25.5 -58.5t-25.5 -58.5 t-62.5 -23.5t-62.5 23.5t-25.5 58.5z" />
<glyph unicode="&#xfb44;" horiz-adv-x="1292" d="M55 657q0 215 195 322q154 84 389 84q569 0 569 -522q0 -250 -159.5 -395.5t-413.5 -145.5h-416l-39 246h289q193 0 266.5 70.5t73.5 258.5q0 238 -191 238q-184 0 -184 -178q0 -74 12 -146q4 -27 15 -59h-344q-29 33 -41 72q-20 68 -21 155zM532 520q0 35 26 58.5 t63 23.5t62.5 -23.5t25.5 -58.5t-26 -58.5t-62 -23.5q-37 0 -63 23.5t-26 58.5z" />
<glyph unicode="&#xfb46;" horiz-adv-x="1204" d="M0 1028h440q18 -47 101 -190q16 -29 50 -85.5t44 -56.5q12 0 37 88q20 70 24 82l64 162h393l-295 -541q68 -76 113 -120q119 -121 145 -121v-246h-1059v246h594q-102 82 -178 149.5t-137 145.5q-70 74 -174 221q-135 190 -162 266zM84 440q0 35 25.5 58.5t62.5 23.5 t62.5 -23.5t25.5 -58.5t-25.5 -58.5t-62.5 -23.5t-62.5 24t-25.5 58z" />
<glyph unicode="&#xfb47;" horiz-adv-x="1351" d="M78 782v246h1149v-590q0 -180 -90 -315q-104 -154 -277 -154q-106 0 -201 17q-35 6 -65 16v207q31 -10 74 -10q158 0 157 190v393h-747zM109 -393v958h393v-958h-393zM573 520q0 35 26 58.5t63 23.5t62.5 -23.5t25.5 -58.5t-26 -58.5t-62 -23.5q-37 0 -63 23.5t-26 58.5z " />
<glyph unicode="&#xfb48;" horiz-adv-x="1013" d="M10 782v246h541q227 0 297 -84q55 -68 55 -276v-668h-393v594q0 123 -25 151q-33 37 -163 37h-312zM184 520q0 35 26 58.5t62 23.5q37 0 62.5 -23.5t25.5 -58.5t-25.5 -58.5t-62.5 -23.5t-62.5 23.5t-25.5 58.5z" />
<glyph unicode="&#xfb49;" horiz-adv-x="1701" d="M94 1028h369l98 -782h406q139 0 176 33q45 41 45 184v565h385v-588q0 -266 -121 -364q-92 -76 -311 -76h-936zM651 379v649h303v-649h-303zM999 422q0 68 72 67q72 1 72 -67t-72 -68t-72 68z" />
<glyph unicode="&#xfb4a;" horiz-adv-x="1409" d="M-4 10v238q6 -2 14 -6q41 -18 66 -19q92 0 92 142v663h725q240 0 315.5 -85t75.5 -329v-614h-393v594q0 115 -29 147q-35 41 -160 41h-141v-417q0 -231 -51 -306q-66 -90 -283 -90q-190 0 -231 41zM637 496q0 35 25.5 58.5t62.5 23.5t62.5 -23.5t25.5 -58.5t-25.5 -58.5 t-62.5 -23.5t-62.5 23.5t-25.5 58.5z" />
<glyph unicode="&#xfb4b;" horiz-adv-x="694" d="M115 1028h393q12 -31 20 -61q20 -82 21 -170v-797h-393v797q0 119 -27 198q-4 12 -14 33zM238 1235q0 35 25.5 58.5t62.5 23.5t62.5 -23.5t25.5 -58.5t-26 -58.5t-62 -23.5q-37 0 -62.5 23.5t-25.5 58.5z" />
<glyph unicode="&#xfb4c;" horiz-adv-x="1120" d="M43 0v246h332q111 0 172 80q57 72 57 184q0 111 -57 188q-63 84 -172 84h-326v246h531q174 0 299 -122t125 -294q0 -162 -80 -252q-84 -57 -166 -114q4 -6 22 -6t41 2l45 4h205v-246h-1028zM326 1151v246h471v-246h-471z" />
<glyph unicode="&#xfb4d;" horiz-adv-x="1105" d="M53 0v246h326q129 0 182 71q47 63 47 197q0 139 -49 199q-53 70 -184 69h-322v246h498q227 0 346 -145q111 -136 111 -369q0 -514 -457 -514h-498zM317 1151v246h471v-246h-471z" />
<glyph unicode="&#xfb4e;" horiz-adv-x="1292" d="M55 657q0 215 195 322q154 84 389 84q569 0 569 -522q0 -250 -159.5 -395.5t-413.5 -145.5h-416l-39 246h289q193 0 266.5 70.5t73.5 258.5q0 238 -191 238q-184 0 -184 -178q0 -74 12 -146q4 -27 15 -59h-344q-29 33 -41 72q-20 68 -21 155zM412 1151v246h471v-246h-471 z" />
<glyph unicode="&#xfb4f;" horiz-adv-x="962" d="M-29 1288q0 111 76 152v-8q0 -25 96 -70q66 -29 66 -74q0 -18 -41 -110.5t-41 -147.5q0 -92 109 -92h28l346 -416q4 35 58 117q16 25 61 90q-10 -2 -22 -2q-141 0 -142 174q0 90 82 115q18 -78 64 -78h73q100 0 101 -139q0 -16 -11 -68h-63l-86 -143q-35 -57 -57 -135 l163 -199q59 -70 60 -127q0 -82 -74 -143l-446 536q-90 -80 -90 -133q0 -31 51 -115l80 -131l-39 -141h-246v68l76 24q-51 184 -51 227q0 125 174 256l-121 146q-115 0 -150 51q-27 39 -26 160q0 154 53 242q-10 14 -68 49q-43 29 -43 65z" />
</font>
</defs>
</svg>
