<?xml version="1.0" standalone="no"?>
<!DOCTYPE svg PUBLIC "-//W3C//DTD SVG 1.1//EN" "http://www.w3.org/Graphics/SVG/1.1/DTD/svg11.dtd" >
<svg xmlns="http://www.w3.org/2000/svg">
<metadata>
This is a custom SVG webfont generated by Font Squirrel.
Copyright   : Copyright c 2012 by Avraham Cornfeld All rights reserved
Designer    : Avraham Cornfeld
Foundry     : Avraham Cornfeld
Foundry URL : httpalefalefalefcoil
</metadata>
<defs>
<font id="almoni-dl-regular" horiz-adv-x="0" >
<font-face units-per-em="2048" ascent="1638" descent="-410" />
<missing-glyph horiz-adv-x="602" />
<glyph unicode=" "  horiz-adv-x="602" />
<glyph unicode="&#x09;" horiz-adv-x="602" />
<glyph unicode="&#xa0;" horiz-adv-x="602" />
<glyph unicode="!" horiz-adv-x="543" d="M155 0h234v227h-234v-227zM164 903v317h220v-317l-48 -494h-121z" />
<glyph unicode="&#x22;" horiz-adv-x="694" d="M113 880l81 506h141v-150l-150 -356h-72zM358 880l81 506h141v-150l-151 -356h-71z" />
<glyph unicode="#" horiz-adv-x="1330" d="M99 271l29 91h272l90 236h-278l28 92h286l96 256h97l-97 -256h259l97 256h96l-96 -256h256l-28 -92h-264l-90 -236h269l-29 -91h-272l-101 -271h-97l101 271h-260l-101 -271h-96l101 271h-268zM497 362h259l89 236h-256z" />
<glyph unicode="$" horiz-adv-x="921" d="M63 317h189q19 -70 62.5 -118.5t101.5 -57.5v443q-61 34 -93 51.5t-78 46.5t-69 52t-47 53.5t-34 63.5t-10 72q0 128 87 213.5t244 90.5v155h92v-157q317 -19 323 -311v-4h-184q-1 71 -40 121.5t-99 63.5v-384q24 -14 69 -37.5t71.5 -38t64 -39t60 -48.5t45.5 -56t35 -72 t14 -88q0 -140 -99 -227.5t-260 -97.5v-155h-92v155q-319 11 -353 310zM252 933q0 -49 41 -92t123 -92v350q-68 -4 -116 -53t-48 -113zM508 141q78 11 133.5 64t55.5 123t-42.5 116t-146.5 102v-405z" />
<glyph unicode="%" horiz-adv-x="1146" d="M71 799v218q0 100 50.5 152t146.5 52q94 0 144.5 -52t50.5 -152v-218q0 -100 -50.5 -154t-144.5 -54t-145.5 54t-51.5 154zM176 787q0 -46 25.5 -80.5t66.5 -34.5q42 0 67 32.5t24 82.5v245q1 47 -24 77.5t-67.5 30.5t-67 -29t-24.5 -79v-245zM177 0l630 1221h105 l-634 -1221h-101zM620 201v218q0 100 50.5 152t145.5 52t145.5 -52t50.5 -152v-218q0 -100 -50.5 -154t-145 -54t-145.5 54t-51 154zM724 189q0 -46 25.5 -80.5t66.5 -34.5q43 0 67.5 32.5t23.5 82.5v245q1 47 -23.5 77.5t-67 30.5t-67.5 -29t-25 -79v-245z" />
<glyph unicode="&#x26;" horiz-adv-x="932" d="M63.5 224q-4.5 69 27 133.5t87 123t135.5 112.5q-39 44 -101 126q-49 68 -53.5 135.5t29 118.5t103 83t161.5 32q90 0 152 -41t82.5 -99.5t7.5 -126t-63 -117.5q-20 -21 -46.5 -41.5t-60.5 -44t-46 -32.5l224 -276q29 80 26 198h132q14 -166 -78 -296l164 -212h-180 l-76 97q-143 -128 -332 -120q-89 6 -146.5 29.5t-99.5 83.5q-44 65 -48.5 134zM215.5 260q0.5 -50 34.5 -97q29 -43 92 -57.5t140 4.5t142 69l-249 322q-41 -32 -73.5 -66.5t-59.5 -79.5t-26.5 -95zM321.5 914.5q-30.5 -69.5 45.5 -179.5q37 -46 45 -57q71 60 96 90 q45 48 51 99.5t-26 84t-88 32.5q-93 0 -123.5 -69.5z" />
<glyph unicode="'" horiz-adv-x="461" d="M101 874l92 511h158v-151l-169 -360h-81z" />
<glyph unicode="(" horiz-adv-x="772" d="M200 612q0 324 46.5 515.5t141.5 275t253 83.5q56 0 89 -7v-59q-72 -4 -121.5 -21t-87 -56.5t-59.5 -94t-35 -149.5t-17.5 -206.5t-4.5 -280.5q0 -168 4.5 -282t17.5 -214t35 -160t59 -104t87.5 -64t121.5 -25v-59q-22 -4 -89 -4q-233 0 -337 214.5t-104 697.5z" />
<glyph unicode=")" horiz-adv-x="757" d="M2 -237q72 5 122.5 25t87 64t58.5 104t35.5 160t18 214t4.5 282q0 169 -4.5 280.5t-18 206.5t-35.5 149.5t-59 94t-86.5 56.5t-122.5 21v59q32 7 90 7q158 0 252.5 -83.5t141 -275t46.5 -515.5q0 -483 -104 -697.5t-336 -214.5q-68 0 -90 4v59z" />
<glyph unicode="*" horiz-adv-x="916" d="M72 1375l56 165l265 -113l-23 288h167l-29 -286l274 111l52 -165l-288 -63l198 -217l-137 -99l-156 244l-152 -244l-135 99l191 221z" />
<glyph unicode="+" horiz-adv-x="1083" d="M83 534v143h395v396h142v-396h395v-143h-395v-394h-142v394h-395z" />
<glyph unicode="," horiz-adv-x="503" d="M128 -324l87 542h151v-160l-161 -382h-77z" />
<glyph unicode="-" horiz-adv-x="923" d="M115 530v161h676v-161h-676z" />
<glyph unicode="." horiz-adv-x="555" d="M160 0v227h233v-227h-233z" />
<glyph unicode="/" horiz-adv-x="631" d="M3 -300l523 1786h103l-521 -1786h-105z" />
<glyph unicode="0" horiz-adv-x="1009" d="M117 400v427q0 195 99 297.5t285.5 102.5t285.5 -102.5t99 -297.5v-427q0 -198 -99.5 -303t-285 -105t-285 105t-99.5 303zM323 375q0 -92 49 -158.5t129 -66.5q85 0 133.5 64t46.5 161v479q2 94 -46.5 153.5t-133.5 59.5q-84 0 -131 -56.5t-47 -156.5v-479z" />
<glyph unicode="1" horiz-adv-x="598" d="M84 0v160h140v760h-134v123q49 -1 89.5 18.5t62.5 47t38 55t21 47.5l5 19h114v-1070h122v-160h-458z" />
<glyph unicode="2" horiz-adv-x="923" d="M85 0q94 148 265.5 408.5t247.5 385.5q32 60 32.5 119t-39.5 103.5t-108 51.5q-57 6 -96.5 -14t-58 -61.5t-24.5 -85t-5 -96.5h-205q-16 201 94 308.5t300 107.5q87 0 158.5 -31t114.5 -87.5t59 -130t-6.5 -165.5t-83.5 -186q-55 -85 -133.5 -201t-129.5 -189l-51 -73 h415v-164h-746z" />
<glyph unicode="3" horiz-adv-x="952" d="M113 353h200q-8 -90 30.5 -151t129.5 -61q72 0 122 49.5t50 153.5q0 108 -67 166.5t-176 64.5v122q241 11 241 198q0 57 -16 98.5t-44 61t-54 27.5t-56 8q-46 0 -78 -17t-48.5 -49t-23.5 -67t-8 -81h-202q-14 161 75 256t282 95q169 0 267.5 -72t98.5 -225 q0 -116 -60.5 -191t-172.5 -101q111 -24 176.5 -108t65.5 -195q0 -172 -103 -258t-272 -86q-108 0 -194.5 42t-134 126.5t-28.5 193.5z" />
<glyph unicode="4" horiz-adv-x="923" d="M18 293l420 927h209l-362 -769h283v218h178v-218h119v-158h-119v-293h-184v293h-544z" />
<glyph unicode="5" horiz-adv-x="1006" d="M144 344h198q0 -77 44 -135t122 -58q88 0 137.5 58t49.5 203q0 150 -48.5 224.5t-138.5 74.5q-58 0 -103.5 -27.5t-65.5 -83.5h-193v620h715v-160h-537v-288q23 28 74.5 50.5t124 28.5t151.5 -21q118 -40 166 -148t48 -281q0 -193 -103 -301t-286 -108q-175 0 -268 95.5 t-87 256.5z" />
<glyph unicode="6" horiz-adv-x="873" d="M70 306q-6 75 9.5 144t68.5 170q29 56 114.5 206t156.5 272l71 122h221l-322 -539q47 12 112 7q125 -15 209 -106.5t84 -249.5q0 -135 -108.5 -237.5t-251.5 -102.5q-146 0 -251.5 89.5t-112.5 224.5zM243 346q0 -84 52 -141.5t135 -57.5q77 0 133 58t56 141 q0 82 -56.5 144.5t-132.5 62.5q-82 0 -134.5 -61.5t-52.5 -145.5z" />
<glyph unicode="7" horiz-adv-x="878" d="M105 1050v170h709l-405 -1220h-219l377 1050h-462z" />
<glyph unicode="8" horiz-adv-x="993" d="M79 367q0 101 56 185t147 133q-146 95 -146 236q0 132 100.5 218t257.5 86q156 0 256 -86.5t100 -217.5q0 -146 -148 -236q93 -48 147.5 -132t54.5 -186q0 -161 -116 -268t-294 -107q-179 0 -297 107t-118 268zM266 373q0 -105 66.5 -171t161.5 -66q94 0 160 66t66 171 q0 102 -67 168t-159 66q-94 0 -161 -66t-67 -168zM315 905q0 -74 49.5 -121t129.5 -47t128 47t48 121q0 73 -48 122t-128 49t-129.5 -49t-49.5 -122z" />
<glyph unicode="9" horiz-adv-x="878" d="M76 888q0 137 107 237t253 100t250 -88t112 -223q4 -76 -11 -145.5t-66 -168.5q-69 -126 -344 -600h-222l326 542q-73 -13 -113 -7q-125 11 -208.5 102.5t-83.5 250.5zM254 874q0 -82 54 -143.5t128 -61.5q76 0 137 64t61 144q0 83 -53.5 137t-144.5 54q-75 0 -128.5 -57 t-53.5 -137z" />
<glyph unicode=":" horiz-adv-x="654" d="M218 711v226h234v-226h-234zM221 0v227h233v-227h-233z" />
<glyph unicode=";" horiz-adv-x="654" d="M169 -324l87 542h151v-160l-161 -382h-77zM218 711v226h234v-226h-234z" />
<glyph unicode="&#x3c;" horiz-adv-x="1100" d="M60 551v125l939 466v-202l-709 -330l709 -327v-198z" />
<glyph unicode="=" horiz-adv-x="1069" d="M140 315v158h803v-158h-803zM140 729v158h803v-158h-803z" />
<glyph unicode="&#x3e;" horiz-adv-x="1125" d="M91 85v198l709 327l-709 330v202l939 -466v-125z" />
<glyph unicode="?" horiz-adv-x="914" d="M104 828q-14 194 78 296t277 102q153 0 247 -86.5t94 -221.5q0 -67 -25.5 -120.5t-63 -91t-75 -73.5t-65 -86t-29.5 -110h-116q-10 60 0.5 111.5t33.5 86t51.5 71.5t55 67.5t44.5 74t18 90.5q0 62 -46.5 108t-116.5 46q-51 0 -86.5 -14t-55.5 -36.5t-30.5 -59.5 t-13.5 -71.5t-2 -82.5h-174zM371 0h234v227h-234v-227z" />
<glyph unicode="@" horiz-adv-x="1667" d="M45 454q0 128 35 246t104.5 218t166.5 174t228.5 116t282.5 42q360 0 550.5 -178t194.5 -499q0 -153 -53.5 -285.5t-143.5 -213.5t-194 -92q-124 -13 -193 43.5t-72 156.5q-70 -84 -200 -81q-75 1 -129.5 25.5t-92 79t-41 141.5t24.5 213q47 190 140 266.5t243 67.5 q79 -5 120 -38t56 -98l25 99h130q-128 -461 -155 -567q-31 -108 4.5 -159t119.5 -41q76 7 138.5 81t95.5 181.5t33 220.5q-1 294 -154.5 429t-446.5 135q-133 0 -256 -50t-216 -138t-148.5 -216.5t-55.5 -278.5q0 -89 12 -164.5t39 -144t70.5 -118.5t105.5 -90.5 t145.5 -58.5t189.5 -23.5t239 15.5l4 -103q-241 -41 -419 -3t-295 143t-174.5 244.5t-57.5 302.5zM627 519q-39 -158 5 -245t148 -83q92 5 135 71.5t94 245.5q37 150 3 221t-136 71q-179 0 -249 -281z" />
<glyph unicode="A" horiz-adv-x="1292" d="M-33 0l579 1470h205l580 -1470h-217l-161 445h-609l-162 -445h-215zM398 596h501l-252 699z" />
<glyph unicode="B" horiz-adv-x="1323" d="M182 0v1470h582q169 0 273.5 -94t104.5 -241t-57.5 -227.5t-196.5 -107.5q162 -25 232.5 -126.5t70.5 -277.5q0 -396 -447 -396h-562zM370 141h381q126 0 196.5 72.5t70.5 217.5q0 144 -74.5 218t-201.5 74h-372v-582zM370 867h338q123 0 191.5 68t68.5 175 q0 106 -61.5 166.5t-187.5 60.5h-349v-470z" />
<glyph unicode="C" horiz-adv-x="1354" d="M146 570q-3 73 -3.5 154.5t3.5 172.5q8 286 149 435t402 149q497 0 557 -431h-194q-54 294 -363 294q-332 0 -358 -402q-4 -78 -4.5 -179.5t4.5 -227.5q9 -199 99.5 -306t258.5 -107q328 0 370 339h193q-34 -251 -175 -362t-388 -111q-265 0 -403 143.5t-148 438.5z" />
<glyph unicode="D" horiz-adv-x="1342" d="M177 0v1470h475q143 0 247.5 -36.5t168.5 -98t102.5 -158t52 -200.5t13.5 -242t-13.5 -242.5t-52 -201.5t-102.5 -158t-168.5 -97t-247.5 -36h-475zM373 151h251q66 0 119.5 9.5t93.5 25.5t72 44t53 56t36 71t23 80t12.5 92t6 99t1.5 107q0 83 -2.5 136.5t-11 121.5 t-25 112t-47 90t-74.5 72t-108.5 42.5t-148.5 16.5h-251v-1175z" />
<glyph unicode="E" horiz-adv-x="1175" d="M177 0v1470h890v-153h-694v-455h600v-151h-600v-558h694v-153h-890z" />
<glyph unicode="F" horiz-adv-x="1107" d="M160 0v1470h883l-2 -153h-686v-455h571v-151h-571v-711h-195z" />
<glyph unicode="G" horiz-adv-x="1352" d="M128 560q-4 116 -4 202.5t4 143.5q11 302 147 447t401 145q495 0 546 -448h-200q-12 156 -99.5 238.5t-244.5 82.5q-172 0 -253.5 -96.5t-96.5 -321.5q-6 -102 -6 -206.5t6 -211.5q12 -199 98.5 -312t251.5 -113q181 0 272 116t91 309v87h-283v146h469v-193 q0 -285 -142.5 -439t-408.5 -154q-263 0 -397.5 144t-150.5 434z" />
<glyph unicode="H" horiz-adv-x="1429" d="M169 0v1470h196v-655h685v655h195v-1470h-195v657h-685v-657h-196z" />
<glyph unicode="I" horiz-adv-x="584" d="M200 0v1470h193v-1470h-193z" />
<glyph unicode="J" horiz-adv-x="680" d="M-43 0v153h222q79 0 108.5 33.5t29.5 143.5v1140h196v-1140q0 -182 -60.5 -256t-189.5 -74h-306z" />
<glyph unicode="K" horiz-adv-x="1215" d="M177 0v1470h196v-1470h-196zM376 775l603 695h188l-584 -667l629 -803h-233z" />
<glyph unicode="L" horiz-adv-x="1013" d="M177 0v1470h196v-1317h640v-153h-836z" />
<glyph unicode="M" horiz-adv-x="1634" d="M177 0v1470h284l359 -951l360 951h283v-1470h-175v1352l-346 -990h-245l-346 990v-1352h-174z" />
<glyph unicode="N" horiz-adv-x="1427" d="M177 0v1470h275l629 -1288v1288h179v-1470h-266l-636 1314v-1314h-181z" />
<glyph unicode="O" horiz-adv-x="1366" d="M132 570q-2 73 -2 154.5t2 172.5q8 285 151 434t405 149q261 0 401.5 -148.5t149.5 -434.5q2 -90 2 -172t-2 -155q-12 -295 -150.5 -436.5t-403 -141.5t-403 141.5t-150.5 436.5zM328 535q7 -199 96.5 -304.5t261 -105.5t261 105.5t96.5 304.5q4 126 4.5 227.5 t-4.5 179.5q-25 402 -357.5 402t-357.5 -402q-4 -78 -4 -179.5t4 -227.5z" />
<glyph unicode="P" horiz-adv-x="1208" d="M177 0v1470h426q249 0 379 -107.5t130 -349.5q0 -99 -27 -175.5t-72.5 -126.5t-111.5 -82t-139 -45.5t-159 -13.5h-223v-570h-203zM380 714h202q36 0 64 2t65.5 9.5t65.5 19.5t58 35.5t49.5 55t31.5 79.5t12 107.5t-12 107.5t-31 79.5t-49 54t-58 34.5t-66 18t-65.5 8 t-64.5 2h-202v-612z" />
<glyph unicode="Q" horiz-adv-x="1415" d="M146 570q-3 73 -3.5 154.5t3.5 172.5q9 286 149.5 435t403.5 149q261 0 402 -149t153 -435q2 -90 2 -172t-2 -155q-13 -269 -129 -405t-341 -158q157 -15 238 -38l203 -61l-50 -151q-355 123 -570 203q-4 1 -40.5 14.5t-54 20.5t-50 22.5t-60.5 31.5q-237 132 -254 521z M342 535q6 -199 96.5 -306t260.5 -107q169 0 259.5 107t99.5 306q4 126 4 227.5t-4 179.5q-28 402 -359 402q-336 0 -357 -402q-7 -84 -6.5 -185.5t6.5 -221.5z" />
<glyph unicode="R" horiz-adv-x="1224" d="M177 0v1470h409q109 0 197 -24.5t159 -75t110.5 -139.5t39.5 -211q0 -212 -108.5 -315.5t-293.5 -120.5l376 -584h-223l-346 580h-124v-580h-196zM373 708h204q54 0 94 5t88 23t78.5 50.5t51.5 92t21 143.5t-22 144t-52.5 91t-80 49t-87.5 21.5t-91 3.5h-204v-623z" />
<glyph unicode="S" horiz-adv-x="1118" d="M80 414h196q0 -74 24 -130.5t64.5 -89.5t87 -49.5t97.5 -16.5q132 0 202.5 65t70.5 184q0 60 -21 109t-64.5 88.5t-93.5 69.5t-122 62q-224 104 -322 201t-98 235q0 153 127.5 250.5t324.5 97.5q229 0 350 -116q117 -112 117 -311v-13h-189q0 136 -70.5 221.5 t-207.5 85.5q-109 0 -186 -62t-77 -153q0 -90 69 -153.5t253 -150.5q72 -33 128 -64.5t110 -75.5t89 -92t57 -112.5t22 -138.5q0 -171 -136 -272t-333 -101q-74 0 -142 15t-129.5 48.5t-105.5 82.5q-44 48 -69 122q-23 68 -23 151v13z" />
<glyph unicode="T" horiz-adv-x="1022" d="M21 1317v153h979v-153h-395v-1317h-189l-2 1317h-393z" />
<glyph unicode="U" horiz-adv-x="1342" d="M146 555v915h200v-935q0 -182 79.5 -285t244 -103t243 103t78.5 285v935h203v-915q0 -563 -525 -563q-523 0 -523 563z" />
<glyph unicode="V" horiz-adv-x="1121" d="M-21 1470h217l359 -1254l364 1254h214l-483 -1470h-187z" />
<glyph unicode="W" horiz-adv-x="1797" d="M-36 1470h205l307 -1263l306 1263h233l309 -1263l306 1263h204l-409 -1470h-205l-321 1265l-319 -1265h-205z" />
<glyph unicode="X" horiz-adv-x="1062" d="M2 0l429 735l-429 735h214l316 -598l316 598h215l-427 -735l427 -735h-215l-316 598l-316 -598h-214z" />
<glyph unicode="Y" horiz-adv-x="972" d="M-36 1470h215l306 -704l313 704h211l-429 -839v-631h-187v631z" />
<glyph unicode="Z" horiz-adv-x="1099" d="M70 0l669 1317h-641l1 153h923l-671 -1317h643v-153h-924z" />
<glyph unicode="[" horiz-adv-x="654" d="M261 -299v1785h316v-113h-165v-1557h165v-115h-316z" />
<glyph unicode="\" horiz-adv-x="630" d="M2 1486h104l522 -1786h-105z" />
<glyph unicode="]" horiz-adv-x="654" d="M61 -184h166v1557h-166v113h316v-1785h-316v115z" />
<glyph unicode="^" horiz-adv-x="827" d="M41 818l351 408h56l352 -408h-144l-239 284l-224 -284h-152z" />
<glyph unicode="_" horiz-adv-x="1309" d="M0 0v167h1309v-167h-1309z" />
<glyph unicode="`" horiz-adv-x="492" d="M106 874l92 511h157v-151l-169 -360h-80z" />
<glyph unicode="a" horiz-adv-x="1099" d="M72 297q0 135 84 218.5t260 122.5q374 80 378 81q0 116 -43.5 162t-147.5 46q-51 0 -162.5 -8t-198.5 -15l-87 -8l-9 153q412 29 488 29q87 0 148.5 -21.5t98 -56.5t57 -95.5t27 -123t6.5 -154.5v-627h-177v175q-121 -196 -382 -196q-172 0 -256 87.5t-84 230.5zM250 304 q0 -82 45 -133t141 -51q174 0 266 86.5t92 207.5v179q-48 -12 -168.5 -42.5t-158.5 -39.5q-101 -27 -159 -80.5t-58 -126.5z" />
<glyph unicode="b" horiz-adv-x="1135" d="M153 0v1470h177v-545q96 158 308 158q67 0 124.5 -14t114.5 -53.5t96.5 -100.5t64.5 -161.5t25 -230.5q0 -131 -25 -228.5t-64.5 -154.5t-97 -91.5t-113.5 -46t-125 -11.5q-96 0 -182 39.5t-126 127.5v-158h-177zM325 528q0 -389 278 -389q50 0 88.5 8.5t76 34t61.5 67.5 t39 112.5t15 166.5t-14.5 168.5t-39 117.5t-61.5 72.5t-76.5 38.5t-88.5 11q-126 0 -202 -96.5t-76 -311.5z" />
<glyph unicode="c" horiz-adv-x="1036" d="M80 546q0 147 32.5 252.5t95 167t145 89.5t191.5 28q194 0 293.5 -77.5t126.5 -254.5h-203q-9 77 -63.5 135t-153.5 58q-139 0 -206 -93.5t-67 -299.5t67.5 -305t205.5 -99q107 0 161 58.5t61 145.5h200q-52 -357 -422 -357q-464 0 -464 552z" />
<glyph unicode="d" horiz-adv-x="1156" d="M87 523q0 130 25 230.5t64.5 161.5t96 100.5t113.5 53.5t122 14q103 0 180.5 -31.5t131.5 -118.5v537h176v-1470h-176v158q-40 -88 -126 -127t-186 -39q-68 0 -123 11.5t-112.5 45.5t-96.5 91t-64 154.5t-25 228.5zM266 528q0 -119 21 -198.5t61.5 -119.5t86.5 -55.5 t109 -15.5q281 0 281 389q0 216 -77.5 316t-203.5 100q-61 0 -108.5 -19.5t-87.5 -64.5t-61 -129t-21 -203z" />
<glyph unicode="e" horiz-adv-x="1076" d="M85 528q0 554 464 554q98 0 176 -32.5t138 -103t93 -189t33 -280.5h-721q22 -341 281 -341q108 0 169 56t64 138h193q-26 -171 -131 -254.5t-295 -83.5q-110 0 -192.5 28t-144.5 89.5t-94.5 166.5t-32.5 252zM268 606h532q-12 185 -75 259.5t-176 74.5q-132 0 -202 -80 t-79 -254z" />
<glyph unicode="f" horiz-adv-x="676" d="M45 922v146h151v81q0 90 20.5 155.5t56.5 100t76.5 50t86.5 15.5h221v-142h-165q-56 0 -89 -28.5t-33 -108.5v-123h228v-146h-225v-922h-177v922h-151z" />
<glyph unicode="g" horiz-adv-x="1125" d="M87 542q0 131 24 228.5t61.5 155.5t94 93.5t112 47.5t122.5 12q98 0 185.5 -40.5t128.5 -126.5v155h172v-975q0 -163 -35 -253t-109.5 -127t-211.5 -42q-50 -1 -96 -1q-34 0 -67 1q-76 1 -128 6l-50 3l9 139q22 -2 57 -6t119 -9q47 -3 84 -3q29 0 53 2q107 7 154.5 48.5 t51.5 144.5l2 172q-55 -89 -139.5 -129t-179.5 -40q-66 0 -122.5 13t-111.5 49.5t-93.5 95t-62.5 157.5t-24 229zM266 537q0 -118 21 -199.5t61.5 -122t87.5 -57.5t110 -17q279 0 279 396q0 189 -79.5 294.5t-199.5 105.5q-127 0 -203.5 -94.5t-76.5 -305.5z" />
<glyph unicode="h" horiz-adv-x="1182" d="M162 0v1470h180v-514q111 120 319 120q131 0 222 -60t132 -158t41 -224v-634h-177v650q0 132 -75 207.5t-189 75.5q-116 0 -194.5 -76t-78.5 -207v-650h-180z" />
<glyph unicode="i" horiz-adv-x="518" d="M164 0v1067h187v-1067h-187zM164 1288v182h187v-182h-187z" />
<glyph unicode="j" horiz-adv-x="525" d="M-68 -283l39 119q58 -33 105 -34h1q46 0 75 47q30 47 30 135v1083h176v-1079q0 -102 -23 -172t-61.5 -104.5t-93.5 -43.5q-22 -3 -45 -3q-35 0 -72 8q-61 13 -131 44zM182 1288v182h176v-182h-176z" />
<glyph unicode="k" horiz-adv-x="975" d="M146 0v1470h177v-917v-553h-177zM325 553l450 514h178l-449 -501l478 -566h-207z" />
<glyph unicode="l" horiz-adv-x="546" d="M167 283v1187h175v-1187q0 -81 23.5 -105.5t74.5 -24.5h86v-153h-133q-49 0 -84.5 10t-70 37.5t-53 86.5t-18.5 149z" />
<glyph unicode="m" horiz-adv-x="1804" d="M151 0v1067h177v-123q98 132 296 132q234 0 327 -202q92 202 344 202q184 0 278.5 -123.5t94.5 -318.5v-634h-178v650q0 133 -67.5 208t-174.5 75q-106 0 -178 -76t-72 -207v-650h-178v650q0 133 -66.5 208t-173.5 75q-108 0 -180 -75.5t-72 -207.5v-650h-177z" />
<glyph unicode="n" horiz-adv-x="1208" d="M163 0v1067h179v-125q97 134 320 134q194 0 294 -123.5t100 -318.5v-634h-177v650q0 132 -75 207.5t-189 75.5q-115 0 -194 -76t-79 -207v-650h-179z" />
<glyph unicode="o" horiz-adv-x="1085" d="M117 414q-2 54 -1.5 114t1.5 126q8 208 118 317.5t307 109.5q199 0 309 -109.5t117 -317.5q2 -66 2 -126t-2 -114q-22 -422 -426 -422q-406 0 -425 422zM299 409q6 -134 67 -206.5t176 -72.5t176 72.5t66 206.5q3 67 3.5 131t-3.5 125q-14 275 -242 275q-225 0 -243 -275 q-2 -40 -2 -104.5t2 -151.5z" />
<glyph unicode="p" horiz-adv-x="1182" d="M169 -299v1366h168v-163q40 86 126 126t182 40q57 0 104 -8.5t97.5 -28t89 -58t69.5 -94t48 -141.5t17 -195q0 -131 -25 -230.5t-64.5 -160t-96.5 -98.5t-114.5 -51.5t-124.5 -13.5q-209 0 -308 163v-453h-168zM339 538q0 -397 279 -397q60 0 106 17t85.5 58.5t60 122.5 t20.5 199q0 97 -14.5 167t-37.5 111t-59.5 65t-74 32t-86.5 8q-279 0 -279 -383z" />
<glyph unicode="q" horiz-adv-x="1158" d="M99 545q0 130 24.5 228t63 154.5t96 92t113.5 47t125 11.5q95 0 181 -43.5t127 -130.5v163h171v-1366h-171v454q-100 -163 -308 -163q-422 0 -422 553zM278 538q0 -118 21 -199t60 -122t85 -57.5t107 -16.5q274 0 274 395q0 208 -75 299.5t-199 91.5q-50 0 -87 -8.5 t-73.5 -34t-60 -68t-38 -113t-14.5 -167.5z" />
<glyph unicode="r" horiz-adv-x="719" d="M156 0v1067h187v-229q32 88 104 156.5t165 72.5q19 2 36 2q11 0 22 -1q26 -2 41 -5l16 -3l-7 -172l-106 2q-133 -7 -201 -95.5t-70 -224.5v-570h-187z" />
<glyph unicode="s" horiz-adv-x="903" d="M83 290h180q6 -77 49.5 -121.5t117.5 -44.5q47 0 80.5 5.5t64 19t46 43t15.5 74.5q0 25 -3.5 44.5t-15 37.5t-20 28t-33 25.5t-38 23t-51.5 26.5t-59 30q-143 76 -185 105q-109 80 -124 195q-3 23 -3 48q0 113 101 185t247 72q101 0 180.5 -30t129.5 -100q49 -67 49 -164 v-8h-166q0 66 -57 123.5t-136 57.5q-84 0 -129 -50t-45 -119q0 -59 56 -101.5t192 -106.5q59 -28 89 -43t75.5 -45.5t68 -58.5t39.5 -72.5t17 -97.5q0 -135 -105 -207.5t-276 -72.5q-155 0 -247.5 78t-103.5 221z" />
<glyph unicode="t" horiz-adv-x="680" d="M59 921v146h159v270h182v-270h182v-146h-182v-640q0 -81 23.5 -105.5t77.5 -24.5h97v-151h-146q-51 0 -87.5 10t-72.5 37.5t-55 86.5t-19 149v638h-159z" />
<glyph unicode="u" horiz-adv-x="1182" d="M139 416v651h186v-665q0 -134 72 -209.5t185 -75.5q114 0 188.5 76t74.5 209v665h189v-1067h-189v116q-89 -125 -310 -125q-197 0 -296.5 117t-99.5 308z" />
<glyph unicode="v" horiz-adv-x="899" d="M-17 1067h209l256 -905l255 905h210l-370 -1067h-189z" />
<glyph unicode="w" horiz-adv-x="1472" d="M-12 1067h205l214 -876l213 876h234l213 -876l214 876h205l-324 -1067h-189l-236 921l-236 -921h-188z" />
<glyph unicode="x" horiz-adv-x="849" d="M-7 0l324 562l-324 505h203l224 -415l221 415h204l-326 -505l326 -562h-204l-221 472l-224 -472h-203z" />
<glyph unicode="y" horiz-adv-x="916" d="M-5 1067h203l294 -742l236 742h176l-435 -1366h-181l139 416z" />
<glyph unicode="z" horiz-adv-x="770" d="M21 0l470 921h-442v146h709l-469 -921h441v-146h-709z" />
<glyph unicode="{" horiz-adv-x="748" d="M193 573v79q115 0 136 104q6 28 3 51v288q0 262 103.5 363t297.5 73v-52q-58 -4 -100.5 -17.5t-70 -41.5t-44.5 -58.5t-25 -81t-10 -93.5t-2 -111v-247q0 -76 -43.5 -139t-136.5 -78q92 -14 136 -78t44 -138v-248q0 -68 2 -111t10 -93t25 -80.5t44.5 -58.5t70 -42 t100.5 -17v-52q-194 -29 -297.5 72.5t-103.5 363.5v286q0 4 1 9.5t-0.5 21.5t-5.5 31t-13 33t-24 31t-40 22t-57 9z" />
<glyph unicode="|" horiz-adv-x="611" d="M256 -300v1785h95v-1785h-95z" />
<glyph unicode="}" horiz-adv-x="710" d="M2 -254q58 3 100.5 17t70 42t44 58.5t25 80.5t10.5 93t2 111v248q0 74 44 138t136 78q-94 15 -137 78t-43 139v247q0 68 -2 111t-10.5 93.5t-25 81t-44 58.5t-70 41.5t-100.5 17.5v52q194 28 297 -73t103 -363v-288q3 -1 0 -16t4 -38.5t18.5 -46t42.5 -38.5t75 -16v-79 q-33 0 -58 -9t-39 -22.5t-24 -30.5t-13.5 -33.5t-5 -30t-0.5 -21.5v-10v-286q0 -262 -103 -363.5t-297 -72.5v52z" />
<glyph unicode="~" horiz-adv-x="635" d="M29 549v112q3 4 19 22.5t22.5 24.5t22.5 19.5t29 18.5t32.5 10t41.5 5q50 0 93 -23t76.5 -46t63.5 -23q22 0 41 4.5t31.5 10t27.5 17.5t21.5 18.5t20 22t18.5 19.5v-114q-5 -5 -17.5 -20.5t-19 -23t-19.5 -19.5t-26 -18t-31 -10.5t-40 -4.5q-38 0 -68.5 16t-48.5 35.5 t-50.5 35.5t-72.5 16q-34 0 -64 -13t-41.5 -23t-36.5 -40z" />
<glyph unicode="&#xa1;" horiz-adv-x="534" d="M156 1050v226h234v-226h-234zM160 345l44 470h141l35 -470l4 -345h-220z" />
<glyph unicode="&#xa2;" horiz-adv-x="998" d="M75 546q0 277 104.5 403t298.5 133v172h71v-172q157 -9 240 -86.5t106 -244.5h-189q-7 65 -46.5 120t-110.5 69v-789q77 12 116.5 68t45.5 132h186q-46 -335 -348 -354v-143h-71v141q-403 15 -403 551zM252 551q0 -197 55 -295t171 -108v795q-116 -9 -171 -103t-55 -289z " />
<glyph unicode="&#xa3;" horiz-adv-x="741" d="M58 922v146h140v81q0 90 19.5 155.5t53 100t70.5 50t81 15.5h206v-142h-154q-52 0 -82.5 -28.5t-30.5 -108.5v-123h212v-146h-210v-779h234v-144h-485v144h86v779h-140z" />
<glyph unicode="&#xa4;" horiz-adv-x="1078" d="M94 1102l73 71l127 -130q106 78 240 74.5t239 -85.5l119 123l69 -74l-123 -122q72 -103 72 -231t-74 -227l120 -119l-70 -72l-118 119q-100 -79 -230.5 -80.5t-236.5 73.5l-126 -125l-69 68l123 125q-85 107 -87 241.5t82 241.5zM261 733.5q1 -109.5 76 -189.5 q79 -76 189 -77t190 75q78 78 79.5 190.5t-76.5 193.5q-78 76 -191 74.5t-191 -79.5q-77 -78 -76 -187.5z" />
<glyph unicode="&#xa5;" horiz-adv-x="979" d="M-36 1470h215l306 -704l313 704h211l-429 -839v-30h251v-125h-251v-142h251v-126h-251v-208h-187v208h-249v126h249v142h-249v125h249v30z" />
<glyph unicode="&#xa6;" horiz-adv-x="346" d="M117 -300v675h95v-675h-95zM117 794v675h95v-675h-95z" />
<glyph unicode="&#xa7;" horiz-adv-x="856" d="M72 1204q-1 74 26.5 128t79 83t114.5 43t142 14q162 0 262.5 -84.5t97.5 -244.5h-144q3 38 -5 74.5t-29 73t-68.5 59t-113.5 21.5q-104 -1 -163 -45.5t-56 -114.5q3 -45 45 -95.5t107 -101.5t135.5 -102.5t142 -116.5t113.5 -126q46 -68 48 -146.5t-49.5 -149.5 t-151.5 -102q185 -156 182 -301q-2 -82 -49.5 -143.5t-123 -92.5t-164.5 -31q-168 0 -275.5 106t-96.5 271h172q0 -49 9 -90.5t31 -80t64 -61t100 -22.5q82 0 121.5 45.5t39.5 100.5q0 60 -48 123t-119.5 120.5t-144 117.5t-131.5 136t-73 153q-29 212 151 330 q-12 12 -42 39t-43 39.5t-35 37t-31.5 42.5t-18 43.5t-8.5 50.5zM237.5 682.5q1.5 -29.5 12.5 -52.5q21 -47 119 -142.5t151 -137.5q60 23 91 62t31.5 81t-15 81t-43.5 70q-48 53 -101 99t-77.5 64t-80.5 55q-34 -21 -55.5 -53t-27.5 -64.5t-4.5 -62z" />
<glyph unicode="&#xa8;" horiz-adv-x="640" d="M80 1452.5q0 36.5 26 62.5t63 26t63.5 -26t26.5 -62.5t-26.5 -63t-63.5 -26.5t-63 26.5t-26 63zM391 1452.5q0 36.5 26.5 62.5t63.5 26t63 -26t26 -62.5t-26 -63t-63 -26.5t-63.5 26.5t-26.5 63z" />
<glyph unicode="&#xa9;" horiz-adv-x="1961" d="M63 737q0 173 60 317.5t163.5 242t243 152t297 54.5t297.5 -54.5t243.5 -152t164 -243t60.5 -316.5t-60.5 -316t-164 -242t-243.5 -151t-297 -54q-351 0 -557.5 205.5t-206.5 557.5zM200 735q0 -295 171 -477t459 -182t453.5 181t165.5 478q0 295 -168.5 479t-456 184 t-456 -184t-168.5 -479zM490 636q-4 78 0 179q4 165 97.5 254.5t253.5 89.5q146 0 232 -72.5t95 -194.5h-116q-16 99 -62.5 143t-148.5 44q-126 0 -173.5 -63.5t-57.5 -212.5q-4 -65 -4 -72t4 -77q5 -149 55 -215t176 -66q116 0 162 50t57 170h113q-7 -143 -92.5 -222 t-239.5 -79q-161 0 -252.5 87.5t-98.5 256.5z" />
<glyph unicode="&#xaa;" horiz-adv-x="741" d="M83 973q0 84 51.5 135.5t161.5 75.5q38 9 91 19.5t89 18.5t53 12q0 72 -26.5 100.5t-90.5 28.5q-31 0 -100.5 -5.5t-122.5 -9.5l-54 -5l-6 96q254 17 301 17q67 0 110 -18.5t64.5 -58t28 -85t6.5 -116.5v-389h-110v108q-74 -121 -236 -121q-106 0 -158 54t-52 143z M192 978q0 -52 28 -84t88 -32q107 0 164 54.5t57 128.5v112q-29 -8 -103.5 -27t-98.5 -25q-63 -17 -99 -50t-36 -77z" />
<glyph unicode="&#xab;" horiz-adv-x="748" d="M98 880l83 503h140v-148l-151 -355h-72zM375 880l82 503h139v-148l-150 -355h-71z" />
<glyph unicode="&#xac;" horiz-adv-x="1440" d="M59 0v1114h610l-114 -111h-378v-895h832v478l119 122v-708h-1069zM400 469l733 787l-182 209h462v-509l-202 226l-733 -796z" />
<glyph unicode="&#xad;" horiz-adv-x="923" d="M115 530v161h676v-161h-676z" />
<glyph unicode="&#xae;" horiz-adv-x="1662" d="M63 737.5q0 172.5 60 317t163.5 242t243 152t297 54.5t297.5 -54.5t243.5 -152t164 -243t60.5 -316.5t-60.5 -316t-164 -242t-243.5 -151t-297.5 -54t-297 54t-243 151t-163.5 241.5t-60 317zM200 734.5q0 -295.5 168.5 -479t456 -183.5t456 183.5t168.5 479 t-168.5 478.5t-456 183t-456 -183t-168.5 -478.5zM568 313v834h280q123 0 198 -59.5t75 -188.5q0 -94 -47.5 -155.5t-120.5 -74.5l168 -356h-127l-156 346h-155v-346h-115zM683 746h165q18 0 27 1t37.5 8t44.5 21.5t31 48t15 79.5q0 30 -6.5 53.5t-15 39t-26 26.5t-28 16 t-35 8t-33.5 3.5t-35 0t-30 -0.5h-111v-304z" />
<glyph unicode="&#xb0;" horiz-adv-x="840" d="M97 1151q0 136 96.5 231t233.5 95q135 0 232 -95t97 -231t-97 -232t-232 -96q-137 0 -233.5 96t-96.5 232zM193 1151q0 -102 65 -170.5t166 -68.5q103 0 172 69t69 170q0 103 -69.5 174t-171 71t-166.5 -70t-65 -175z" />
<glyph unicode="&#xb1;" horiz-adv-x="642" d="M21 589v108h253v233h101v-233h252v-108h-252v-252h-101v252h-253zM29 0v97h586v-97h-586z" />
<glyph unicode="&#xb2;" horiz-adv-x="560" d="M66 789q50 79 145.5 224t136.5 215q32 48 13.5 97t-76.5 55q-60 6 -81.5 -36t-19.5 -107h-114q-8 112 52.5 172t165.5 60q81 0 133 -47t54 -120.5t-53 -165.5q-69 -106 -174 -256h230v-91h-412z" />
<glyph unicode="&#xb3;" horiz-adv-x="512" d="M52 983h110q-4 -49 17.5 -83.5t72.5 -34.5q40 0 67.5 27.5t27.5 85.5q0 60 -37 93t-97 35v68q133 8 133 111q0 61 -28.5 85t-65.5 24q-85 0 -88 -120h-112q-8 90 41.5 143t157.5 53q94 0 148.5 -40.5t54.5 -125.5q0 -133 -130 -162q62 -14 98.5 -60.5t36.5 -108.5 q0 -96 -57 -143.5t-151.5 -47.5t-154.5 55t-44 146z" />
<glyph unicode="&#xb4;" horiz-adv-x="631" d="M108 1321l301 234h187l-358 -234h-130z" />
<glyph unicode="&#xb5;" horiz-adv-x="1090" d="M139 1067h181v-665q0 -133 74 -209t188 -76t188.5 76t74.5 209v665h189v-1067h-189v116q-89 -125 -310 -125q-68 0 -130.5 31.5t-91.5 81.5v-403h-173z" />
<glyph unicode="&#xb6;" horiz-adv-x="1052" d="M61 1085.5q0 157.5 100 248.5t263 91h596v-139h-141v-1286h-123v1286h-194v-1286h-105v746h-33q-163 0 -263 91t-100 248.5z" />
<glyph unicode="&#xb7;" horiz-adv-x="654" d="M212 494v227h233v-227h-233z" />
<glyph unicode="&#xb8;" horiz-adv-x="489" d="M97 -114q-3 22 3 45t23 42t41 27q-29 -46 -13.5 -71.5t65.5 -25.5h139q65 0 98 -65q33 -67 4 -134q-44 -86 -160 -88h-128v74h112q73 0 94 51q17 42 -14 73q-21 22 -55 22h-142q-28 0 -46 14t-21 36z" />
<glyph unicode="&#xb9;" horiz-adv-x="451" d="M101 787v88h78v423h-74v68q43 0 73 26t38 52l9 27h64v-596h69v-88h-257z" />
<glyph unicode="&#xba;" horiz-adv-x="738" d="M102 1053q-3 68 0 151q5 130 73.5 198t191.5 68t192 -68.5t73 -197.5q3 -83 0 -151q-13 -262 -265 -262q-254 0 -265 262zM215 1051q3 -84 41 -129.5t111 -45.5q71 0 109 45.5t42 129.5q5 83 0 159q-10 171 -151.5 171t-151.5 -171q-2 -50 0 -159z" />
<glyph unicode="&#xbb;" horiz-adv-x="750" d="M98 880l83 503h140v-148l-151 -355h-72zM375 880l82 503h139v-148l-150 -355h-71z" />
<glyph unicode="&#xbc;" horiz-adv-x="1620" d="M181 660v106h92v502h-89v81q32 0 58.5 12.5t41.5 31t25 37t13 30.5l3 13h75v-707h81v-106h-300zM432 -300h111l548 1770h-109zM932 196l278 615h139l-240 -511h187v145h118v-145h80v-104h-80v-196h-121v196h-361z" />
<glyph unicode="&#xbd;" horiz-adv-x="1624" d="M181 664v105h92v503h-89v80q32 0 58.5 13t41.5 31t25 36.5t13 31.5l3 13h75v-708h81v-105h-300zM385 -300h109l542 1770h-108zM933 0q66 106 177.5 275.5t160.5 248.5q35 57 13.5 115.5t-89.5 65.5q-38 5 -64 -9t-38 -41t-16.5 -56t-3.5 -63h-135q-10 132 62.5 203.5 t196.5 71.5q97 0 158.5 -55.5t64.5 -144t-63 -197.5l-206 -306h273v-108h-491z" />
<glyph unicode="&#xbe;" horiz-adv-x="1624" d="M138 900h132q-6 -59 19.5 -99.5t85.5 -40.5q48 0 81.5 33t33.5 101q0 71 -44.5 110t-116.5 42v81q159 6 159 130q0 72 -34 100.5t-79 28.5q-101 0 -104 -141h-133q-9 106 49.5 169t186.5 63q111 0 176 -48t65 -148q0 -77 -39.5 -127t-114.5 -66q74 -16 117 -71.5 t43 -128.5q0 -113 -68 -170t-179 -57t-182.5 65.5t-53.5 173.5zM476 -300h105l520 1770h-104zM943 194l277 612h139l-240 -508h187v145h118v-145h79v-104h-79v-194h-121v194h-360z" />
<glyph unicode="&#xbf;" horiz-adv-x="864" d="M89 298q0 67 25.5 120.5t63 90.5t75 73.5t65 86.5t29.5 110h116q10 -60 -0.5 -112t-33.5 -86.5t-52 -71t-55 -67t-44 -74.5t-18 -91q0 -62 46.5 -108t116.5 -46q51 0 86.5 14.5t55.5 37t30.5 59t13.5 71t2 83.5h174q14 -195 -78 -296.5t-277 -101.5q-153 0 -247 86 t-94 222zM294 994v226h234v-226h-234z" />
<glyph unicode="&#xc0;" horiz-adv-x="1337" d="M-15 0l580 1470h204l580 -1470h-216l-161 445h-610l-162 -445h-215zM396 1818h186l301 -233h-130zM416 596h502l-252 699z" />
<glyph unicode="&#xc1;" horiz-adv-x="1352" d="M-33 0l579 1470h205l580 -1470h-217l-161 445h-609l-162 -445h-215zM398 596h501l-252 699zM450 1585l301 233h186l-357 -233h-130z" />
<glyph unicode="&#xc2;" horiz-adv-x="1325" d="M-33 0l579 1470h205l580 -1470h-217l-161 445h-609l-162 -445h-215zM398 596h501l-252 699zM412 1661l254 233h31l230 -233h-104l-141 184l-164 -184h-106z" />
<glyph unicode="&#xc3;" horiz-adv-x="1335" d="M-33 0l579 1470h205l580 -1470h-217l-161 445h-609l-162 -445h-215zM398 596h501l-252 699zM434 1654v82q4 5 21 24.5t26.5 29t27 22.5t36.5 19.5t39 6.5q43 0 78.5 -21.5t63.5 -42.5t54 -21q20 0 38.5 4t35.5 13t26 15t24.5 18.5t18.5 14.5v-72q-19 -26 -31.5 -40 t-42.5 -31t-65 -17q-31 0 -56.5 13t-40.5 29t-42 28.5t-61 12.5q-35 0 -64.5 -16t-55 -42t-30.5 -29z" />
<glyph unicode="&#xc4;" horiz-adv-x="1325" d="M-33 0l579 1470h205l580 -1470h-217l-161 445h-609l-162 -445h-215zM398 596h501l-252 699zM420 1718q0 37 26 63t62.5 26t63 -26t26.5 -63t-26.5 -63.5t-63 -26.5t-62.5 26.5t-26 63.5zM730 1718q0 37 26.5 63t63.5 26t63.5 -26t26.5 -63t-26.5 -63.5t-63.5 -26.5 t-63.5 26.5t-26.5 63.5z" />
<glyph unicode="&#xc5;" horiz-adv-x="1325" d="M-33 0l579 1470h205l580 -1470h-217l-161 445h-609l-162 -445h-215zM398 596h501l-252 699zM421 1673q0 95 68 162t162 67t161.5 -67t67.5 -162q0 -66 -36 -122.5t-93 -80.5h-205q-56 28 -90.5 83t-34.5 120zM493 1673q0 -64 46.5 -110.5t111.5 -46.5t112 46.5t47 110.5 q0 66 -47 112.5t-112 46.5t-111.5 -46.5t-46.5 -112.5z" />
<glyph unicode="&#xc6;" horiz-adv-x="1521" d="M-106 0l699 1470h119v-93l-380 -854h380v-150h-443l-168 -373h-207zM712 0v1470h711v-153h-555v-455h479v-151h-479v-558h555v-153h-711z" />
<glyph unicode="&#xc7;" horiz-adv-x="1386" d="M146 570q-7 146 0 327q8 286 149 435t402 149q497 0 557 -431h-194q-54 294 -363 294q-332 0 -358 -402q-9 -155 0 -407q9 -199 99.5 -306t258.5 -107q328 0 370 339h193q-34 -251 -175 -362t-388 -111q-265 0 -403 143.5t-148 438.5zM503 -116q-3 22 3 45t23 42t41 27 q-30 -46 -14 -71.5t66 -25.5h139q65 0 98 -65q33 -67 3 -134q-43 -86 -159 -88h-128v73h112q73 0 94 52q17 41 -14 72q-21 22 -55 22h-142q-28 0 -46 14.5t-21 36.5z" />
<glyph unicode="&#xc8;" horiz-adv-x="1222" d="M177 0v1470h890v-153h-694v-455h600v-151h-600v-558h694v-153h-890zM373 1818h186l301 -233h-130z" />
<glyph unicode="&#xc9;" horiz-adv-x="1208" d="M177 0v1470h890v-153h-694v-455h600v-151h-600v-558h694v-153h-890zM450 1585l301 233h186l-357 -233h-130z" />
<glyph unicode="&#xca;" horiz-adv-x="1215" d="M177 0v1470h890v-153h-694v-455h600v-151h-600v-558h694v-153h-890zM348 1661l255 233h31l230 -233h-104l-141 184l-165 -184h-106z" />
<glyph unicode="&#xcb;" horiz-adv-x="1233" d="M177 0v1470h890v-153h-694v-455h600v-151h-600v-558h694v-153h-890zM401 1718q0 37 26 63t63 26t63.5 -26t26.5 -63t-26.5 -63.5t-63.5 -26.5t-63 26.5t-26 63.5zM712 1718q0 37 26.5 63t63 26t63 -26t26.5 -63t-26.5 -63.5t-63 -26.5t-63 26.5t-26.5 63.5z" />
<glyph unicode="&#xcc;" horiz-adv-x="570" d="M20 1818h186l301 -233h-130zM200 0v1470h193v-1470h-193z" />
<glyph unicode="&#xcd;" horiz-adv-x="575" d="M49 1585l302 233h186l-358 -233h-130zM200 0v1470h193v-1470h-193z" />
<glyph unicode="&#xce;" horiz-adv-x="575" d="M38 1661l254 233h31l230 -233h-103l-142 184l-164 -184h-106zM200 0v1470h193v-1470h-193z" />
<glyph unicode="&#xcf;" horiz-adv-x="555" d="M54 1718q0 37 26 63t62.5 26t63 -26t26.5 -63t-26.5 -63.5t-63 -26.5t-62.5 26.5t-26 63.5zM200 0v1470h193v-1470h-193zM365 1718q0 37 26 63t63 26t63.5 -26t26.5 -63t-26.5 -63.5t-63.5 -26.5t-63 26.5t-26 63.5z" />
<glyph unicode="&#xd0;" horiz-adv-x="1411" d="M5 665v161h269v644h437q131 0 227 -36.5t154.5 -98t94 -158t48.5 -200.5t13 -242t-13 -242.5t-48 -201.5t-94 -158t-155 -97t-227 -36h-437v665h-269zM453 151h232q77 0 136.5 16t99.5 41t68.5 70.5t43.5 87.5t23.5 110.5t10 122t1.5 136.5q0 63 -1 106t-5 99t-11.5 93.5 t-21.5 81t-33.5 72.5t-48 57.5t-66 44.5t-87 26.5t-109.5 10.5h-232v-500h228v-161h-228v-514z" />
<glyph unicode="&#xd1;" horiz-adv-x="1455" d="M177 0v1470h275l629 -1288v1288h179v-1470h-266l-636 1314v-1314h-181zM476 1688v83q5 5 21.5 24.5t26.5 28.5t27 22.5t36 19.5t40 6q42 0 78 -21t64 -42.5t53 -21.5q21 0 39.5 4t35 13.5t26 15t25 18t18.5 15.5v-73q-20 -25 -32.5 -39.5t-42.5 -31t-64 -16.5 q-31 0 -57 12.5t-41 28.5t-42 29t-60 13q-36 0 -65.5 -16.5t-54.5 -42t-31 -29.5z" />
<glyph unicode="&#xd2;" horiz-adv-x="1382" d="M132 570q-3 146 0 327q8 285 151 434t405 149q261 0 401.5 -148.5t149.5 -434.5q3 -181 0 -327q-12 -295 -150.5 -436.5t-403 -141.5t-403 141.5t-150.5 436.5zM328 535q7 -199 96.5 -304.5t261 -105.5t261 105.5t96.5 304.5q9 252 0 407q-25 402 -357.5 402t-357.5 -402 q-9 -155 0 -407zM398 1818h186l302 -233h-130z" />
<glyph unicode="&#xd3;" horiz-adv-x="1368" d="M132 570q-3 146 0 327q8 285 151 434t405 149q261 0 401.5 -148.5t149.5 -434.5q3 -181 0 -327q-12 -295 -150.5 -436.5t-403 -141.5t-403 141.5t-150.5 436.5zM328 535q7 -199 96.5 -304.5t261 -105.5t261 105.5t96.5 304.5q9 252 0 407q-25 402 -357.5 402t-357.5 -402 q-9 -155 0 -407zM443 1585l301 233h186l-357 -233h-130z" />
<glyph unicode="&#xd4;" horiz-adv-x="1368" d="M132 570q-3 146 0 327q8 285 151 434t405 149q261 0 401.5 -148.5t149.5 -434.5q3 -181 0 -327q-12 -295 -150.5 -436.5t-403 -141.5t-403 141.5t-150.5 436.5zM328 535q7 -199 96.5 -304.5t261 -105.5t261 105.5t96.5 304.5q9 252 0 407q-25 402 -357.5 402t-357.5 -402 q-9 -155 0 -407zM427 1661l254 233h31l230 -233h-104l-141 184l-165 -184h-105z" />
<glyph unicode="&#xd5;" horiz-adv-x="1373" d="M132 570q-3 146 0 327q8 285 151 434t405 149q261 0 401.5 -148.5t149.5 -434.5q3 -181 0 -327q-12 -295 -150.5 -436.5t-403 -141.5t-403 141.5t-150.5 436.5zM328 535q7 -199 96.5 -304.5t261 -105.5t261 105.5t96.5 304.5q9 252 0 407q-25 402 -357.5 402t-357.5 -402 q-9 -155 0 -407zM447 1688v83q5 5 21.5 24.5t26.5 28.5t27 22.5t36 19.5t40 6q43 0 78.5 -21t63.5 -42.5t54 -21.5q20 0 38.5 4t35 13.5t26 15t25 18t18.5 15.5v-73q-19 -25 -32 -39.5t-42.5 -31t-64.5 -16.5q-31 0 -57 12.5t-41 28.5t-42 29t-60 13q-36 0 -65 -16.5 t-54.5 -42t-31.5 -29.5z" />
<glyph unicode="&#xd6;" horiz-adv-x="1368" d="M132 570q-3 146 0 327q8 285 151 434t405 149q261 0 401.5 -148.5t149.5 -434.5q3 -181 0 -327q-12 -295 -150.5 -436.5t-403 -141.5t-403 141.5t-150.5 436.5zM328 535q7 -199 96.5 -304.5t261 -105.5t261 105.5t96.5 304.5q9 252 0 407q-25 402 -357.5 402t-357.5 -402 q-9 -155 0 -407zM447 1718q0 37 26 63t63 26t63.5 -26t26.5 -63t-26.5 -63.5t-63.5 -26.5t-63 26.5t-26 63.5zM758 1718q0 37 26.5 63t63 26t63 -26t26.5 -63t-26.5 -63.5t-63 -26.5t-63 26.5t-26.5 63.5z" />
<glyph unicode="&#xd7;" horiz-adv-x="883" d="M110 369l241 239l-241 241l92 92l241 -241l240 241l92 -92l-240 -241l240 -239l-92 -92l-240 239l-241 -239z" />
<glyph unicode="&#xd8;" horiz-adv-x="1292" d="M94 570q-3 146 0 327q8 285 151 434t405 149q148 0 264 -52l57 127l81 -34l-61 -138q199 -142 210 -486q3 -181 0 -327q-12 -295 -150.5 -436.5t-403.5 -141.5q-146 0 -251 42l-79 -178l-81 36l80 183q-208 134 -222 495zM290 535q7 -201 95 -304l467 1057 q-80 56 -205 56q-332 0 -357 -402q-9 -155 0 -407zM457 171q79 -46 190 -46q172 0 261.5 105.5t96.5 304.5q9 252 0 407q-13 180 -85 280z" />
<glyph unicode="&#xd9;" horiz-adv-x="1431" d="M146 555v915h200v-935q0 -182 79.5 -285t244 -103t243 103t78.5 285v935h203v-915q0 -563 -525 -563q-523 0 -523 563zM359 1818h186l301 -233h-130z" />
<glyph unicode="&#xda;" horiz-adv-x="1417" d="M146 555v915h200v-935q0 -182 79.5 -285t244 -103t243 103t78.5 285v935h203v-915q0 -563 -525 -563q-523 0 -523 563zM555 1585l302 233h186l-358 -233h-130z" />
<glyph unicode="&#xdb;" horiz-adv-x="1422" d="M146 555v915h200v-935q0 -182 79.5 -285t244 -103t243 103t78.5 285v935h203v-915q0 -563 -525 -563q-523 0 -523 563zM406 1661l254 233h31l230 -233h-103l-142 184l-164 -184h-106z" />
<glyph unicode="&#xdc;" horiz-adv-x="1422" d="M146 555v915h200v-935q0 -182 79.5 -285t244 -103t243 103t78.5 285v935h203v-915q0 -563 -525 -563q-523 0 -523 563zM420 1718q0 37 26 63t62.5 26t63 -26t26.5 -63t-26.5 -63.5t-63 -26.5t-62.5 26.5t-26 63.5zM730 1718q0 37 26.5 63t63.5 26t63.5 -26t26.5 -63 t-26.5 -63.5t-63.5 -26.5t-63.5 26.5t-26.5 63.5z" />
<glyph unicode="&#xdd;" horiz-adv-x="932" d="M-60 1470h215l306 -704l313 704h210l-429 -839v-631h-186v631zM313 1585l301 233h186l-357 -233h-130z" />
<glyph unicode="&#xde;" horiz-adv-x="1022" d="M114 -299v1765h177v-364q100 123 269 123q199 0 309.5 -109.5t117.5 -317.5q2 -61 2 -197t-2 -187q-22 -422 -427 -422q-170 0 -269 118v-409h-177zM317 409q6 -134 67 -206.5t176 -72.5t176 72.5t67 206.5q3 65 3 203t-3 196q-14 275 -243 275q-224 0 -243 -275 q-7 -125 0 -399z" />
<glyph unicode="&#xdf;" horiz-adv-x="1245" d="M155 0v1029q0 200 118.5 320.5t322.5 120.5q207 0 327 -88t120 -242q0 -82 -36 -135t-88 -76t-103 -40t-87.5 -43.5t-36.5 -70.5q0 -39 36.5 -68.5t93.5 -53t117.5 -51.5t118.5 -80.5t86 -123.5q18 -42 19 -87t-12 -89.5t-44.5 -84t-77 -70.5t-113.5 -49t-150 -18h-128 v130h59q202 0 267 65.5t30 171.5q-18 53 -69.5 95.5t-112 71t-119 59.5t-97 76t-38.5 104q6 57 32 99t62 64t76 44.5t74 40t56.5 51t22.5 79.5q0 108 -72.5 157t-215.5 51q-113 3 -191.5 -87.5t-78.5 -242.5l2 -1029h-170z" />
<glyph unicode="&#xe0;" horiz-adv-x="1097" d="M72 297q0 135 84 218.5t260 122.5q374 80 378 81q0 116 -43.5 162t-147.5 46q-51 0 -162.5 -8t-198.5 -15l-87 -8l-9 153q412 29 488 29q87 0 148.5 -21.5t98 -56.5t57 -95.5t27 -123t6.5 -154.5v-627h-177v175q-121 -196 -382 -196q-172 0 -256 87.5t-84 230.5zM250 304 q0 -82 45 -133t141 -51q174 0 266 86.5t92 207.5v179q-48 -12 -168.5 -42.5t-158.5 -39.5q-101 -27 -159 -80.5t-58 -126.5zM274 1441h186l301 -233h-130z" />
<glyph unicode="&#xe1;" horiz-adv-x="1090" d="M72 297q0 135 84 218.5t260 122.5q374 80 378 81q0 116 -43.5 162t-147.5 46q-51 0 -162.5 -8t-198.5 -15l-87 -8l-9 153q412 29 488 29q87 0 148.5 -21.5t98 -56.5t57 -95.5t27 -123t6.5 -154.5v-627h-177v175q-121 -196 -382 -196q-172 0 -256 87.5t-84 230.5zM250 304 q0 -82 45 -133t141 -51q174 0 266 86.5t92 207.5v179q-48 -12 -168.5 -42.5t-158.5 -39.5q-101 -27 -159 -80.5t-58 -126.5zM355 1206l302 234h186l-358 -234h-130z" />
<glyph unicode="&#xe2;" horiz-adv-x="1071" d="M72 297q0 135 84 218.5t260 122.5q374 80 378 81q0 116 -43.5 162t-147.5 46q-51 0 -162.5 -8t-198.5 -15l-87 -8l-9 153q412 29 488 29q87 0 148.5 -21.5t98 -56.5t57 -95.5t27 -123t6.5 -154.5v-627h-177v175q-121 -196 -382 -196q-172 0 -256 87.5t-84 230.5zM250 304 q0 -82 45 -133t141 -51q174 0 266 86.5t92 207.5v179q-48 -12 -168.5 -42.5t-158.5 -39.5q-101 -27 -159 -80.5t-58 -126.5zM278 1258l254 234h32l230 -234h-104l-141 184l-165 -184h-106z" />
<glyph unicode="&#xe3;" horiz-adv-x="1090" d="M72 297q0 135 84 218.5t260 122.5q374 80 378 81q0 116 -43.5 162t-147.5 46q-51 0 -162.5 -8t-198.5 -15l-87 -8l-9 153q412 29 488 29q87 0 148.5 -21.5t98 -56.5t57 -95.5t27 -123t6.5 -154.5v-627h-177v175q-121 -196 -382 -196q-172 0 -256 87.5t-84 230.5zM250 304 q0 -82 45 -133t141 -51q174 0 266 86.5t92 207.5v179q-48 -12 -168.5 -42.5t-158.5 -39.5q-101 -27 -159 -80.5t-58 -126.5zM301 1258v83q5 5 21.5 24.5t26.5 28.5t27 22t36 19.5t40 6.5q42 0 78 -21t64 -42.5t53 -21.5q21 0 39.5 4t35 13t26 15t25 18.5t18.5 15.5v-73 q-19 -25 -32 -39.5t-42.5 -31t-64.5 -16.5q-31 0 -57 12.5t-41 28.5t-42 29t-60 13q-36 0 -65 -16.5t-54.5 -42t-31.5 -29.5z" />
<glyph unicode="&#xe4;" horiz-adv-x="1071" d="M72 297q0 135 84 218.5t260 122.5q374 80 378 81q0 116 -43.5 162t-147.5 46q-51 0 -162.5 -8t-198.5 -15l-87 -8l-9 153q412 29 488 29q87 0 148.5 -21.5t98 -56.5t57 -95.5t27 -123t6.5 -154.5v-627h-177v175q-121 -196 -382 -196q-172 0 -256 87.5t-84 230.5zM250 304 q0 -82 45 -133t141 -51q174 0 266 86.5t92 207.5v179q-48 -12 -168.5 -42.5t-158.5 -39.5q-101 -27 -159 -80.5t-58 -126.5zM305 1344.5q0 36.5 25.5 62.5t62.5 26t63.5 -26t26.5 -62.5t-26.5 -63t-63.5 -26.5t-62.5 26.5t-25.5 63zM615 1344.5q0 36.5 26.5 62.5t63.5 26 t63.5 -26t26.5 -62.5t-26.5 -63t-63.5 -26.5t-63.5 26.5t-26.5 63z" />
<glyph unicode="&#xe5;" horiz-adv-x="1085" d="M72 297q0 135 84 218.5t260 122.5q374 80 378 81q0 116 -43.5 162t-147.5 46q-51 0 -162.5 -8t-198.5 -15l-87 -8l-9 153q412 29 488 29q87 0 148.5 -21.5t98 -56.5t57 -95.5t27 -123t6.5 -154.5v-627h-177v175q-121 -196 -382 -196q-172 0 -256 87.5t-84 230.5zM250 304 q0 -82 45 -133t141 -51q174 0 266 86.5t92 207.5v179q-48 -12 -168.5 -42.5t-158.5 -39.5q-101 -27 -159 -80.5t-58 -126.5zM337 1472q0 94 68 161.5t163 67.5q93 0 160.5 -67.5t67.5 -161.5t-67.5 -162t-160.5 -68q-95 0 -163 67.5t-68 162.5zM411 1472q0 -64 46 -111 t111.5 -47t111.5 47t46 111q0 66 -46 112.5t-111.5 46.5t-111.5 -46.5t-46 -112.5z" />
<glyph unicode="&#xe6;" horiz-adv-x="1726" d="M91 297q0 135 78.5 218.5t244.5 122.5q76 18 201.5 43.5t153.5 32.5q0 117 -41 165t-138 48q-47 0 -152.5 -8t-186.5 -15l-82 -8l-9 153q387 29 459 29q107 0 169.5 -37.5t94.5 -123.5q46 86 132.5 129t193.5 43q413 0 413 -599h-677q22 -353 264 -353q102 0 159 56.5 t59 138.5h182q-25 -172 -123 -256t-277 -84q-91 0 -194 55t-165 157q-20 -60 -70 -105.5t-114.5 -70.5t-128.5 -37t-126 -12q-161 0 -240.5 87.5t-79.5 230.5zM258 304q0 -82 42.5 -133t131.5 -51q164 0 250.5 86.5t86.5 207.5v175q-243 -61 -307 -78q-95 -27 -149.5 -80.5 t-54.5 -126.5zM945 613h499q-8 128 -40 203.5t-78.5 104t-116.5 28.5q-123 0 -189 -80.5t-75 -255.5z" />
<glyph unicode="&#xe7;" horiz-adv-x="1105" d="M80 546q0 147 32.5 252.5t95 167t145 89.5t191.5 28q194 0 293.5 -77.5t126.5 -254.5h-203q-9 77 -63.5 135t-153.5 58q-139 0 -206 -93.5t-67 -299.5t67.5 -305t205.5 -99q107 0 161 58.5t61 145.5h200q-52 -357 -422 -357q-464 0 -464 552zM377 -113q-3 22 2.5 45 t23 42t41.5 27q-30 -46 -14.5 -71t66.5 -25h139q64 0 98 -66q33 -67 3 -133q-44 -87 -160 -89h-128v74h112q74 0 94 51q18 42 -13 73q-21 22 -56 22h-141q-29 0 -46.5 14t-20.5 36z" />
<glyph unicode="&#xe8;" horiz-adv-x="1094" d="M85 528q0 554 464 554q98 0 176 -32.5t138 -103t93 -189t33 -280.5h-721q22 -341 281 -341q108 0 169 56t64 138h193q-26 -171 -131 -254.5t-295 -83.5q-110 0 -192.5 28t-144.5 89.5t-94.5 166.5t-32.5 252zM263 1451h187l301 -233h-130zM268 606h532q-12 185 -75 259.5 t-176 74.5q-132 0 -202 -80t-79 -254z" />
<glyph unicode="&#xe9;" horiz-adv-x="1107" d="M85 528q0 554 464 554q98 0 176 -32.5t138 -103t93 -189t33 -280.5h-721q22 -341 281 -341q108 0 169 56t64 138h193q-26 -171 -131 -254.5t-295 -83.5q-110 0 -192.5 28t-144.5 89.5t-94.5 166.5t-32.5 252zM268 606h532q-12 185 -75 259.5t-176 74.5q-132 0 -202 -80 t-79 -254zM367 1218l301 233h186l-357 -233h-130z" />
<glyph unicode="&#xea;" horiz-adv-x="1090" d="M85 528q0 554 464 554q98 0 176 -32.5t138 -103t93 -189t33 -280.5h-721q22 -341 281 -341q108 0 169 56t64 138h193q-26 -171 -131 -254.5t-295 -83.5q-110 0 -192.5 28t-144.5 89.5t-94.5 166.5t-32.5 252zM268 606h532q-12 185 -75 259.5t-176 74.5q-132 0 -202 -80 t-79 -254zM269 1234l254 233h31l230 -233h-103l-142 184l-164 -184h-106z" />
<glyph unicode="&#xeb;" horiz-adv-x="1090" d="M85 528q0 554 464 554q98 0 176 -32.5t138 -103t93 -189t33 -280.5h-721q22 -341 281 -341q108 0 169 56t64 138h193q-26 -171 -131 -254.5t-295 -83.5q-110 0 -192.5 28t-144.5 89.5t-94.5 166.5t-32.5 252zM268 606h532q-12 185 -75 259.5t-176 74.5q-132 0 -202 -80 t-79 -254zM313 1333q0 37 26 62.5t62.5 25.5t63 -25.5t26.5 -62.5t-26.5 -63.5t-63 -26.5t-62.5 26.5t-26 63.5zM623 1333q0 37 26.5 62.5t63.5 25.5t63.5 -25.5t26.5 -62.5t-26.5 -63.5t-63.5 -26.5t-63.5 26.5t-26.5 63.5z" />
<glyph unicode="&#xec;" horiz-adv-x="449" d="M-30 1460h186l302 -233h-130zM177 0v1074h193v-1074h-193z" />
<glyph unicode="&#xed;" horiz-adv-x="449" d="M-2 1219l301 233h186l-357 -233h-130zM177 0v1074h193v-1074h-193z" />
<glyph unicode="&#xee;" horiz-adv-x="449" d="M-25 1239l254 233h31l230 -233h-104l-141 184l-165 -184h-105zM177 0v1074h193v-1074h-193z" />
<glyph unicode="&#xef;" horiz-adv-x="449" d="M-2 1350q0 37 25.5 63t62.5 26t63.5 -26t26.5 -63t-26.5 -63.5t-63.5 -26.5t-62.5 26.5t-25.5 63.5zM177 0v1074h193v-1074h-193zM308 1350q0 37 26.5 63t63.5 26t63.5 -26t26.5 -63t-26.5 -63.5t-63.5 -26.5t-63.5 26.5t-26.5 63.5z" />
<glyph unicode="&#xf0;" horiz-adv-x="873" d="M80 344q0 159 83.5 250t209.5 103q40 6 112 -7l-116 206l-208 -106l-46 76l207 107l-131 216l168 66l118 -210l239 96l40 -68l-232 -104q38 -66 112.5 -188.5t89.5 -149.5q50 -99 65 -168.5t12 -145.5q-8 -134 -112.5 -222t-250.5 -88t-253 100t-107 237zM259 358 q0 -81 53.5 -138t127.5 -57q91 0 144.5 54t53.5 137q0 81 -61 144.5t-137 63.5q-73 0 -127 -61.5t-54 -142.5z" />
<glyph unicode="&#xf1;" horiz-adv-x="1184" d="M163 0v1067h179v-125q97 134 320 134q194 0 294 -123.5t100 -318.5v-634h-177v650q0 132 -75 207.5t-189 75.5q-115 0 -194 -76t-79 -207v-650h-179zM386 1241v83q5 4 21.5 23.5t26.5 29t27 22.5t36 19.5t40 6.5q43 0 78.5 -21.5t63.5 -42.5t54 -21q20 0 38.5 4t35 13 t26 15t25 18.5t18.5 14.5v-72q-19 -25 -32 -39.5t-42.5 -31.5t-64.5 -17q-31 0 -57 13.5t-41 28.5t-42 28t-60 13q-36 0 -65 -16t-54.5 -42t-31.5 -29z" />
<glyph unicode="&#xf2;" horiz-adv-x="1090" d="M124 414q-3 108 0 240q8 208 118 317.5t307 109.5q199 0 309 -109.5t117 -317.5q4 -132 0 -240q-22 -422 -426 -422q-406 0 -425 422zM271 1433h187l301 -234h-130zM306 409q6 -134 67 -206.5t176 -72.5t175.5 72.5t66.5 206.5q7 134 0 256q-14 275 -242 275 q-225 0 -243 -275q-5 -81 0 -256z" />
<glyph unicode="&#xf3;" horiz-adv-x="1090" d="M124 414q-3 108 0 240q8 208 118 317.5t307 109.5q199 0 309 -109.5t117 -317.5q4 -132 0 -240q-22 -422 -426 -422q-406 0 -425 422zM306 409q6 -134 67 -206.5t176 -72.5t175.5 72.5t66.5 206.5q7 134 0 256q-14 275 -242 275q-225 0 -243 -275q-5 -81 0 -256z M332 1188l302 233h186l-358 -233h-130z" />
<glyph unicode="&#xf4;" horiz-adv-x="1099" d="M124 414q-3 108 0 240q8 208 118 317.5t307 109.5q199 0 309 -109.5t117 -317.5q4 -132 0 -240q-22 -422 -426 -422q-406 0 -425 422zM302 1212l255 234h31l230 -234h-104l-141 184l-165 -184h-106zM306 409q6 -134 67 -206.5t176 -72.5t175.5 72.5t66.5 206.5 q7 134 0 256q-14 275 -242 275q-225 0 -243 -275q-5 -81 0 -256z" />
<glyph unicode="&#xf5;" horiz-adv-x="1099" d="M124 414q-3 108 0 240q8 208 118 317.5t307 109.5q199 0 309 -109.5t117 -317.5q4 -132 0 -240q-22 -422 -426 -422q-406 0 -425 422zM306 409q6 -134 67 -206.5t176 -72.5t175.5 72.5t66.5 206.5q7 134 0 256q-14 275 -242 275q-225 0 -243 -275q-5 -81 0 -256z M325 1229v83q5 5 21.5 24.5t26.5 28.5t27 22.5t36 19.5t40 6q43 0 78.5 -21t63.5 -42.5t54 -21.5q20 0 38.5 4t35 13.5t26 15t25 18.5t18.5 15v-73q-19 -25 -32 -39.5t-42.5 -31t-64.5 -16.5q-31 0 -57 13t-40.5 28t-42 28.5t-60.5 13.5q-36 0 -65 -16t-54.5 -42t-31.5 -30z " />
<glyph unicode="&#xf6;" horiz-adv-x="1085" d="M124 414q-3 108 0 240q8 208 118 317.5t307 109.5q199 0 309 -109.5t117 -317.5q4 -132 0 -240q-22 -422 -426 -422q-406 0 -425 422zM306 409q6 -134 67 -206.5t176 -72.5t175.5 72.5t66.5 206.5q7 134 0 256q-14 275 -242 275q-225 0 -243 -275q-5 -81 0 -256z M315 1358q0 37 26 63t62.5 26t63 -26t26.5 -63t-26.5 -63.5t-63 -26.5t-62.5 26.5t-26 63.5zM626 1358q0 37 26 63t63 26t63.5 -26t26.5 -63t-26.5 -63.5t-63.5 -26.5t-63 26.5t-26 63.5z" />
<glyph unicode="&#xf7;" horiz-adv-x="721" d="M16 530v161h676v-161h-676zM225 874v227h234v-227h-234zM228 105v226h233v-226h-233z" />
<glyph unicode="&#xf8;" horiz-adv-x="959" d="M86 414q-3 108 0 240q8 208 118 317.5t307 109.5q108 0 193 -35l54 118l62 -31l-54 -119q163 -106 171 -360q4 -132 0 -240q-22 -422 -426 -422q-115 0 -199 34l-79 -170l-61 34l78 169q-153 100 -164 355zM268 409q3 -118 55 -192l316 690q-54 33 -128 33 q-225 0 -243 -275q-5 -81 0 -256zM376 166q55 -36 135 -36q115 0 176 72.5t66 206.5q7 134 0 256q-7 125 -60 193z" />
<glyph unicode="&#xf9;" horiz-adv-x="1156" d="M139 416v651h186v-665q0 -134 72 -209.5t185 -75.5q114 0 188.5 76t74.5 209v665h189v-1067h-189v116q-89 -125 -310 -125q-197 0 -296.5 117t-99.5 308zM271 1425h187l301 -234h-130z" />
<glyph unicode="&#xfa;" horiz-adv-x="1166" d="M139 416v651h186v-665q0 -134 72 -209.5t185 -75.5q114 0 188.5 76t74.5 209v665h189v-1067h-189v116q-89 -125 -310 -125q-197 0 -296.5 117t-99.5 308zM386 1198l302 234h186l-358 -234h-130z" />
<glyph unicode="&#xfb;" horiz-adv-x="1166" d="M139 416v651h186v-665q0 -134 72 -209.5t185 -75.5q114 0 188.5 76t74.5 209v665h189v-1067h-189v116q-89 -125 -310 -125q-197 0 -296.5 117t-99.5 308zM283 1204l254 234h31l230 -234h-103l-142 184l-164 -184h-106z" />
<glyph unicode="&#xfc;" horiz-adv-x="1179" d="M139 416v651h186v-665q0 -134 72 -209.5t185 -75.5q114 0 188.5 76t74.5 209v665h189v-1067h-189v116q-89 -125 -310 -125q-197 0 -296.5 117t-99.5 308zM319 1320q0 37 25.5 63t62.5 26t63.5 -26t26.5 -63t-26.5 -63.5t-63.5 -26.5t-62.5 26.5t-25.5 63.5zM629 1320 q0 37 26.5 63t63.5 26t63 -26t26 -63t-26 -63.5t-63 -26.5t-63.5 26.5t-26.5 63.5z" />
<glyph unicode="&#xfd;" horiz-adv-x="880" d="M-5 1067h203l294 -742l236 742h176l-435 -1366h-181l139 416zM254 1205l301 234h187l-358 -234h-130z" />
<glyph unicode="&#xfe;" horiz-adv-x="965" d="M150 0v1222h146v-339q82 86 204 86q160 0 251 -92t97 -259q5 -164 -84 -261.5t-264 -97.5q-123 0 -204 83v-342h-146zM299 626q-2 -42 5.5 -82.5t27.5 -82t63.5 -67t104.5 -25.5q108 0 156 75t42 182q-6 109 -56 170t-142 61q-93 0 -143.5 -61t-57.5 -170z" />
<glyph unicode="&#xff;" horiz-adv-x="871" d="M-5 1067h203l294 -742l236 742h176l-435 -1366h-181l139 416zM235 1333q0 37 25.5 62.5t62.5 25.5t63.5 -25.5t26.5 -62.5t-26.5 -63.5t-63.5 -26.5t-62.5 26.5t-25.5 63.5zM545 1333q0 37 26.5 62.5t63.5 25.5t63 -25.5t26 -62.5t-26 -63.5t-63 -26.5t-63.5 26.5 t-26.5 63.5z" />
<glyph unicode="&#x2c6;" horiz-adv-x="798" d="M146 1395l254 233h31l230 -233h-103l-142 184l-164 -184h-106z" />
<glyph unicode="&#x2da;" horiz-adv-x="602" d="M-328 468q0 136 96.5 231t233.5 95q135 0 232 -95t97 -231t-97 -232t-232 -96q-137 0 -233.5 96t-96.5 232zM-232 468q0 -102 65 -170.5t166 -68.5q103 0 172 69t69 170q0 103 -69.5 174t-171 71t-166.5 -70t-65 -175z" />
<glyph unicode="&#x2dc;" horiz-adv-x="631" d="M83 1423v82q4 5 21 24.5t26.5 28.5t27 22.5t36.5 20t39 6.5q43 0 78.5 -21.5t64 -43t53.5 -21.5q21 0 39 4.5t35 13.5t26 14.5t24.5 18.5t19.5 15v-72q-20 -26 -32.5 -40.5t-42.5 -31t-64 -16.5q-32 0 -57.5 13.5t-40.5 28.5t-42 28t-61 13q-35 0 -64.5 -16t-54.5 -42 t-31 -29z" />
<glyph unicode="&#x5b0;" d="M-79 -231q0 31 21 54.5t59 23.5q32 0 55 -22.5t23 -55.5q0 -31 -23.5 -54t-54.5 -23q-33 0 -56.5 22.5t-23.5 54.5zM-79 -472q0 34 22.5 56.5t57.5 22.5q31 0 54.5 -23t23.5 -55.5t-23.5 -55t-54.5 -22.5q-33 0 -56.5 22.5t-23.5 54.5z" />
<glyph unicode="&#x5b1;" d="M-314 -231q0 31 20.5 54.5t56.5 23.5q33 0 55.5 -22.5t22.5 -55.5q0 -32 -22.5 -54.5t-55.5 -22.5q-32 0 -54.5 22.5t-22.5 54.5zM-194 -472q0 30 22 54.5t56 24.5q32 0 54.5 -21t22.5 -58q0 -32 -22 -54.5t-55 -22.5q-30 0 -54 22.5t-24 54.5zM-69 -231q0 35 22 56.5 t55 21.5q32 0 55 -20t23 -58q0 -32 -21.5 -54.5t-56.5 -22.5q-32 0 -54.5 22.5t-22.5 54.5zM159 -231q0 35 21 56.5t57 21.5t56.5 -23.5t20.5 -54.5q0 -32 -22.5 -54.5t-54.5 -22.5q-33 0 -55.5 23t-22.5 54zM159 -471.5q0 34.5 21.5 56.5t56.5 22q31 0 54 -21.5t23 -57.5 q0 -32 -22.5 -54.5t-54.5 -22.5q-30 0 -54 21.5t-24 56z" />
<glyph unicode="&#x5b2;" d="M-268 -162h312v-97h-312v97zM116 -231q0 33 22.5 55.5t55.5 22.5q36 0 55.5 -23.5t19.5 -54.5t-19.5 -54t-55.5 -23q-34 0 -56 23t-22 54zM116 -472q0 33 20 56t58 23q29 0 52 -21.5t23 -57.5q0 -31 -19.5 -54t-55.5 -23q-33 0 -55.5 21t-22.5 56z" />
<glyph unicode="&#x5b3;" d="M-360 -162h404v-97h-145v-180h-108v180h-151v97zM116 -231q0 33 22.5 55.5t55.5 22.5q36 0 55.5 -23.5t19.5 -54.5t-19.5 -54t-55.5 -23q-34 0 -56 23t-22 54zM116 -472q0 33 20 56t58 23q29 0 52 -21.5t23 -57.5q0 -31 -19.5 -54t-55.5 -23q-33 0 -55.5 21t-22.5 56z " />
<glyph unicode="&#x5b4;" d="M-79 -362q0 30 21 53.5t59 23.5q31 0 54.5 -22.5t23.5 -54.5q0 -34 -23 -56t-55 -22q-34 0 -57 21.5t-23 56.5z" />
<glyph unicode="&#x5b5;" d="M-197 -362q0 32 22 54.5t57 22.5q27 0 50.5 -21.5t23.5 -55.5t-21.5 -56t-52.5 -22q-37 0 -58 21t-21 57zM41 -362q0 30 22.5 53.5t54.5 23.5q36 0 57.5 -23.5t21.5 -53.5q0 -36 -21 -57t-58 -21q-27 0 -52 21.5t-25 56.5z" />
<glyph unicode="&#x5b6;" d="M-197 -224.5q0 33.5 21.5 55t57.5 21.5q27 0 50.5 -20.5t23.5 -55.5q0 -32 -22.5 -54.5t-51.5 -22.5q-36 0 -57.5 21.5t-21.5 55zM-79 -420q0 34 22.5 56t57.5 22q31 0 54.5 -23t23.5 -55q0 -31 -23.5 -54t-54.5 -23q-33 0 -56.5 22.5t-23.5 54.5zM41 -224q0 31 22 53.5 t55 22.5q36 0 57.5 -22.5t21.5 -53.5q0 -34 -21.5 -55.5t-57.5 -21.5q-27 0 -52 21t-25 56z" />
<glyph unicode="&#x5b7;" d="M-185 -276h370v-94h-370v94z" />
<glyph unicode="&#x5b8;" d="M-208 -213h416v-94h-155v-201h-106v201h-155v94z" />
<glyph unicode="&#x5b9;" d="M-79 1548q0 32 23 54.5t57 22.5q28 0 53 -22t25 -55q0 -32 -23.5 -55t-54.5 -23q-32 0 -56 23t-24 55z" />
<glyph unicode="&#x5bb;" d="M-298 -229q0 29 21.5 52.5t53.5 23.5q33 0 55.5 -22t22.5 -54q0 -33 -22 -55t-56 -22q-32 0 -53.5 22t-21.5 55zM-79 -348q0 34 22.5 55.5t57.5 21.5q31 0 54.5 -22.5t23.5 -55t-23.5 -55.5t-54.5 -23q-33 0 -56.5 23t-23.5 56zM145 -461q0 32 22.5 54.5t52.5 22.5 q34 0 56 -22.5t22 -54.5q0 -33 -22 -55.5t-56 -22.5q-33 0 -54 22.5t-21 55.5z" />
<glyph unicode="&#x5bc;" d="M-78 665q0 30 21 53.5t57 23.5q31 0 54.5 -21t23.5 -56q0 -34 -22.5 -56.5t-55.5 -22.5t-55.5 22t-22.5 57z" />
<glyph unicode="&#x5bd;" d="M-48 -104h96v-348h-96v348z" />
<glyph unicode="&#x5be;" horiz-adv-x="706" d="M70 1036v161h568v-161h-568z" />
<glyph unicode="&#x5c0;" d="M-89 132v1187h179v-1187h-179z" />
<glyph unicode="&#x5c1;" d="M-100 1503q0 44 30.5 70.5t68.5 26.5q48 0 74.5 -28.5t26.5 -68.5q0 -39 -26.5 -68t-74.5 -29q-40 0 -69.5 28.5t-29.5 68.5z" />
<glyph unicode="&#x5c2;" d="M-99 1503q0 44 30 70.5t69 26.5q46 0 72.5 -29t26.5 -70q0 -39 -29 -67t-70 -28q-43 0 -71 28.5t-28 68.5z" />
<glyph unicode="&#x5d0;" horiz-adv-x="1258" d="M124 1220h211l411 -629q94 14 146 71.5t52 155.5v402h196v-351q0 -174 -82 -271.5t-231 -114.5l337 -483h-229l-469 704q-70 -19 -107 -78t-37 -148l3 -478h-199v407q0 78 12 139.5t39.5 119t81.5 97t132 57.5z" />
<glyph unicode="&#x5d1;" horiz-adv-x="1158" d="M112 0v167h615v883h-615v170h826v-1053h160v-167h-986z" />
<glyph unicode="&#x5d2;" horiz-adv-x="763" d="M48 0v184h90q283 0 283 299q0 40 -6 92l-59 475h-234v170h407l155 -1220h-186l-38 275h-5q-57 -275 -337 -275h-70z" />
<glyph unicode="&#x5d3;" horiz-adv-x="1097" d="M76 1050v170h922v-170h-124v-1050h-217v1050h-581z" />
<glyph unicode="&#x5d4;" horiz-adv-x="1253" d="M144 1050v170h937v-1220h-207v1050h-730zM153 0v669h207v-669h-207z" />
<glyph unicode="&#x5d5;" horiz-adv-x="573" d="M182 0v1220h216v-1220h-216z" />
<glyph unicode="&#x5d6;" horiz-adv-x="822" d="M83 1050v170h652v-170h-214q-63 -83 -63 -201q0 -26 2 -52.5t8 -63.5t9.5 -57t13.5 -73.5t14 -71.5l102 -531h-202q-60 304 -97 513q-34 202 -34 289q0 174 101 248h-292z" />
<glyph unicode="&#x5d7;" horiz-adv-x="1260" d="M167 0v1220h559q120 0 200.5 -35.5t122 -108t57 -159.5t15.5 -213v-704h-211v728q0 75 -7 127t-27 99.5t-60.5 71.5t-101.5 24h-339v-1050h-208z" />
<glyph unicode="&#x5d8;" horiz-adv-x="1297" d="M104 1220h213l99 -1062h137q76 0 130.5 12t104 46.5t80 94.5t48 158t17.5 235v346h-276v170h480v-589q0 -173 -40.5 -297.5t-119 -196t-180 -104.5t-235.5 -33h-339z" />
<glyph unicode="&#x5d9;" horiz-adv-x="572" d="M186 589v632h216v-632h-216z" />
<glyph unicode="&#x5da;" horiz-adv-x="944" d="M68 1050v170h723v-1519h-214v1349h-509z" />
<glyph unicode="&#x5db;" horiz-adv-x="1052" d="M110 1050v170h344q250 0 371 -120.5t121 -369.5v-242q0 -245 -125 -366.5t-367 -121.5h-341v167h350q129 0 199.5 73.5t70.5 244.5v238q0 174 -70 250.5t-200 76.5h-353z" />
<glyph unicode="&#x5dc;" horiz-adv-x="1033" d="M92 1050v420h184v-250h718l-448 -1220h-207l377 1050h-624z" />
<glyph unicode="&#x5dd;" horiz-adv-x="1255" d="M146 0v1220h558q228 0 320.5 -111.5t92.5 -350.5v-758h-971zM342 158h581v595q0 58 -3 97t-17 82t-39.5 68t-70 41.5t-108.5 16.5h-343v-900z" />
<glyph unicode="&#x5de;" horiz-adv-x="1253" d="M87 0l230 1050h-202v170h537q137 0 228.5 -35.5t143.5 -112.5t73.5 -183.5t21.5 -261.5v-627h-537v163h335v565q0 78 -11 135.5t-38 104t-79 71t-128 24.5h-145l-222 -1063h-207z" />
<glyph unicode="&#x5df;" horiz-adv-x="579" d="M179 -299v1519h217v-1519h-217z" />
<glyph unicode="&#x5e0;" horiz-adv-x="737" d="M83 0v167h135q89 0 120.5 40t31.5 158v685h-165v170h375v-869q0 -164 -82 -257.5t-230 -93.5h-185z" />
<glyph unicode="&#x5e1;" horiz-adv-x="1255" d="M115 1220h1009v-589q0 -173 -42 -297.5t-121 -196t-181.5 -104.5t-235.5 -33h-278zM339 1058l108 -904h85q79 0 134 10.5t108 42.5t84.5 89t50.5 153.5t19 233.5v375h-589z" />
<glyph unicode="&#x5e2;" horiz-adv-x="1196" d="M-7 29l339 119l-215 1072h220l186 -1008q68 26 109 45.5t87.5 54.5t71.5 77.5t42 108.5t17 152v570h206v-506q0 -257 -110 -404t-393 -251l-513 -187z" />
<glyph unicode="&#x5e3;" horiz-adv-x="1144" d="M144 555v665h360q257 0 372 -113t115 -363v-1043h-216v1045q0 177 -58.5 243.5t-200.5 66.5h-168v-501h-204z" />
<glyph unicode="&#x5e4;" horiz-adv-x="1269" d="M177 562v658h426q249 0 370.5 -120.5t121.5 -369.5v-242q0 -488 -492 -488h-424v167h433q131 0 201 69.5t70 239.5v273q0 171 -69 240t-202 69h-242v-496h-193z" />
<glyph unicode="&#x5e5;" horiz-adv-x="1105" d="M101 1220h196l143 -681q182 5 257.5 92.5t75.5 280.5v308h200v-301q0 -246 -126.5 -371.5t-372.5 -147.5l153 -699h-198z" />
<glyph unicode="&#x5e6;" horiz-adv-x="1236" d="M68 1220h233l403 -613q195 37 195 229v384h200v-379q0 -131 -85 -233t-234 -127l315 -481h-937v167h612z" />
<glyph unicode="&#x5e7;" horiz-adv-x="1299" d="M120 1050v170h1013v-617q0 -140 -25 -244t-69 -172.5t-113 -110.5t-151 -59t-189 -17h-28v158h17q77 0 127 9t95.5 37t70 81t39 138.5t14.5 211.5v415h-801zM164 -299v1067h194v-1067h-194z" />
<glyph unicode="&#x5e8;" horiz-adv-x="1033" d="M108 1050v170h380q97 0 170 -26.5t118 -72.5t72.5 -116t38 -146.5t10.5 -175.5v-683h-214v697q0 75 -8.5 133t-30 110t-64 81t-104.5 29h-368z" />
<glyph unicode="&#x5e9;" horiz-adv-x="1530" d="M135 1220h197l99 -1062h320q199 0 307 99t108 325v638h200v-591q0 -314 -150 -471.5t-441 -157.5h-528zM665 452v768h187v-768h-187z" />
<glyph unicode="&#x5ea;" horiz-adv-x="1352" d="M61 0v167h222v883h-132v170h631q98 0 170.5 -26t118.5 -70t73.5 -112.5t38.5 -144.5t11 -175v-692h-207v733q0 73 -9.5 127.5t-32.5 103t-67 74t-110 25.5h-290v-1063h-417z" />
<glyph unicode="&#x5f0;" horiz-adv-x="1147" d="M756 0v1220h216v-1220h-216zM182 0v1220h216v-1220h-216z" />
<glyph unicode="&#x5f1;" horiz-adv-x="1146" d="M755 0v1220h216v-1220h-216zM186 589v632h216v-632h-216z" />
<glyph unicode="&#x5f2;" horiz-adv-x="1145" d="M759 589v632h216v-632h-216zM186 589v632h216v-632h-216z" />
<glyph unicode="&#x2000;" horiz-adv-x="1177" />
<glyph unicode="&#x2001;" horiz-adv-x="2355" />
<glyph unicode="&#x2002;" horiz-adv-x="1177" />
<glyph unicode="&#x2003;" horiz-adv-x="2355" />
<glyph unicode="&#x2004;" horiz-adv-x="784" />
<glyph unicode="&#x2005;" horiz-adv-x="588" />
<glyph unicode="&#x2006;" horiz-adv-x="392" />
<glyph unicode="&#x2007;" horiz-adv-x="1009" />
<glyph unicode="&#x2008;" horiz-adv-x="555" />
<glyph unicode="&#x2009;" horiz-adv-x="234" />
<glyph unicode="&#x200a;" horiz-adv-x="23" />
<glyph unicode="&#x200b;" />
<glyph unicode="&#x200c;" />
<glyph unicode="&#x200d;" />
<glyph unicode="&#x200e;" horiz-adv-x="784" />
<glyph unicode="&#x200f;" horiz-adv-x="784" />
<glyph unicode="&#x2010;" horiz-adv-x="923" d="M115 530v161h676v-161h-676z" />
<glyph unicode="&#x2011;" horiz-adv-x="923" d="M115 530v161h676v-161h-676z" />
<glyph unicode="&#x2012;" horiz-adv-x="1009" d="M115 530v161h762v-161h-762z" />
<glyph unicode="&#x2013;" horiz-adv-x="1258" d="M23 545v130h1198v-130h-1198z" />
<glyph unicode="&#x2014;" horiz-adv-x="2487" d="M61 554v106h2377v-106h-2377z" />
<glyph unicode="&#x2015;" horiz-adv-x="4710" d="M115 530v161h4463v-161h-4463z" />
<glyph unicode="&#x2016;" horiz-adv-x="1223" d="M868 -300v1785h95v-1785h-95zM256 -300v1785h95v-1785h-95z" />
<glyph unicode="&#x2018;" horiz-adv-x="492" d="M106 874l92 511h157v-151l-169 -360h-80z" />
<glyph unicode="&#x2019;" horiz-adv-x="489" d="M106 874l92 511h157v-151l-169 -360h-80z" />
<glyph unicode="&#x201a;" horiz-adv-x="492" d="M106 874l92 511h157v-151l-169 -360h-80z" />
<glyph unicode="&#x201c;" horiz-adv-x="710" d="M98 880l83 503h140v-148l-151 -355h-72zM375 880l82 503h139v-148l-150 -355h-71z" />
<glyph unicode="&#x201d;" horiz-adv-x="730" d="M98 880l83 503h140v-148l-151 -355h-72zM375 880l82 503h139v-148l-150 -355h-71z" />
<glyph unicode="&#x201e;" horiz-adv-x="718" d="M98 880l83 503h140v-148l-151 -355h-72zM375 880l82 503h139v-148l-150 -355h-71z" />
<glyph unicode="&#x2020;" horiz-adv-x="883" d="M-38 865h991q-211 -371 -496 -863zM172 744l289 -501l285 501h-574z" />
<glyph unicode="&#x2021;" horiz-adv-x="932" d="M-40 290l497 861l494 -861h-991zM167 409h575l-290 503z" />
<glyph unicode="&#x2022;" horiz-adv-x="757" d="M113 606q0 108 75.5 183.5t184 75.5t183.5 -75.5t75 -183.5t-75 -183.5t-183.5 -75.5t-184 75.5t-75.5 183.5z" />
<glyph unicode="&#x2024;" horiz-adv-x="555" d="M160 0v227h233v-227h-233z" />
<glyph unicode="&#x2025;" horiz-adv-x="1110" d="M715 0v227h233v-227h-233zM160 0v227h233v-227h-233z" />
<glyph unicode="&#x2026;" horiz-adv-x="1853" d="M229 0v227h233v-227h-233zM790 0v227h234v-227h-234zM1390 0v227h234v-227h-234z" />
<glyph unicode="&#x202a;" />
<glyph unicode="&#x202f;" horiz-adv-x="380" />
<glyph unicode="&#x2030;" horiz-adv-x="1380" d="M86 805v217q0 100 50.5 152t145.5 52t145 -52t50 -152v-217q0 -101 -50.5 -155t-145 -54t-145 54t-50.5 155zM108 0h79l705 1220h-77zM191 791q0 -46 24.5 -80.5t66.5 -34.5q43 0 68 33t24 82v245q1 48 -24 78t-68 30t-67 -28.5t-24 -79.5v-245zM529 200v219 q0 100 50.5 152t144.5 52q96 0 146.5 -52t50.5 -152v-219q0 -101 -51 -155t-145.5 -54t-145 54t-50.5 155zM634 187q0 -47 24.5 -81.5t65.5 -34.5q44 0 69 33t23 83v245q2 49 -23 79.5t-69 30.5q-42 0 -66 -29.5t-24 -80.5v-245zM976 200v219q0 100 51 152t145 52 q95 0 145.5 -52t50.5 -152v-219q0 -101 -51 -155t-145 -54t-145 54t-51 155zM1081 187q0 -47 24.5 -81.5t66.5 -34.5q44 0 68.5 33t23.5 83v245q1 49 -23.5 79.5t-68.5 30.5q-43 0 -67 -29.5t-24 -80.5v-245z" />
<glyph unicode="&#x2032;" horiz-adv-x="461" d="M101 874l92 511h158v-151l-169 -360h-81z" />
<glyph unicode="&#x2033;" horiz-adv-x="922" d="M562 874l92 511h158v-151l-169 -360h-81zM101 874l92 511h158v-151l-169 -360h-81z" />
<glyph unicode="&#x2034;" horiz-adv-x="1383" d="M1023 874l92 511h158v-151l-169 -360h-81zM562 874l92 511h158v-151l-169 -360h-81zM101 874l92 511h158v-151l-169 -360h-81z" />
<glyph unicode="&#x2035;" horiz-adv-x="492" d="M106 874l92 511h157v-151l-169 -360h-80z" />
<glyph unicode="&#x2036;" horiz-adv-x="984" d="M598 874l92 511h157v-151l-169 -360h-80zM106 874l92 511h157v-151l-169 -360h-80z" />
<glyph unicode="&#x2037;" horiz-adv-x="1476" d="M1090 874l92 511h157v-151l-169 -360h-80zM598 874l92 511h157v-151l-169 -360h-80zM106 874l92 511h157v-151l-169 -360h-80z" />
<glyph unicode="&#x2039;" horiz-adv-x="1083" d="M-8 551v125l940 466v-202l-710 -330l710 -327v-198z" />
<glyph unicode="&#x203a;" horiz-adv-x="1179" d="M218 85v198l710 327l-710 330v202l940 -466v-125z" />
<glyph unicode="&#x203c;" horiz-adv-x="1087" d="M699 0h234v227h-234v-227zM708 903v317h220v-317l-48 -494h-121zM155 0h234v227h-234v-227zM164 903v317h220v-317l-48 -494h-121z" />
<glyph unicode="&#x2047;" horiz-adv-x="1828" d="M1018 828q-14 194 78 296t277 102q153 0 247 -86.5t94 -221.5q0 -67 -25.5 -120.5t-63 -91t-75 -73.5t-65 -86t-29.5 -110h-116q-10 60 0.5 111.5t33.5 86t51.5 71.5t55 67.5t44.5 74t18 90.5q0 62 -46.5 108t-116.5 46q-51 0 -86.5 -14t-55.5 -36.5t-30.5 -59.5 t-13.5 -71.5t-2 -82.5h-174zM1285 0h234v227h-234v-227zM104 828q-14 194 78 296t277 102q153 0 247 -86.5t94 -221.5q0 -67 -25.5 -120.5t-63 -91t-75 -73.5t-65 -86t-29.5 -110h-116q-10 60 0.5 111.5t33.5 86t51.5 71.5t55 67.5t44.5 74t18 90.5q0 62 -46.5 108 t-116.5 46q-51 0 -86.5 -14t-55.5 -36.5t-30.5 -59.5t-13.5 -71.5t-2 -82.5h-174zM371 0h234v227h-234v-227z" />
<glyph unicode="&#x2048;" horiz-adv-x="1458" d="M1069 0h234v227h-234v-227zM1078 903v317h220v-317l-48 -494h-121zM104 828q-14 194 78 296t277 102q153 0 247 -86.5t94 -221.5q0 -67 -25.5 -120.5t-63 -91t-75 -73.5t-65 -86t-29.5 -110h-116q-10 60 0.5 111.5t33.5 86t51.5 71.5t55 67.5t44.5 74t18 90.5 q0 62 -46.5 108t-116.5 46q-51 0 -86.5 -14t-55.5 -36.5t-30.5 -59.5t-13.5 -71.5t-2 -82.5h-174zM371 0h234v227h-234v-227z" />
<glyph unicode="&#x2049;" horiz-adv-x="1458" d="M648 828q-14 194 78 296t277 102q153 0 247 -86.5t94 -221.5q0 -67 -25.5 -120.5t-63 -91t-75 -73.5t-65 -86t-29.5 -110h-116q-10 60 0.5 111.5t33.5 86t51.5 71.5t55 67.5t44.5 74t18 90.5q0 62 -46.5 108t-116.5 46q-51 0 -86.5 -14t-55.5 -36.5t-30.5 -59.5 t-13.5 -71.5t-2 -82.5h-174zM915 0h234v227h-234v-227zM155 0h234v227h-234v-227zM164 903v317h220v-317l-48 -494h-121z" />
<glyph unicode="&#x2057;" horiz-adv-x="1844" d="M1484 874l92 511h158v-151l-169 -360h-81zM1023 874l92 511h158v-151l-169 -360h-81zM562 874l92 511h158v-151l-169 -360h-81zM101 874l92 511h158v-151l-169 -360h-81z" />
<glyph unicode="&#x205f;" horiz-adv-x="475" />
<glyph unicode="&#x2060;" />
<glyph unicode="&#x20ac;" horiz-adv-x="1049" d="M47 537v115h151v148h-151v117h151v135q0 215 98 321t319 106q95 0 165.5 -23.5t106.5 -56.5t58 -78t27.5 -76.5t5.5 -64.5h-153q-7 99 -54.5 142.5t-155.5 43.5q-43 0 -80.5 -9t-78 -33t-64 -76.5t-23.5 -128.5l-2 -202h240v-117h-240v-148h240v-115h-240l1 -160 q0 -85 20.5 -143.5t57.5 -88t77.5 -41.5t91.5 -12q105 0 157.5 54.5t52.5 143.5h155q-1 -37 -7.5 -71.5t-29 -79.5t-60 -77t-107 -55t-161.5 -23q-223 0 -319 99t-97 313l1 141h-153z" />
<glyph unicode="&#x2122;" horiz-adv-x="1255" d="M43 1378v92h371v-92h-120v-506h-119v506h-132zM506 872v598h161l160 -387l169 387h151v-598h-87v546l-163 -391h-136l-165 391v-546h-90z" />
<glyph unicode="&#xe000;" horiz-adv-x="1065" d="M0 1065h1065v-1065h-1065v1065z" />
<glyph unicode="&#xfb00;" horiz-adv-x="1352" d="M721 922v146h151v81q0 90 20.5 155.5t56.5 100t76.5 50t86.5 15.5h221v-142h-165q-56 0 -89 -28.5t-33 -108.5v-123h228v-146h-225v-922h-177v922h-151zM45 922v146h151v81q0 90 20.5 155.5t56.5 100t76.5 50t86.5 15.5h221v-142h-165q-56 0 -89 -28.5t-33 -108.5v-123 h228v-146h-225v-922h-177v922h-151z" />
<glyph unicode="&#xfb01;" horiz-adv-x="1194" d="M840 0v1067h187v-1067h-187zM840 1288v182h187v-182h-187zM45 922v146h151v81q0 90 20.5 155.5t56.5 100t76.5 50t86.5 15.5h221v-142h-165q-56 0 -89 -28.5t-33 -108.5v-123h228v-146h-225v-922h-177v922h-151z" />
<glyph unicode="&#xfb02;" horiz-adv-x="1222" d="M843 283v1187h175v-1187q0 -81 23.5 -105.5t74.5 -24.5h86v-153h-133q-49 0 -84.5 10t-70 37.5t-53 86.5t-18.5 149zM45 922v146h151v81q0 90 20.5 155.5t56.5 100t76.5 50t86.5 15.5h221v-142h-165q-56 0 -89 -28.5t-33 -108.5v-123h228v-146h-225v-922h-177v922h-151z " />
<glyph unicode="&#xfb03;" horiz-adv-x="1871" d="M1516 0v1067h187v-1067h-187zM1516 1288v182h187v-182h-187zM721 922v146h151v81q0 90 20.5 155.5t56.5 100t76.5 50t86.5 15.5h221v-142h-165q-56 0 -89 -28.5t-33 -108.5v-123h228v-146h-225v-922h-177v922h-151zM45 922v146h151v81q0 90 20.5 155.5t56.5 100t76.5 50 t86.5 15.5h221v-142h-165q-56 0 -89 -28.5t-33 -108.5v-123h228v-146h-225v-922h-177v922h-151z" />
<glyph unicode="&#xfb04;" horiz-adv-x="1898" d="M1519 283v1187h175v-1187q0 -81 23.5 -105.5t74.5 -24.5h86v-153h-133q-49 0 -84.5 10t-70 37.5t-53 86.5t-18.5 149zM721 922v146h151v81q0 90 20.5 155.5t56.5 100t76.5 50t86.5 15.5h221v-142h-165q-56 0 -89 -28.5t-33 -108.5v-123h228v-146h-225v-922h-177v922h-151 zM45 922v146h151v81q0 90 20.5 155.5t56.5 100t76.5 50t86.5 15.5h221v-142h-165q-56 0 -89 -28.5t-33 -108.5v-123h228v-146h-225v-922h-177v922h-151z" />
<glyph unicode="&#xfb06;" horiz-adv-x="1584" d="M963 921v146h159v270h182v-270h182v-146h-182v-640q0 -81 23.5 -105.5t77.5 -24.5h97v-151h-146q-51 0 -87.5 10t-72.5 37.5t-55 86.5t-19 149v638h-159zM83 290h180q6 -77 49.5 -121.5t117.5 -44.5q47 0 80.5 5.5t64 19t46 43t15.5 74.5q0 25 -3.5 44.5t-15 37.5t-20 28 t-33 25.5t-38 23t-51.5 26.5t-59 30q-143 76 -185 105q-109 80 -124 195q-3 23 -3 48q0 113 101 185t247 72q101 0 180.5 -30t129.5 -100q49 -67 49 -164v-8h-166q0 66 -57 123.5t-136 57.5q-84 0 -129 -50t-45 -119q0 -59 56 -101.5t192 -106.5q59 -28 89 -43t75.5 -45.5 t68 -58.5t39.5 -72.5t17 -97.5q0 -135 -105 -207.5t-276 -72.5q-155 0 -247.5 78t-103.5 221z" />
<glyph unicode="&#xfb1d;" horiz-adv-x="591" d="M-55 693q0 30 21 53.5t57 23.5q31 0 54.5 -20.5t23.5 -56.5q0 -33 -22.5 -55.5t-55.5 -22.5t-55.5 22t-22.5 56zM207 589v632h216v-632h-216z" />
<glyph unicode="&#xfb1f;" horiz-adv-x="1145" d="M759 589v632h216v-632h-216zM186 589v632h216v-632h-216zM-185 -276h370v-94h-370v94z" />
<glyph unicode="&#xfb20;" horiz-adv-x="1196" d="M-7 29l339 119l-215 1072h220l186 -1008q68 26 109 45.5t87.5 54.5t71.5 77.5t42 108.5t17 152v570h206v-506q0 -257 -110 -404t-393 -251l-513 -187z" />
<glyph unicode="&#xfb21;" horiz-adv-x="1258" d="M124 1220h211l411 -629q94 14 146 71.5t52 155.5v402h196v-351q0 -174 -82 -271.5t-231 -114.5l337 -483h-229l-469 704q-70 -19 -107 -78t-37 -148l3 -478h-199v407q0 78 12 139.5t39.5 119t81.5 97t132 57.5z" />
<glyph unicode="&#xfb22;" horiz-adv-x="1097" d="M76 1050v170h922v-170h-124v-1050h-217v1050h-581z" />
<glyph unicode="&#xfb23;" horiz-adv-x="1253" d="M144 1050v170h937v-1220h-207v1050h-730zM153 0v669h207v-669h-207z" />
<glyph unicode="&#xfb24;" horiz-adv-x="1052" d="M110 1050v170h344q250 0 371 -120.5t121 -369.5v-242q0 -245 -125 -366.5t-367 -121.5h-341v167h350q129 0 199.5 73.5t70.5 244.5v238q0 174 -70 250.5t-200 76.5h-353z" />
<glyph unicode="&#xfb25;" horiz-adv-x="1033" d="M92 1050v420h184v-250h718l-448 -1220h-207l377 1050h-624z" />
<glyph unicode="&#xfb26;" horiz-adv-x="1255" d="M146 0v1220h558q228 0 320.5 -111.5t92.5 -350.5v-758h-971zM342 158h581v595q0 58 -3 97t-17 82t-39.5 68t-70 41.5t-108.5 16.5h-343v-900z" />
<glyph unicode="&#xfb27;" horiz-adv-x="1033" d="M108 1050v170h380q97 0 170 -26.5t118 -72.5t72.5 -116t38 -146.5t10.5 -175.5v-683h-214v697q0 75 -8.5 133t-30 110t-64 81t-104.5 29h-368z" />
<glyph unicode="&#xfb28;" horiz-adv-x="1352" d="M61 0v167h222v883h-132v170h631q98 0 170.5 -26t118.5 -70t73.5 -112.5t38.5 -144.5t11 -175v-692h-207v733q0 73 -9.5 127.5t-32.5 103t-67 74t-110 25.5h-290v-1063h-417z" />
<glyph unicode="&#xfb29;" horiz-adv-x="1083" d="M83 534v143h395v396h142v-396h395v-143h-395v-394h-142v394h-395z" />
<glyph unicode="&#xfb2a;" horiz-adv-x="1519" d="M137 1220h198l99 -1062h319q199 0 307 99t108 325v638h200v-591q0 -314 -150 -471.5t-441 -157.5h-527zM667 452v768h187v-768h-187zM1201 1494q0 32 23 54.5t57 22.5q28 0 53 -22t25 -55q0 -32 -23.5 -55t-54.5 -23q-32 0 -56 23t-24 55z" />
<glyph unicode="&#xfb2b;" horiz-adv-x="1509" d="M123 1220h198l99 -1062h319q199 0 307.5 99t108.5 325v638h200v-591q0 -314 -150 -471.5t-441 -157.5h-528zM140 1548q0 32 23 54.5t58 22.5q27 0 52.5 -22t25.5 -55q0 -32 -23.5 -55t-54.5 -23q-32 0 -56.5 23t-24.5 55zM653 452v768h188v-768h-188z" />
<glyph unicode="&#xfb2c;" horiz-adv-x="1512" d="M146 1220h198l99 -1062h319q199 0 307.5 99t108.5 325v638h200v-591q0 -314 -150 -471.5t-441 -157.5h-528zM454 990q0 32 23 54.5t58 22.5q27 0 52.5 -21.5t25.5 -55.5q0 -32 -23.5 -55t-54.5 -23q-32 0 -56.5 23t-24.5 55zM676 452v768h188v-768h-188zM1160 1548 q0 32 23 54.5t58 22.5q27 0 52.5 -22t25.5 -55q0 -32 -23.5 -55t-54.5 -23q-32 0 -56.5 23t-24.5 55z" />
<glyph unicode="&#xfb2d;" horiz-adv-x="1559" d="M136 1525q0 32 23 54.5t57 22.5q28 0 53 -22t25 -55q0 -32 -23.5 -55t-54.5 -23q-32 0 -56 23t-24 55zM163 1220h198l99 -1062h320q199 0 307 99t108 325v638h200v-591q0 -314 -150 -471.5t-441 -157.5h-528zM470 968q0 32 23 54.5t58 22.5q27 0 52.5 -21.5t25.5 -55.5 q0 -32 -23.5 -55t-54.5 -23q-32 0 -56.5 23t-24.5 55zM693 452v768h188v-768h-188z" />
<glyph unicode="&#xfb2e;" horiz-adv-x="1258" d="M124 1220h211l411 -629q94 14 146 71.5t52 155.5v402h196v-351q0 -174 -82 -271.5t-231 -114.5l337 -483h-229l-469 704q-70 -19 -107 -78t-37 -148l3 -478h-199v407q0 78 12 139.5t39.5 119t81.5 97t132 57.5zM-185 -276h370v-94h-370v94z" />
<glyph unicode="&#xfb2f;" horiz-adv-x="1258" d="M124 1220h211l411 -629q94 14 146 71.5t52 155.5v402h196v-351q0 -174 -82 -271.5t-231 -114.5l337 -483h-229l-469 704q-70 -19 -107 -78t-37 -148l3 -478h-199v407q0 78 12 139.5t39.5 119t81.5 97t132 57.5zM-208 -213h416v-94h-155v-201h-106v201h-155v94z" />
<glyph unicode="&#xfb30;" horiz-adv-x="1258" d="M124 1220h211l411 -629q94 14 146 71.5t52 155.5v402h196v-351q0 -174 -82 -271.5t-231 -114.5l337 -483h-229l-469 704q-70 -19 -107 -78t-37 -148l3 -478h-199v407q0 78 12 139.5t39.5 119t81.5 97t132 57.5zM-78 665q0 30 21 53.5t57 23.5q31 0 54.5 -21t23.5 -56 q0 -34 -22.5 -56.5t-55.5 -22.5t-55.5 22t-22.5 57z" />
<glyph unicode="&#xfb31;" horiz-adv-x="1191" d="M104 0v167h615v883h-615v170h826v-1053h160v-167h-986zM339 642q0 30 21.5 53.5t56.5 23.5q31 0 55 -21t24 -56q0 -34 -22.5 -56t-56 -22t-56 21.5t-22.5 56.5z" />
<glyph unicode="&#xfb32;" horiz-adv-x="813" d="M64 0v184h90q283 0 283 299q0 40 -6 92l-58 475h-235v170h407l155 -1220h-186l-38 275h-4q-58 -275 -337 -275h-71zM115 665q0 30 21.5 53.5t56.5 23.5q31 0 54.5 -21t23.5 -56q0 -34 -22 -56.5t-55.5 -22.5t-56 22t-22.5 57z" />
<glyph unicode="&#xfb33;" horiz-adv-x="1130" d="M92 1050v170h922v-170h-124v-1050h-217v1050h-581zM346 665q0 30 21.5 53.5t56.5 23.5q31 0 55 -21t24 -56q0 -34 -22.5 -56.5t-56 -22.5t-56 22t-22.5 57z" />
<glyph unicode="&#xfb34;" horiz-adv-x="1260" d="M146 1050v170h937v-1220h-207v1050h-730zM155 0v669h207v-669h-207zM555 660q0 -34 22.5 -56t56 -22t56 22.5t22.5 55.5q0 36 -23.5 56.5t-54.5 20.5q-36 0 -57.5 -23.5t-21.5 -53.5z" />
<glyph unicode="&#xfb35;" horiz-adv-x="600" d="M-47 671.5q0 32.5 23 55t57 22.5q28 0 53.5 -22t25.5 -55t-24 -56t-55 -23q-32 0 -56 23t-24 55.5zM227 0v1220h216v-1220h-216z" />
<glyph unicode="&#xfb36;" horiz-adv-x="804" d="M7 545q0 32 23 54.5t57 22.5q28 0 53.5 -22t25.5 -55q0 -32 -24 -55t-55 -23q-32 0 -56 23t-24 55zM64 1050v170h652v-170h-213q-64 -83 -64 -201q0 -26 2.5 -52.5t8 -63.5t9 -57t14 -73.5t13.5 -71.5l103 -531h-203q-59 304 -96 513q-35 202 -35 289q0 174 101 248h-292 z" />
<glyph unicode="&#xfb38;" horiz-adv-x="1285" d="M106 1220h214l99 -1062h136q76 0 131 12t104.5 46.5t79.5 94.5t47.5 158t17.5 235v346h-276v170h481v-589q0 -173 -41 -297.5t-119 -196t-180 -104.5t-235 -33h-340zM574 629q0 -34 22.5 -56t55.5 -22t55.5 22.5t22.5 55.5q0 36 -23.5 56.5t-54.5 20.5q-36 0 -57 -23.5 t-21 -53.5z" />
<glyph unicode="&#xfb39;" horiz-adv-x="656" d="M-8 773q0 32 23 54.5t57 22.5q28 0 53.5 -22t25.5 -55q0 -32 -23.5 -55t-55.5 -23t-56 23t-24 55zM243 589v632h216v-632h-216z" />
<glyph unicode="&#xfb3a;" horiz-adv-x="923" d="M54 1050v170h723v-1519h-213v1349h-510zM216 599q0 -34 22.5 -56t56 -22t56 22.5t22.5 55.5q0 36 -24 56.5t-55 20.5q-35 0 -56.5 -23.5t-21.5 -53.5z" />
<glyph unicode="&#xfb3b;" horiz-adv-x="1033" d="M92 1050v170h344q249 0 370.5 -120.5t121.5 -369.5v-242q0 -245 -125.5 -366.5t-366.5 -121.5h-342v167h351q129 0 199 73.5t70 244.5v238q0 174 -69.5 250.5t-199.5 76.5h-353zM245 636q0 -35 22.5 -56.5t55.5 -21.5t55.5 22.5t22.5 55.5q0 36 -23.5 56.5t-54.5 20.5 q-35 0 -56.5 -23.5t-21.5 -53.5z" />
<glyph unicode="&#xfb3c;" horiz-adv-x="1020" d="M80 1050v420h184v-250h718l-447 -1220h-207l377 1050h-625zM213 753q0 -34 22.5 -56t55.5 -22t55.5 22.5t22.5 55.5q0 36 -23.5 56.5t-54.5 20.5q-36 0 -57 -23.5t-21 -53.5z" />
<glyph unicode="&#xfb3e;" horiz-adv-x="1229" d="M74 0l230 1050h-203v170h537q137 0 228.5 -35.5t144 -112.5t73.5 -183.5t21 -261.5v-627h-537v163h335v565q0 78 -11 135.5t-38 104t-79 71t-128 24.5h-144l-222 -1063h-207zM562 586q0 -34 22.5 -56t56 -22t56 22.5t22.5 55.5q0 36 -23.5 57t-54.5 21q-36 0 -57.5 -24 t-21.5 -54z" />
<glyph unicode="&#xfb40;" horiz-adv-x="739" d="M83 667q0 30 21 53.5t57 23.5q31 0 54.5 -20.5t23.5 -56.5q0 -33 -22.5 -55.5t-55.5 -22.5t-55.5 21.5t-22.5 56.5zM92 0v167h136q88 0 120 40t32 158v685h-166v170h375v-869q0 -164 -81.5 -257.5t-230.5 -93.5h-185z" />
<glyph unicode="&#xfb41;" horiz-adv-x="1262" d="M110 1220h1009v-589q0 -173 -42 -297.5t-121 -196t-181 -104.5t-236 -33h-278zM335 1058l108 -904h85q78 0 133 10.5t108 42.5t85 89t50.5 153.5t18.5 233.5v375h-588zM574 671.5q0 -32.5 24 -55.5t56 -23q31 0 55 23t24 56t-25.5 55t-53.5 22q-34 0 -57 -22.5t-23 -55z " />
<glyph unicode="&#xfb43;" horiz-adv-x="1144" d="M144 555v665h360q257 0 372 -113t115 -363v-1043h-216v1045q0 177 -58.5 243.5t-200.5 66.5h-168v-501h-204zM-78 665q0 30 21 53.5t57 23.5q31 0 54.5 -21t23.5 -56q0 -34 -22.5 -56.5t-55.5 -22.5t-55.5 22t-22.5 57z" />
<glyph unicode="&#xfb44;" horiz-adv-x="1213" d="M166 562v658h425q250 0 371 -120.5t121 -369.5v-242q0 -488 -492 -488h-423v167h432q131 0 201.5 69.5t70.5 239.5v273q0 171 -69 240t-203 69h-241v-496h-193zM504 646q0 -32 24 -55t56 -23q31 0 54.5 23t23.5 55q0 34 -25 55.5t-53 21.5q-34 0 -57 -22.5t-23 -54.5z " />
<glyph unicode="&#xfb46;" horiz-adv-x="1222" d="M59 1220h233l403 -613q195 37 195 229v384h200v-379q0 -131 -85 -233t-235 -127l316 -481h-938v167h613zM185 478q0 -34 22.5 -56t56 -22t56 22.5t22.5 55.5q0 36 -24 56.5t-55 20.5q-35 0 -56.5 -23.5t-21.5 -53.5z" />
<glyph unicode="&#xfb47;" horiz-adv-x="1337" d="M153 1050v170h1013v-617q0 -140 -24.5 -244t-69 -172.5t-113.5 -110.5t-150.5 -59t-188.5 -17h-29v158h17q77 0 127 9t95.5 37t70.5 81t39 138.5t14 211.5v415h-801zM198 -299v1067h193v-1067h-193zM628 712q0 -35 22.5 -56.5t55.5 -21.5t55.5 22t22.5 56 q0 36 -23.5 56.5t-54.5 20.5q-36 0 -57 -23.5t-21 -53.5z" />
<glyph unicode="&#xfb48;" horiz-adv-x="1033" d="M108 1050v170h380q97 0 170 -26.5t118 -72.5t72.5 -116t38 -146.5t10.5 -175.5v-683h-214v697q0 75 -8.5 133t-30 110t-64 81t-104.5 29h-368zM-78 665q0 30 21 53.5t57 23.5q31 0 54.5 -21t23.5 -56q0 -34 -22.5 -56.5t-55.5 -22.5t-55.5 22t-22.5 57z" />
<glyph unicode="&#xfb49;" horiz-adv-x="1519" d="M141 1220h198l99 -1062h320q199 0 307 99t108 325v638h200v-591q0 -314 -150 -471.5t-441 -157.5h-528zM438 968q0 -32 24 -55t57 -23q31 0 54.5 23t23.5 55q0 34 -25.5 55.5t-52.5 21.5q-35 0 -58 -22.5t-23 -54.5zM672 452v768h187v-768h-187z" />
<glyph unicode="&#xfb4a;" horiz-adv-x="1404" d="M84 0v167h222v883h-132v170h631q98 0 170.5 -26t118.5 -70t73.5 -112.5t38.5 -144.5t11 -175v-692h-207v733q0 73 -9.5 127.5t-32.5 103t-67 74t-110 25.5h-290v-1063h-417zM657 604q0 -35 22.5 -56.5t55.5 -21.5t55.5 22t22.5 56q0 35 -23.5 56t-54.5 21 q-36 0 -57 -23.5t-21 -53.5z" />
<glyph unicode="&#xfb4b;" horiz-adv-x="611" d="M215 0v1220h216v-1220h-216zM243 1501q0 32 23 54.5t57 22.5q28 0 53 -22t25 -55q0 -32 -23.5 -55t-54.5 -23q-32 0 -56 23t-24 55z" />
<glyph unicode="&#xfb4f;" horiz-adv-x="2291" d="M1158 1220h211l411 -629q94 14 146 71.5t52 155.5v402h196v-351q0 -174 -82 -271.5t-231 -114.5l337 -483h-229l-469 704q-70 -19 -107 -78t-37 -148l3 -478h-199v407q0 78 12 139.5t39.5 119t81.5 97t132 57.5zM92 1050v420h184v-250h718l-448 -1220h-207l377 1050h-624 z" />
</font>
</defs>
</svg>
